<svg width="160" height="52" viewBox="0 0 160 52" fill="none" xmlns="http://www.w3.org/2000/svg">
<rect y="-0.000244141" width="160" height="52" rx="26" fill="#C33E21"/>
<path d="M48.5254 28.0916C48.5254 28.2061 48.5755 28.2634 48.6758 28.2634H51.6621C51.7624 28.2634 51.8125 28.2061 51.8125 28.0916V27.1677C51.8125 27.0531 51.7624 26.9958 51.6621 26.9958H48.6758C48.5755 26.9958 48.5254 27.0531 48.5254 27.1677V28.0916ZM42.3379 26.9958C42.2376 26.9958 42.1875 27.0531 42.1875 27.1677V28.0916C42.1875 28.2061 42.2376 28.2634 42.3379 28.2634H45.1523C45.2526 28.2634 45.3027 28.2061 45.3027 28.0916V27.1677C45.3027 27.0531 45.2526 26.9958 45.1523 26.9958H42.3379ZM45.3027 23.3005C45.3027 23.186 45.2526 23.1287 45.1523 23.1287H42.3379C42.2376 23.1287 42.1875 23.186 42.1875 23.3005V24.1599C42.1875 24.2602 42.2376 24.3103 42.3379 24.3103H45.1523C45.2526 24.3103 45.3027 24.2602 45.3027 24.1599V23.3005ZM51.8125 23.3005C51.8125 23.186 51.7624 23.1287 51.6621 23.1287H48.6758C48.5755 23.1287 48.5254 23.186 48.5254 23.3005V24.1599C48.5254 24.2602 48.5755 24.3103 48.6758 24.3103H51.6621C51.7624 24.3103 51.8125 24.2602 51.8125 24.1599V23.3005ZM56.1738 28.2634C56.5319 28.2634 56.8327 28.3852 57.0762 28.6287C57.3197 28.8722 57.4414 29.1729 57.4414 29.531V29.9177C57.4414 30.2615 57.3197 30.5623 57.0762 30.8201C56.8327 31.0636 56.5319 31.1853 56.1738 31.1853H55.1641C55.0638 31.1853 55.0137 31.2354 55.0137 31.3357V32.7751C55.0137 33.5486 54.9134 34.1501 54.7129 34.5798C54.5124 35.0238 54.1615 35.3676 53.6602 35.6111C53.0299 35.9119 52.056 36.0837 50.7383 36.1267C50.724 36.1267 50.7025 36.1267 50.6738 36.1267C50.3444 36.1267 50.0365 36.0121 49.75 35.783C49.4635 35.5681 49.2559 35.2745 49.127 34.9021C49.0553 34.7016 48.9766 34.4939 48.8906 34.2791C48.8477 34.1788 48.8262 34.0785 48.8262 33.9783C48.8262 33.8207 48.8763 33.6703 48.9766 33.5271C49.1341 33.2979 49.349 33.1833 49.6211 33.1833C49.6927 33.1833 50.2441 33.1833 51.2754 33.1833C51.4759 33.1833 51.612 33.1547 51.6836 33.0974C51.7695 33.0258 51.8125 32.9041 51.8125 32.7322V31.3357C51.8125 31.2354 51.7624 31.1853 51.6621 31.1853H42.3379C42.2376 31.1853 42.1875 31.2354 42.1875 31.3357V34.8376C42.1875 35.1957 42.0586 35.4965 41.8008 35.74C41.5573 35.9835 41.2637 36.1052 40.9199 36.1052H40.2754C39.9316 36.1052 39.6309 35.9835 39.373 35.74C39.1296 35.4965 39.0078 35.1957 39.0078 34.8376V31.3357C39.0078 31.2354 38.9577 31.1853 38.8574 31.1853H37.8262C37.4681 31.1853 37.1673 31.0636 36.9238 30.8201C36.6803 30.5623 36.5586 30.2615 36.5586 29.9177V29.531C36.5586 29.1729 36.6803 28.8722 36.9238 28.6287C37.1673 28.3852 37.4681 28.2634 37.8262 28.2634H38.8574C38.9577 28.2634 39.0078 28.2061 39.0078 28.0916V21.5388C39.0078 21.1951 39.1296 20.9014 39.373 20.658C39.6309 20.4001 39.9316 20.2712 40.2754 20.2712H45.1523C45.2526 20.2712 45.3027 20.2211 45.3027 20.1208V19.3689C45.3027 19.2686 45.2526 19.2185 45.1523 19.2185H38.7715C38.4134 19.2185 38.1126 19.0968 37.8691 18.8533C37.6257 18.5955 37.5039 18.2947 37.5039 17.9509V17.5642C37.5039 17.2061 37.6257 16.9054 37.8691 16.6619C38.1126 16.4184 38.4134 16.2966 38.7715 16.2966H55.25C55.6081 16.2966 55.9089 16.4184 56.1523 16.6619C56.3958 16.9054 56.5176 17.2061 56.5176 17.5642V17.9509C56.5176 18.2947 56.3958 18.5955 56.1523 18.8533C55.9089 19.0968 55.6081 19.2185 55.25 19.2185H48.6758C48.5755 19.2185 48.5254 19.2686 48.5254 19.3689V20.1208C48.5254 20.2211 48.5755 20.2712 48.6758 20.2712H53.7461C54.0898 20.2712 54.3835 20.4001 54.627 20.658C54.8848 20.9014 55.0137 21.1951 55.0137 21.5388V28.0916C55.0137 28.2061 55.0638 28.2634 55.1641 28.2634H56.1738ZM76.9062 16.7693C77.25 16.7693 77.5436 16.8982 77.7871 17.156C78.0449 17.3995 78.1738 17.6931 78.1738 18.0369V18.5525C78.1738 18.8962 78.0449 19.197 77.7871 19.4548C77.5436 19.6983 77.25 19.8201 76.9062 19.8201H68.7207C68.377 19.8201 68.0762 19.6983 67.8184 19.4548C67.5749 19.197 67.4531 18.8962 67.4531 18.5525V18.0369C67.4531 17.6931 67.5749 17.3995 67.8184 17.156C68.0762 16.8982 68.377 16.7693 68.7207 16.7693H76.9062ZM65.4121 29.1013C65.498 29.087 65.584 29.0798 65.6699 29.0798C65.8991 29.0798 66.1139 29.1514 66.3145 29.2947C66.6009 29.4809 66.7585 29.7458 66.7871 30.0896L66.8301 30.3259C66.8301 30.3832 66.8301 30.4405 66.8301 30.4978C66.8301 30.7986 66.7513 31.0707 66.5938 31.3142C66.3789 31.615 66.0996 31.8083 65.7559 31.8943C64.9681 32.0948 63.0775 32.5746 60.084 33.3337C59.9837 33.3624 59.8835 33.3767 59.7832 33.3767C59.554 33.3767 59.3392 33.3123 59.1387 33.1833C58.8522 32.9972 58.6732 32.7393 58.6016 32.4099L58.4941 31.8298C58.4798 31.7439 58.4727 31.658 58.4727 31.572C58.4727 31.3285 58.5443 31.0994 58.6875 30.8845C58.8737 30.5981 59.1387 30.4262 59.4824 30.3689C59.8262 30.2973 60.3346 30.1899 61.0078 30.0466C61.1081 30.0323 61.1582 29.9679 61.1582 29.8533V26.1794C61.1582 26.0649 61.1081 26.0076 61.0078 26.0076H60.1484C59.8047 26.0076 59.5039 25.8858 59.2461 25.6423C59.0026 25.3988 58.8809 25.0981 58.8809 24.74V24.3533C58.8809 24.0095 59.0026 23.7159 59.2461 23.4724C59.5039 23.2146 59.8047 23.0857 60.1484 23.0857H61.0078C61.1081 23.0857 61.1582 23.0356 61.1582 22.9353V19.906C61.1582 19.7914 61.1081 19.7341 61.0078 19.7341H59.9766C59.6185 19.7341 59.3177 19.6124 59.0742 19.3689C58.8307 19.1254 58.709 18.8246 58.709 18.4666V18.0583C58.709 17.7146 58.8307 17.421 59.0742 17.1775C59.3177 16.9197 59.6185 16.7908 59.9766 16.7908H65.0684C65.4264 16.7908 65.7272 16.9197 65.9707 17.1775C66.2142 17.421 66.3359 17.7146 66.3359 18.0583V18.4666C66.3359 18.8246 66.2142 19.1254 65.9707 19.3689C65.7272 19.6124 65.4264 19.7341 65.0684 19.7341H64.4023C64.3021 19.7341 64.252 19.7914 64.252 19.906V22.9353C64.252 23.0356 64.3021 23.0857 64.4023 23.0857H64.9609C65.3047 23.0857 65.5983 23.2146 65.8418 23.4724C66.0996 23.7159 66.2285 24.0095 66.2285 24.3533V24.74C66.2285 25.0981 66.0996 25.3988 65.8418 25.6423C65.5983 25.8858 65.3047 26.0076 64.9609 26.0076H64.4023C64.3021 26.0076 64.252 26.0649 64.252 26.1794V29.1873C64.252 29.3018 64.3021 29.3448 64.4023 29.3162L65.4121 29.1013ZM76.2832 33.033H76.627C76.7129 33.033 76.7773 32.99 76.8203 32.9041C76.8776 32.8181 76.9206 32.6462 76.9492 32.3884C76.9779 32.1306 76.9993 31.7582 77.0137 31.2712C77.028 30.9991 77.1569 30.7986 77.4004 30.6697C77.515 30.5981 77.6367 30.5623 77.7656 30.5623C77.8945 30.5623 78.0163 30.5909 78.1309 30.6482C78.3027 30.7341 78.4818 30.8129 78.668 30.8845C79.026 31.0278 79.3053 31.2569 79.5059 31.572C79.6777 31.8155 79.7637 32.0805 79.7637 32.3669C79.7637 32.4242 79.7565 32.4887 79.7422 32.5603C79.5703 33.8494 79.2695 34.7445 78.8398 35.2458C78.4245 35.7472 77.8086 35.9978 76.9922 35.9978H75.6816C74.5645 35.9978 73.8125 35.7257 73.4258 35.1814C73.0534 34.6371 72.8672 33.6345 72.8672 32.1736V26.0935C72.8672 25.9789 72.8171 25.9216 72.7168 25.9216H72.0723C71.9577 25.9216 71.9004 25.9789 71.9004 26.0935C71.8574 27.0818 71.7858 27.934 71.6855 28.6501C71.5996 29.3663 71.4421 30.0968 71.2129 30.8416C70.998 31.5863 70.7116 32.2309 70.3535 32.7751C69.9954 33.3194 69.5228 33.835 68.9355 34.322C68.3626 34.8233 67.6751 35.253 66.873 35.6111C66.7012 35.6827 66.5293 35.7185 66.3574 35.7185C66.1999 35.7185 66.0423 35.6899 65.8848 35.6326C65.5553 35.518 65.2904 35.3031 65.0898 34.988C64.9896 34.8448 64.8893 34.7016 64.7891 34.5583C64.6602 34.3865 64.5957 34.2003 64.5957 33.9998C64.5957 33.9281 64.6029 33.8494 64.6172 33.7634C64.6888 33.477 64.8607 33.2764 65.1328 33.1619C65.6484 32.9184 66.0996 32.6606 66.4863 32.3884C66.873 32.1163 67.1953 31.8083 67.4531 31.4646C67.7253 31.1065 67.9473 30.7556 68.1191 30.4119C68.291 30.0538 68.4271 29.6313 68.5273 29.1443C68.6276 28.643 68.6992 28.1703 68.7422 27.7263C68.7852 27.2823 68.821 26.738 68.8496 26.0935C68.8496 25.9789 68.7923 25.9216 68.6777 25.9216H67.8828C67.5391 25.9216 67.2383 25.7999 66.9805 25.5564C66.737 25.3129 66.6152 25.0121 66.6152 24.6541V24.1384C66.6152 23.7804 66.737 23.4796 66.9805 23.2361C67.2383 22.9926 67.5391 22.8708 67.8828 22.8708H78.0449C78.403 22.8708 78.7038 22.9926 78.9473 23.2361C79.1908 23.4796 79.3125 23.7804 79.3125 24.1384V24.6541C79.3125 25.0121 79.1908 25.3129 78.9473 25.5564C78.7038 25.7999 78.403 25.9216 78.0449 25.9216H76.1973C76.097 25.9216 76.0469 25.9789 76.0469 26.0935V32.1521C76.0469 32.5531 76.054 32.8038 76.0684 32.9041C76.097 32.99 76.1686 33.033 76.2832 33.033ZM80.7734 24.4607C80.7734 24.1169 80.8952 23.8233 81.1387 23.5798C81.3965 23.322 81.6973 23.1931 82.041 23.1931H100.002C100.346 23.1931 100.639 23.322 100.883 23.5798C101.141 23.8233 101.27 24.1169 101.27 24.4607V25.4275C101.27 25.7712 101.141 26.072 100.883 26.3298C100.639 26.5733 100.346 26.6951 100.002 26.6951H82.041C81.6973 26.6951 81.3965 26.5733 81.1387 26.3298C80.8952 26.072 80.7734 25.7712 80.7734 25.4275V24.4607ZM108.316 18.6814C108.603 18.9106 108.746 19.2113 108.746 19.5837C108.746 19.9275 108.624 20.2283 108.381 20.4861L107.672 21.2595C107.443 21.4887 107.171 21.6033 106.855 21.6033C106.841 21.6033 106.834 21.6033 106.834 21.6033C106.505 21.6033 106.218 21.4887 105.975 21.2595C105.459 20.7582 104.829 20.2139 104.084 19.6267C103.783 19.3975 103.633 19.0896 103.633 18.7029C103.633 18.4164 103.74 18.1658 103.955 17.9509L104.471 17.4138C104.729 17.1417 105.036 16.9841 105.395 16.9412C105.452 16.9412 105.509 16.9412 105.566 16.9412C105.867 16.9412 106.139 17.0271 106.383 17.199C107.156 17.7289 107.801 18.2231 108.316 18.6814ZM106.598 25.9431C106.798 25.7283 107.042 25.6208 107.328 25.6208C107.357 25.6208 107.385 25.6208 107.414 25.6208C107.729 25.6495 107.98 25.7927 108.166 26.0505L108.574 26.6951C108.775 26.9815 108.875 27.2966 108.875 27.6404C108.875 28.0557 108.739 28.421 108.467 28.7361C107.55 29.8246 106.533 30.9561 105.416 32.1306C105.201 32.3455 104.951 32.4529 104.664 32.4529C104.635 32.4529 104.607 32.4529 104.578 32.4529C104.249 32.4242 103.984 32.2738 103.783 32.0017L103.246 31.2712C103.046 31.0134 102.945 30.727 102.945 30.4119C102.945 30.3689 102.945 30.3331 102.945 30.3044C102.974 29.932 103.117 29.6169 103.375 29.3591C104.421 28.2992 105.495 27.1606 106.598 25.9431ZM117.254 22.0974C117.139 22.0974 117.082 22.1547 117.082 22.2693V24.031C117.082 24.7042 117.175 25.3988 117.361 26.115C117.548 26.8168 117.834 27.5616 118.221 28.3494C118.607 29.1228 119.173 29.8891 119.918 30.6482C120.663 31.393 121.536 32.0447 122.539 32.6033C122.826 32.7608 123.005 32.9972 123.076 33.3123C123.09 33.3982 123.098 33.4841 123.098 33.5701C123.098 33.7849 123.033 33.9854 122.904 34.1716C122.704 34.4581 122.503 34.7445 122.303 35.031C122.088 35.3318 121.809 35.5323 121.465 35.6326C121.35 35.6612 121.236 35.6755 121.121 35.6755C120.906 35.6755 120.691 35.6111 120.477 35.4822C119.188 34.6944 118.092 33.699 117.189 32.4958C116.301 31.2784 115.714 30.1684 115.428 29.1658C115.428 29.1371 115.413 29.1228 115.385 29.1228C115.37 29.1228 115.356 29.1371 115.342 29.1658C114.998 30.1684 114.318 31.2712 113.301 32.4744C112.284 33.6775 111.038 34.6944 109.562 35.5251C109.362 35.6254 109.161 35.6755 108.961 35.6755C108.832 35.6755 108.703 35.6541 108.574 35.6111C108.245 35.5108 107.973 35.3103 107.758 35.0095C107.615 34.7947 107.457 34.5798 107.285 34.365C107.156 34.1788 107.092 33.9783 107.092 33.7634C107.092 33.6918 107.099 33.613 107.113 33.5271C107.185 33.2263 107.364 33.0043 107.65 32.8611C108.739 32.3025 109.691 31.6436 110.508 30.8845C111.339 30.1111 111.969 29.3233 112.398 28.5212C112.842 27.7048 113.165 26.9314 113.365 26.2009C113.58 25.4561 113.688 24.74 113.688 24.0525V22.2693C113.688 22.1547 113.63 22.0974 113.516 22.0974H112.635C112.52 22.0974 112.441 22.1475 112.398 22.2478C111.969 23.2074 111.503 24.0811 111.002 24.8689C110.816 25.1554 110.544 25.3344 110.186 25.406C110.1 25.4203 110.007 25.4275 109.906 25.4275C109.663 25.4275 109.426 25.3559 109.197 25.2126C108.939 25.0551 108.667 24.9047 108.381 24.7615C108.094 24.6039 107.923 24.3748 107.865 24.074C107.851 23.988 107.844 23.9093 107.844 23.8376C107.844 23.6085 107.908 23.4008 108.037 23.2146C109.269 21.5102 110.207 19.283 110.852 16.533C110.938 16.1892 111.124 15.9242 111.41 15.738C111.625 15.5805 111.861 15.5017 112.119 15.5017C112.191 15.5017 112.27 15.5089 112.355 15.5232L113.172 15.6736C113.516 15.7309 113.788 15.9028 113.988 16.1892C114.117 16.3897 114.182 16.6046 114.182 16.8337C114.182 16.934 114.167 17.0343 114.139 17.1345C114.01 17.6645 113.867 18.2016 113.709 18.7458C113.695 18.7888 113.695 18.8318 113.709 18.8748C113.738 18.9034 113.773 18.9177 113.816 18.9177H120.434C120.477 18.9177 120.52 18.9106 120.562 18.8962C120.691 18.8533 120.82 18.8318 120.949 18.8318C121.178 18.8318 121.4 18.8962 121.615 19.0251L122.41 19.4978C122.725 19.684 122.954 19.949 123.098 20.2927C123.169 20.4789 123.205 20.6651 123.205 20.8513C123.205 21.0232 123.176 21.1879 123.119 21.3455C122.675 22.6059 122.124 23.8878 121.465 25.1912C121.307 25.5063 121.064 25.7139 120.734 25.8142C120.591 25.8572 120.455 25.8787 120.326 25.8787C120.126 25.8787 119.932 25.8357 119.746 25.7498C119.603 25.6781 119.467 25.6065 119.338 25.5349C119.023 25.3917 118.801 25.1554 118.672 24.8259C118.615 24.6827 118.586 24.5323 118.586 24.3748C118.586 24.2029 118.622 24.0382 118.693 23.8806C118.923 23.3363 119.137 22.7921 119.338 22.2478C119.338 22.2048 119.324 22.169 119.295 22.1404C119.281 22.1117 119.252 22.0974 119.209 22.0974H117.254Z" fill="white"/>
</svg>
