<svg width="160" height="52" viewBox="0 0 160 52" fill="none" xmlns="http://www.w3.org/2000/svg">
<rect y="-0.000244141" width="160" height="52" rx="26" fill="#1B2E67"/>
<path d="M30.9512 18.0154C31.1803 18.2445 31.2949 18.5095 31.2949 18.8103C31.2949 18.8389 31.2878 18.8748 31.2734 18.9177C31.2448 19.2615 31.0944 19.5479 30.8223 19.7771L30.2207 20.2712C29.9915 20.4574 29.7409 20.5505 29.4688 20.5505C29.4258 20.5505 29.3757 20.5434 29.3184 20.5291C28.9889 20.5004 28.7096 20.35 28.4805 20.0779C28.0078 19.5479 27.4421 18.9965 26.7832 18.4236C26.5397 18.2087 26.418 17.9438 26.418 17.6287C26.418 17.2849 26.5469 17.0128 26.8047 16.8123L27.2129 16.49C27.4993 16.2608 27.8288 16.1391 28.2012 16.1248C28.2155 16.1248 28.2298 16.1248 28.2441 16.1248C28.6022 16.1248 28.9173 16.2393 29.1895 16.4685C29.877 17.0128 30.4642 17.5284 30.9512 18.0154ZM41.3066 23.3435C41.321 23.3149 41.3138 23.2862 41.2852 23.2576C41.2708 23.2146 41.2422 23.1931 41.1992 23.1931H39.0078C38.9648 23.1931 38.929 23.2146 38.9004 23.2576C38.8861 23.2862 38.8861 23.3149 38.9004 23.3435C39.2298 24.0883 39.6165 24.783 40.0605 25.4275C40.0892 25.4561 40.1178 25.4705 40.1465 25.4705C40.1895 25.4705 40.2253 25.4561 40.2539 25.4275C40.6693 24.783 41.0202 24.0883 41.3066 23.3435ZM35.1406 29.3162C35.1263 29.3448 35.1263 29.3735 35.1406 29.4021C35.1693 29.4164 35.1979 29.4236 35.2266 29.4236C36.1862 29.0655 37.0885 28.5642 37.9336 27.9197C38.0195 27.8481 38.0339 27.7693 37.9766 27.6833C37.332 26.738 36.7591 25.6638 36.2578 24.4607C36.2435 24.4464 36.2292 24.4392 36.2148 24.4392C36.2005 24.4392 36.1862 24.4535 36.1719 24.4822C35.9714 26.4158 35.6276 28.0271 35.1406 29.3162ZM31.4023 30.4119C31.3737 30.3975 31.3451 30.3975 31.3164 30.4119C31.3021 30.4262 31.2949 30.4477 31.2949 30.4763C31.2949 30.5766 31.3164 30.6625 31.3594 30.7341C31.7604 31.35 32.319 31.8083 33.0352 32.1091C33.7656 32.3956 34.668 32.5675 35.7422 32.6248C36.8307 32.6677 37.9408 32.6892 39.0723 32.6892C41.0918 32.6892 43.1901 32.6176 45.3672 32.4744C45.3815 32.4744 45.403 32.4744 45.4316 32.4744C45.6895 32.4744 45.8971 32.5818 46.0547 32.7966C46.1693 32.9399 46.2266 33.0974 46.2266 33.2693C46.2266 33.3552 46.2051 33.4483 46.1621 33.5486C46.0762 33.835 45.9902 34.1143 45.9043 34.3865C45.804 34.7589 45.6107 35.0668 45.3242 35.3103C45.0378 35.5538 44.7155 35.6755 44.3574 35.6755C42.6816 35.7472 41.1133 35.783 39.6523 35.783C38.2344 35.783 36.9167 35.7543 35.6992 35.697C34.3672 35.6397 33.25 35.4464 32.3477 35.1169C31.4596 34.7875 30.6719 34.2361 29.9844 33.4626C29.9128 33.3767 29.8411 33.3695 29.7695 33.4412C29.082 34.0427 28.4447 34.587 27.8574 35.074C27.6712 35.2172 27.4707 35.2888 27.2559 35.2888C27.1699 35.2888 27.0911 35.2817 27.0195 35.2673C26.7044 35.1957 26.4753 35.0095 26.332 34.7087L25.8594 33.6775C25.7734 33.4913 25.7305 33.2979 25.7305 33.0974C25.7305 32.9685 25.752 32.8253 25.7949 32.6677C25.9095 32.3383 26.1172 32.0805 26.418 31.8943C27.0052 31.5362 27.5423 31.1853 28.0293 30.8416C28.1152 30.7699 28.1582 30.684 28.1582 30.5837V26.8025C28.1582 26.7022 28.1081 26.6521 28.0078 26.6521H27.1699C26.8262 26.6521 26.5254 26.5304 26.2676 26.2869C26.0241 26.0291 25.9023 25.7283 25.9023 25.3845V24.9763C25.9023 24.6182 26.0241 24.3175 26.2676 24.074C26.5254 23.8305 26.8262 23.7087 27.1699 23.7087H30.0273C30.3711 23.7087 30.6647 23.8305 30.9082 24.074C31.166 24.3175 31.2949 24.6182 31.2949 24.9763V29.7458C31.2949 29.7745 31.3021 29.796 31.3164 29.8103C31.3451 29.8103 31.3665 29.796 31.3809 29.7673C31.7962 29.1658 32.1328 28.4998 32.3906 27.7693C32.6628 27.0245 32.8561 26.2439 32.9707 25.4275C33.0853 24.5968 33.1569 23.8663 33.1855 23.2361C33.2285 22.6059 33.25 21.8897 33.25 21.0876V17.199C33.25 16.8552 33.3717 16.5616 33.6152 16.3181C33.873 16.0603 34.1738 15.9314 34.5176 15.9314H44.3145C44.6725 15.9314 44.9733 16.0603 45.2168 16.3181C45.4603 16.5616 45.582 16.8552 45.582 17.199V17.6287C45.582 17.9724 45.4603 18.2732 45.2168 18.531C44.9733 18.7745 44.6725 18.8962 44.3145 18.8962H36.4941C36.3796 18.8962 36.3223 18.9464 36.3223 19.0466V20.2283C36.3223 20.3285 36.3796 20.3787 36.4941 20.3787H42.1016C43.0039 20.3787 43.6986 20.4574 44.1855 20.615C44.4863 20.7009 44.7155 20.88 44.873 21.1521C44.9733 21.324 45.0234 21.5102 45.0234 21.7107C45.0234 21.7966 45.0163 21.8897 45.002 21.99C44.472 24.2244 43.6628 26.115 42.5742 27.6619C42.5169 27.7478 42.5312 27.8194 42.6172 27.8767C43.4193 28.421 44.3216 28.8578 45.3242 29.1873C45.5964 29.2875 45.7682 29.4737 45.8398 29.7458C45.8685 29.8318 45.8828 29.9106 45.8828 29.9822C45.8828 30.1684 45.8184 30.3403 45.6895 30.4978C45.5033 30.727 45.3242 30.9776 45.1523 31.2498C44.9375 31.5649 44.6582 31.7797 44.3145 31.8943C44.1569 31.9659 43.9922 32.0017 43.8203 32.0017C43.6484 32.0017 43.4766 31.9659 43.3047 31.8943C42.2161 31.4503 41.2493 30.8917 40.4043 30.2185C40.3184 30.1612 40.2324 30.1684 40.1465 30.24C39.3874 30.8416 38.5352 31.3715 37.5898 31.8298C37.418 31.9014 37.2389 31.9373 37.0527 31.9373C36.9095 31.9373 36.7663 31.9158 36.623 31.8728C36.2793 31.7439 36.0143 31.5291 35.8281 31.2283C35.556 30.7699 35.2839 30.3689 35.0117 30.0251C34.9831 29.9965 34.9473 29.9893 34.9043 30.0037C34.8757 30.0037 34.8542 30.018 34.8398 30.0466C34.7109 30.3331 34.5749 30.6124 34.4316 30.8845C34.2598 31.171 34.002 31.3429 33.6582 31.4001C33.5866 31.4145 33.515 31.4216 33.4434 31.4216C33.1855 31.4216 32.9421 31.3429 32.7129 31.1853C32.2689 30.8845 31.832 30.6267 31.4023 30.4119ZM59.1816 27.1462C59.2819 27.1462 59.332 27.0889 59.332 26.9744V24.1814C59.332 24.0668 59.2819 24.0095 59.1816 24.0095H56.4531C56.3385 24.0095 56.2812 24.0668 56.2812 24.1814V26.9744C56.2812 27.0889 56.3385 27.1462 56.4531 27.1462H59.1816ZM53.2734 22.5056C53.2734 22.1619 53.3952 21.8682 53.6387 21.6248C53.8822 21.3669 54.1829 21.238 54.541 21.238H61.2871C61.6309 21.238 61.9245 21.3669 62.168 21.6248C62.4258 21.8682 62.5547 22.1619 62.5547 22.5056V28.6287C62.5547 28.9724 62.4258 29.2732 62.168 29.531C61.9245 29.7745 61.6309 29.8962 61.2871 29.8962H54.541C54.1829 29.8962 53.8822 29.7745 53.6387 29.531C53.3952 29.2732 53.2734 28.9724 53.2734 28.6287V22.5056ZM51.748 31.7654C51.748 31.88 51.8053 31.9373 51.9199 31.9373H63.9297C64.0443 31.9373 64.1016 31.88 64.1016 31.7654V19.283C64.1016 19.1827 64.0443 19.1326 63.9297 19.1326H51.9199C51.8053 19.1326 51.748 19.1827 51.748 19.283V31.7654ZM48.4395 17.113C48.4395 16.7693 48.5612 16.4757 48.8047 16.2322C49.0482 15.9744 49.349 15.8455 49.707 15.8455H66.3145C66.6725 15.8455 66.9733 15.9744 67.2168 16.2322C67.4603 16.4757 67.582 16.7693 67.582 17.113V34.8162C67.582 35.1742 67.4603 35.475 67.2168 35.7185C66.9733 35.962 66.6725 36.0837 66.3145 36.0837H65.1543C64.8535 36.0837 64.6029 35.9835 64.4023 35.783C64.2018 35.5824 64.1016 35.3318 64.1016 35.031C64.1016 34.9451 64.0514 34.9021 63.9512 34.9021H51.877C51.791 34.9021 51.748 34.9451 51.748 35.031C51.748 35.3318 51.6406 35.5824 51.4258 35.783C51.2253 35.9835 50.9818 36.0837 50.6953 36.0837H49.707C49.349 36.0837 49.0482 35.962 48.8047 35.7185C48.5612 35.475 48.4395 35.1742 48.4395 34.8162V17.113ZM81.7832 32.1306C81.7832 32.2309 81.8333 32.281 81.9336 32.281H88.7227C89.0664 32.281 89.36 32.4099 89.6035 32.6677C89.8613 32.9112 89.9902 33.2048 89.9902 33.5486V34.1716C89.9902 34.5154 89.8613 34.809 89.6035 35.0525C89.36 35.3103 89.0664 35.4392 88.7227 35.4392H71.3418C70.998 35.4392 70.6973 35.3103 70.4395 35.0525C70.196 34.809 70.0742 34.5154 70.0742 34.1716V33.5486C70.0742 33.2048 70.196 32.9112 70.4395 32.6677C70.6973 32.4099 70.998 32.281 71.3418 32.281H78.0879C78.1882 32.281 78.2383 32.2309 78.2383 32.1306V28.8435C78.2383 28.7289 78.1882 28.6716 78.0879 28.6716H73.5117C73.1536 28.6716 72.8529 28.5499 72.6094 28.3064C72.3659 28.0629 72.2441 27.7621 72.2441 27.4041V26.8669C72.2441 26.5089 72.3659 26.2081 72.6094 25.9646C72.8529 25.7211 73.1536 25.5994 73.5117 25.5994H78.0879C78.1882 25.5994 78.2383 25.5421 78.2383 25.4275V22.5056C78.2383 22.391 78.1882 22.3337 78.0879 22.3337H72.2441C71.9004 22.3337 71.5996 22.212 71.3418 21.9685C71.0983 21.725 70.9766 21.4242 70.9766 21.0662V20.4861C70.9766 20.128 71.0983 19.8272 71.3418 19.5837C71.5996 19.3403 71.9004 19.2185 72.2441 19.2185H79.0332C79.0618 19.2185 79.0762 19.2042 79.0762 19.1755C79.0905 19.1469 79.0833 19.1254 79.0547 19.1111C78.5104 18.6384 77.916 18.1586 77.2715 17.6716C77.028 17.4998 76.9062 17.2634 76.9062 16.9626C76.9062 16.6475 77.028 16.3969 77.2715 16.2107L77.873 15.8025C78.1882 15.5876 78.5319 15.4731 78.9043 15.4587C78.9329 15.4587 78.9544 15.4587 78.9688 15.4587C79.3268 15.4587 79.6634 15.559 79.9785 15.7595C80.8809 16.3611 81.6615 16.934 82.3203 17.4783C82.5495 17.6788 82.6641 17.9223 82.6641 18.2087C82.6641 18.5811 82.5208 18.8748 82.2344 19.0896L82.1699 19.1111C82.1556 19.1397 82.1484 19.1684 82.1484 19.197C82.1628 19.2113 82.1842 19.2185 82.2129 19.2185H87.6484C87.9922 19.2185 88.2858 19.3403 88.5293 19.5837C88.7871 19.8272 88.916 20.128 88.916 20.4861V21.0662C88.916 21.4242 88.7871 21.725 88.5293 21.9685C88.2858 22.212 87.9922 22.3337 87.6484 22.3337H81.9336C81.8333 22.3337 81.7832 22.391 81.7832 22.5056V25.4275C81.7832 25.5421 81.8333 25.5994 81.9336 25.5994H86.5098C86.8678 25.5994 87.1686 25.7211 87.4121 25.9646C87.6556 26.2081 87.7773 26.5089 87.7773 26.8669V27.4041C87.7773 27.7621 87.6556 28.0629 87.4121 28.3064C87.1686 28.5499 86.8678 28.6716 86.5098 28.6716H81.9336C81.8333 28.6716 81.7832 28.7289 81.7832 28.8435V32.1306ZM92.8691 35.5251C92.597 35.5251 92.3607 35.4249 92.1602 35.2244C91.9596 35.0238 91.8594 34.7804 91.8594 34.4939C91.8594 34.2218 91.9596 33.9854 92.1602 33.7849C92.3607 33.5844 92.597 33.4841 92.8691 33.4841H111.152C111.424 33.4841 111.661 33.5844 111.861 33.7849C112.062 33.9854 112.162 34.2218 112.162 34.4939C112.162 34.7804 112.062 35.0238 111.861 35.2244C111.661 35.4249 111.424 35.5251 111.152 35.5251H92.8691ZM106.469 29.531C106.569 29.531 106.619 29.4809 106.619 29.3806V29.1228C106.619 29.0225 106.569 28.9724 106.469 28.9724H103.547C103.447 28.9724 103.396 29.0225 103.396 29.1228V29.3806C103.396 29.4809 103.447 29.531 103.547 29.531H106.469ZM106.469 31.5076C106.569 31.5076 106.619 31.4574 106.619 31.3572V31.0779C106.619 30.9776 106.569 30.9275 106.469 30.9275H103.547C103.447 30.9275 103.396 30.9776 103.396 31.0779V31.3572C103.396 31.4574 103.447 31.5076 103.547 31.5076H106.469ZM97.7031 30.9275C97.5885 30.9275 97.5312 30.9776 97.5312 31.0779V31.3572C97.5312 31.4574 97.5885 31.5076 97.7031 31.5076H100.281C100.382 31.5076 100.432 31.4574 100.432 31.3572V31.0779C100.432 30.9776 100.382 30.9275 100.281 30.9275H97.7031ZM97.7031 28.9724C97.5885 28.9724 97.5312 29.0225 97.5312 29.1228V29.3806C97.5312 29.4809 97.5885 29.531 97.7031 29.531H100.281C100.382 29.531 100.432 29.4809 100.432 29.3806V29.1228C100.432 29.0225 100.382 28.9724 100.281 28.9724H97.7031ZM94.416 28.7791C94.416 28.421 94.5378 28.1202 94.7812 27.8767C95.0247 27.6332 95.3255 27.5115 95.6836 27.5115H108.66C109.004 27.5115 109.298 27.6332 109.541 27.8767C109.799 28.1202 109.928 28.421 109.928 28.7791V31.7009C109.928 32.0447 109.799 32.3455 109.541 32.6033C109.298 32.8468 109.004 32.9685 108.66 32.9685H95.6836C95.3255 32.9685 95.0247 32.8468 94.7812 32.6033C94.5378 32.3455 94.416 32.0447 94.416 31.7009V28.7791ZM103.633 20.2283C103.533 20.2283 103.482 20.2784 103.482 20.3787V20.5935C103.482 20.7081 103.533 20.7654 103.633 20.7654H106.512C106.612 20.7654 106.662 20.7081 106.662 20.5935V20.3787C106.662 20.2784 106.612 20.2283 106.512 20.2283H103.633ZM103.633 18.0798C103.533 18.0798 103.482 18.13 103.482 18.2302V18.4236C103.482 18.5238 103.533 18.574 103.633 18.574H106.512C106.612 18.574 106.662 18.5238 106.662 18.4236V18.2302C106.662 18.13 106.612 18.0798 106.512 18.0798H103.633ZM103.482 24.8904C103.482 24.9906 103.533 25.0408 103.633 25.0408H111.26C111.518 25.0408 111.74 25.1339 111.926 25.3201C112.112 25.5063 112.205 25.7354 112.205 26.0076C112.205 26.2654 112.112 26.4874 111.926 26.6736C111.74 26.8598 111.518 26.9529 111.26 26.9529H92.8691C92.597 26.9529 92.3678 26.8598 92.1816 26.6736C91.9954 26.4874 91.9023 26.2654 91.9023 26.0076C91.9023 25.7354 91.9954 25.5063 92.1816 25.3201C92.3678 25.1339 92.597 25.0408 92.8691 25.0408H100.066C100.167 25.0408 100.217 24.9906 100.217 24.8904V24.6755C100.217 24.5753 100.167 24.5251 100.066 24.5251H94.2441C94.015 24.5251 93.8216 24.4464 93.6641 24.2888C93.5065 24.1169 93.4277 23.9236 93.4277 23.7087C93.4277 23.4796 93.5065 23.2862 93.6641 23.1287C93.8216 22.9711 94.015 22.8923 94.2441 22.8923H100.066C100.167 22.8923 100.217 22.835 100.217 22.7205V22.5271C100.217 22.4125 100.167 22.3552 100.066 22.3552H94.9746C94.7454 22.3552 94.5521 22.2764 94.3945 22.1189C94.237 21.9613 94.1582 21.7751 94.1582 21.5603C94.1582 21.3311 94.237 21.1449 94.3945 21.0017C94.5521 20.8442 94.7454 20.7654 94.9746 20.7654H100.066C100.167 20.7654 100.217 20.7081 100.217 20.5935V20.3787C100.217 20.2784 100.167 20.2283 100.066 20.2283H92.8047C92.5898 20.2283 92.3965 20.1495 92.2246 19.9919C92.0671 19.8201 91.9883 19.6267 91.9883 19.4119C91.9883 19.1827 92.0671 18.9893 92.2246 18.8318C92.3965 18.6599 92.5898 18.574 92.8047 18.574H100.066C100.167 18.574 100.217 18.5238 100.217 18.4236V18.2302C100.217 18.13 100.167 18.0798 100.066 18.0798H95.1035C94.8743 18.0798 94.681 18.0011 94.5234 17.8435C94.3802 17.686 94.3086 17.4998 94.3086 17.2849C94.3086 17.0557 94.3802 16.8624 94.5234 16.7048C94.681 16.5473 94.8743 16.4685 95.1035 16.4685H100.066C100.167 16.4685 100.217 16.4184 100.217 16.3181C100.217 16.003 100.324 15.7309 100.539 15.5017C100.768 15.2725 101.048 15.158 101.377 15.158H102.322C102.637 15.158 102.91 15.2725 103.139 15.5017C103.368 15.7309 103.482 16.003 103.482 16.3181C103.482 16.4184 103.525 16.4685 103.611 16.4685H108.639C108.982 16.4685 109.276 16.5903 109.52 16.8337C109.777 17.0772 109.906 17.378 109.906 17.7361V18.4236C109.906 18.5238 109.956 18.574 110.057 18.574H111.195C111.41 18.574 111.596 18.6599 111.754 18.8318C111.926 18.9893 112.012 19.1827 112.012 19.4119C112.012 19.6267 111.926 19.8201 111.754 19.9919C111.596 20.1495 111.41 20.2283 111.195 20.2283H110.057C109.956 20.2283 109.906 20.2784 109.906 20.3787V21.0876C109.906 21.4457 109.777 21.7465 109.52 21.99C109.276 22.2335 108.982 22.3552 108.639 22.3552H103.633C103.533 22.3552 103.482 22.4125 103.482 22.5271V22.7205C103.482 22.835 103.533 22.8923 103.633 22.8923H109.949C110.164 22.8923 110.35 22.9711 110.508 23.1287C110.68 23.2862 110.766 23.4796 110.766 23.7087C110.766 23.9236 110.68 24.1169 110.508 24.2888C110.35 24.4464 110.164 24.5251 109.949 24.5251H103.633C103.533 24.5251 103.482 24.5753 103.482 24.6755V24.8904ZM129.715 31.572C129.815 31.572 129.865 31.5219 129.865 31.4216V23.4724C129.865 23.3722 129.815 23.322 129.715 23.322H128.168C128.068 23.322 128.018 23.3722 128.018 23.4724V31.4216C128.018 31.5219 128.068 31.572 128.168 31.572H129.715ZM118.07 23.322C117.97 23.322 117.92 23.3722 117.92 23.4724V31.4216C117.92 31.5219 117.97 31.572 118.07 31.572H119.488C119.603 31.572 119.66 31.5219 119.66 31.4216V23.4724C119.66 23.3722 119.603 23.322 119.488 23.322H118.07ZM124.988 24.3533C125.103 24.3533 125.16 24.3031 125.16 24.2029V23.4724C125.16 23.3722 125.103 23.322 124.988 23.322H122.668C122.553 23.322 122.496 23.3722 122.496 23.4724V24.2029C122.496 24.3031 122.553 24.3533 122.668 24.3533H124.988ZM122.668 30.4548C122.553 30.4548 122.496 30.505 122.496 30.6052V31.4216C122.496 31.5219 122.553 31.572 122.668 31.572H124.988C125.103 31.572 125.16 31.5219 125.16 31.4216V30.6052C125.16 30.505 125.103 30.4548 124.988 30.4548H122.668ZM124.988 27.9841C125.103 27.9841 125.16 27.9268 125.16 27.8123V26.9958C125.16 26.8813 125.103 26.824 124.988 26.824H122.668C122.553 26.824 122.496 26.8813 122.496 26.9958V27.8123C122.496 27.9268 122.553 27.9841 122.668 27.9841H124.988ZM134.098 17.5857C134.098 17.9294 133.969 18.2302 133.711 18.488C133.467 18.7315 133.174 18.8533 132.83 18.8533H125.633C125.533 18.8533 125.468 18.9034 125.439 19.0037L125.031 20.2498C125.017 20.2927 125.024 20.3285 125.053 20.3572C125.081 20.3858 125.117 20.4001 125.16 20.4001H131.863C132.207 20.4001 132.501 20.5291 132.744 20.7869C133.002 21.0304 133.131 21.324 133.131 21.6677V34.322C133.131 34.6658 133.002 34.9594 132.744 35.2029C132.501 35.4607 132.207 35.5896 131.863 35.5896H130.832C130.574 35.5896 130.345 35.4893 130.145 35.2888C129.958 35.1026 129.865 34.8806 129.865 34.6228C129.865 34.5369 129.822 34.4939 129.736 34.4939H118.049C117.963 34.4939 117.92 34.5369 117.92 34.6228C117.92 34.8806 117.82 35.1026 117.619 35.2888C117.433 35.4893 117.211 35.5896 116.953 35.5896H116.115C115.771 35.5896 115.471 35.4607 115.213 35.2029C114.969 34.9594 114.848 34.6658 114.848 34.322V21.6677C114.848 21.324 114.969 21.0304 115.213 20.7869C115.471 20.5291 115.771 20.4001 116.115 20.4001H121.422C121.536 20.4001 121.601 20.35 121.615 20.2498L121.723 19.6267L121.809 19.0037C121.823 18.9034 121.78 18.8533 121.68 18.8533H115.256C114.912 18.8533 114.611 18.7315 114.354 18.488C114.11 18.2302 113.988 17.9294 113.988 17.5857V17.113C113.988 16.7693 114.11 16.4757 114.354 16.2322C114.611 15.9744 114.912 15.8455 115.256 15.8455H132.83C133.174 15.8455 133.467 15.9744 133.711 16.2322C133.969 16.4757 134.098 16.7693 134.098 17.113V17.5857Z" fill="white"/>
</svg>
