<svg width="332" height="108" viewBox="0 0 332 108" fill="none" xmlns="http://www.w3.org/2000/svg">
<path d="M0 54C0 24.1766 24.1766 0 54 0H278C307.823 0 332 24.1766 332 54C332 83.8234 307.823 108 278 108H54C24.1766 108 0 83.8234 0 54Z" fill="#1B2E67"/>
<path d="M95.9611 43.5422C96.2274 43.5422 96.3605 43.409 96.3605 43.1428V41.7948C96.3605 41.5618 96.2274 41.4453 95.9611 41.4453H91.3679C91.1016 41.4453 90.9685 41.5618 90.9685 41.7948V43.1428C90.9685 43.409 91.1016 43.5422 91.3679 43.5422H95.9611ZM95.9611 51.5802C96.2274 51.5802 96.3605 51.4638 96.3605 51.2308V49.8328C96.3605 49.5666 96.2274 49.4334 95.9611 49.4334H91.3679C91.1016 49.4334 90.9685 49.5666 90.9685 49.8328V51.2308C90.9685 51.4638 91.1016 51.5802 91.3679 51.5802H95.9611ZM95.9611 59.818C96.2274 59.818 96.3605 59.7016 96.3605 59.4686V57.9209C96.3605 57.6546 96.2274 57.5215 95.9611 57.5215H91.3679C91.1016 57.5215 90.9685 57.6546 90.9685 57.9209V59.4686C90.9685 59.7016 91.1016 59.818 91.3679 59.818H95.9611ZM86.7747 66.0089C85.9426 66.0089 85.2437 65.726 84.6778 65.1601C84.112 64.5943 83.8291 63.8953 83.8291 63.0632V48.1354C83.8291 48.1021 83.7958 48.0854 83.7292 48.0854C83.696 48.0521 83.6627 48.0521 83.6294 48.0854C83.23 48.4516 82.7806 48.6346 82.2814 48.6346C82.2148 48.6346 82.1649 48.6346 82.1316 48.6346C81.5325 48.568 81.0332 48.3018 80.6338 47.8358C80.0347 47.1036 79.3857 46.3879 78.6867 45.689C78.1874 45.1564 77.9378 44.524 77.9378 43.7918C77.9378 42.9597 78.2374 42.2774 78.8365 41.7448C81.9652 38.7825 84.5114 35.2711 86.4752 31.2104C86.8413 30.4449 87.4071 29.8791 88.1727 29.5129C88.6386 29.28 89.1046 29.1635 89.5706 29.1635C89.8701 29.1635 90.1697 29.2134 90.4693 29.3132L92.2167 29.8125C92.9822 30.0455 93.5314 30.5115 93.8642 31.2104C94.0306 31.5433 94.1139 31.8928 94.1139 32.2589C94.1139 32.625 94.0306 32.9745 93.8642 33.3073C93.598 33.8399 93.3317 34.3724 93.0654 34.905C93.0321 34.9715 93.0321 35.0547 93.0654 35.1546C93.132 35.2212 93.2152 35.2544 93.315 35.2544H96.9596C97.1926 35.2544 97.359 35.1379 97.4589 34.905C97.7917 33.9064 98.1079 32.8746 98.4075 31.8095C98.6405 31.0107 99.1065 30.3783 99.8054 29.9124C100.338 29.5795 100.904 29.4131 101.503 29.4131C101.669 29.4131 101.852 29.4297 102.052 29.463L104.498 29.8624C105.197 29.9956 105.713 30.395 106.046 31.0607C106.213 31.3935 106.296 31.7263 106.296 32.0592C106.296 32.3587 106.229 32.6749 106.096 33.0078C105.73 33.74 105.397 34.3724 105.098 34.905C105.064 34.9715 105.064 35.0547 105.098 35.1546C105.164 35.2212 105.231 35.2544 105.297 35.2544H109.89C110.723 35.2544 111.422 35.5374 111.987 36.1032C112.553 36.669 112.836 37.368 112.836 38.2001V38.4996C112.836 39.2984 112.553 39.9974 111.987 40.5965C111.422 41.1624 110.723 41.4453 109.89 41.4453H103.75C103.517 41.4453 103.4 41.5618 103.4 41.7948V43.1428C103.4 43.409 103.517 43.5422 103.75 43.5422H108.542C109.341 43.5422 110.024 43.8251 110.589 44.3909C111.189 44.9567 111.488 45.6557 111.488 46.4878C111.488 47.3199 111.189 48.0189 110.589 48.5847C110.024 49.1505 109.341 49.4334 108.542 49.4334H103.75C103.517 49.4334 103.4 49.5666 103.4 49.8328V51.2308C103.4 51.4638 103.517 51.5802 103.75 51.5802H108.293C109.092 51.5802 109.774 51.8798 110.34 52.4789C110.939 53.0447 111.238 53.7271 111.238 54.5259V54.5758C111.238 55.4079 110.939 56.1069 110.34 56.6727C109.774 57.2385 109.092 57.5215 108.293 57.5215H103.75C103.517 57.5215 103.4 57.6546 103.4 57.9209V59.4686C103.4 59.7016 103.517 59.818 103.75 59.818H110.839C111.638 59.818 112.32 60.1176 112.886 60.7167C113.485 61.2825 113.785 61.9649 113.785 62.7637V63.0632C113.785 63.8953 113.485 64.5943 112.886 65.1601C112.32 65.726 111.638 66.0089 110.839 66.0089H86.7747ZM78.6867 35.3044C79.1527 35.8036 79.3857 36.3861 79.3857 37.0518C79.3857 37.1849 79.369 37.3014 79.3357 37.4013C79.2359 38.2334 78.8531 38.899 78.1874 39.3983L76.7396 40.4967C76.2403 40.8628 75.7078 41.0459 75.142 41.0459C74.9755 41.0459 74.8091 41.0292 74.6427 40.9959C73.8772 40.8961 73.2448 40.53 72.7455 39.8976C71.747 38.6328 70.5155 37.2848 69.051 35.8535C68.5184 35.3543 68.2522 34.7552 68.2522 34.0562C68.2522 33.2241 68.585 32.5584 69.2507 32.0592L70.1993 31.3602C70.865 30.8609 71.6139 30.6113 72.446 30.6113C72.4792 30.6113 72.5125 30.6113 72.5458 30.6113C73.4112 30.6446 74.1767 30.9442 74.8424 31.51C76.3069 32.8413 77.5883 34.1061 78.6867 35.3044ZM76.3901 48.0854C77.1889 48.0854 77.8713 48.3683 78.4371 48.9342C79.0362 49.5 79.3357 50.199 79.3357 51.0311V64.0618C79.3357 64.328 79.3857 64.561 79.4855 64.7607C80.3509 66.1919 81.5491 67.257 83.0802 67.956C84.6113 68.655 86.5584 69.0544 88.9215 69.1542C90.9186 69.2541 93.4149 69.304 96.4105 69.304C97.5088 69.304 98.6738 69.2874 99.9053 69.2541C104.498 69.2208 108.642 69.0876 112.337 68.8547C112.37 68.8547 112.42 68.8547 112.487 68.8547C113.086 68.8547 113.568 69.1043 113.934 69.6036C114.167 69.9364 114.284 70.3025 114.284 70.7019C114.284 70.9016 114.251 71.118 114.184 71.351C113.984 71.8835 113.801 72.4327 113.635 72.9985C113.402 73.8306 112.953 74.5129 112.287 75.0455C111.621 75.6113 110.872 75.9109 110.04 75.9442C105.913 76.1106 102.035 76.1938 98.4075 76.1938C94.9792 76.1938 91.784 76.1272 88.8217 75.9941C85.8927 75.8609 83.4463 75.395 81.4826 74.5962C79.5521 73.8306 77.8713 72.5658 76.44 70.8018C76.2736 70.6021 76.1072 70.6021 75.9408 70.8018C74.676 72 73.328 73.2315 71.8968 74.4963C71.4641 74.8624 70.9981 75.0455 70.4988 75.0455C70.3324 75.0455 70.1494 75.0288 69.9497 74.9956C69.2507 74.8291 68.7348 74.4131 68.4019 73.7474L67.4534 71.6505C67.2536 71.2178 67.1538 70.7685 67.1538 70.3025C67.1538 69.9697 67.2037 69.6368 67.3036 69.304C67.5366 68.5052 68.0025 67.8728 68.7015 67.4068C69.7666 66.7078 70.8317 65.9589 71.8968 65.1601C72.0965 65.027 72.1963 64.8273 72.1963 64.561V55.2748C72.1963 55.0418 72.0798 54.9253 71.8468 54.9253H69.8498C69.0177 54.9253 68.3187 54.6424 67.7529 54.0766C67.1871 53.4774 66.9042 52.7785 66.9042 51.9797V51.0311C66.9042 50.199 67.1871 49.5 67.7529 48.9342C68.3187 48.3683 69.0177 48.0854 69.8498 48.0854H76.3901Z" fill="white"/>
<path d="M128.064 32.8081C128.064 32.0092 128.346 31.3269 128.912 30.7611C129.511 30.162 130.21 29.8624 131.009 29.8624H143.69C144.489 29.8624 145.172 30.1453 145.737 30.7112C146.336 31.277 146.653 31.976 146.686 32.8081C147.318 48.5514 153.06 60.101 163.91 67.4567C164.51 67.8561 164.842 68.422 164.909 69.1542C164.909 69.2208 164.909 69.304 164.909 69.4038C164.909 70.003 164.693 70.5355 164.26 71.0015C163.96 71.3343 163.644 71.6838 163.311 72.0499C162.912 72.4493 162.562 72.8487 162.263 73.2482C161.697 73.8806 161.015 74.2633 160.216 74.3964C160.016 74.4297 159.817 74.4464 159.617 74.4464C159.018 74.4464 158.469 74.28 157.969 73.9471C150.747 68.8547 145.571 61.5987 142.442 52.1794C142.442 52.1128 142.409 52.0795 142.342 52.0795C142.276 52.0795 142.226 52.1128 142.193 52.1794C138.631 61.7984 133.456 69.071 126.666 73.997C126.067 74.3964 125.434 74.5962 124.768 74.5962C124.635 74.5962 124.502 74.5962 124.369 74.5962C123.537 74.4963 122.788 74.1468 122.122 73.5477C121.79 73.2149 121.423 72.8654 121.024 72.4993C120.558 72.0999 120.125 71.7337 119.726 71.4009C119.26 71.0015 119.027 70.5022 119.027 69.9031C119.027 69.1376 119.36 68.5551 120.025 68.1557C127.747 63.3961 132.956 55.5577 135.652 44.6405C135.852 43.8417 136.301 43.2093 137 42.7433C137.5 42.4105 138.032 42.2441 138.598 42.2441C138.798 42.2441 138.997 42.2607 139.197 42.294L139.646 42.3939C139.713 42.3939 139.78 42.3606 139.846 42.294C139.913 42.2274 139.946 42.1609 139.946 42.0943C139.713 40.7629 139.53 39.3151 139.397 37.7507C139.363 37.5178 139.214 37.4013 138.947 37.4013H131.009C130.21 37.4013 129.511 37.1183 128.912 36.5525C128.346 35.9534 128.064 35.2544 128.064 34.4556V32.8081Z" fill="white"/>
<path d="M192.917 49.9327C192.917 49.6664 192.784 49.5333 192.518 49.5333H191.569C191.303 49.5333 191.17 49.6664 191.17 49.9327C190.904 54.8587 190.055 59.0192 188.624 62.4142C188.524 62.6472 188.591 62.7637 188.824 62.7637C189.356 62.8303 190.005 62.8635 190.771 62.8635C191.303 62.8635 191.736 62.6139 192.069 62.1146C192.501 61.4157 192.784 57.355 192.917 49.9327ZM185.279 46.2382V41.1956C185.279 40.9294 185.162 40.7962 184.929 40.7962H184.73C183.898 40.7962 183.199 40.5133 182.633 39.9475C182.067 39.3817 181.784 38.6827 181.784 37.8506V37.7507C181.784 36.9186 182.067 36.2197 182.633 35.6538C183.199 35.088 183.898 34.8051 184.73 34.8051H186.926C187.159 34.8051 187.276 34.672 187.276 34.4057V31.2104C187.276 30.4116 187.559 29.7293 188.125 29.1635C188.724 28.5643 189.423 28.2648 190.221 28.2648H191.17C191.969 28.2648 192.651 28.5643 193.217 29.1635C193.816 29.7293 194.116 30.4116 194.116 31.2104V34.4057C194.116 34.672 194.232 34.8051 194.465 34.8051H196.612C197.244 34.8051 197.777 35.0215 198.21 35.4541C198.642 35.8868 198.859 36.4027 198.859 37.0019C198.859 37.0351 198.875 37.0684 198.909 37.1017C198.942 37.1017 198.975 37.0851 199.008 37.0518C200.074 35.2212 200.989 33.1409 201.754 30.811C201.987 30.0455 202.453 29.4464 203.152 29.0137C203.652 28.7141 204.167 28.5644 204.7 28.5644C204.933 28.5644 205.166 28.5976 205.399 28.6642L205.798 28.7641C206.597 28.9305 207.196 29.3632 207.596 30.0621C207.862 30.4948 207.995 30.9442 207.995 31.4101C207.995 31.6764 207.945 31.9593 207.845 32.2589C207.779 32.4253 207.712 32.5917 207.646 32.7581C207.646 32.8247 207.662 32.9079 207.696 33.0078C207.762 33.0743 207.829 33.1076 207.895 33.1076H213.487C214.286 33.1076 214.968 33.3905 215.534 33.9564C216.133 34.5222 216.433 35.2212 216.433 36.0533V36.203C216.433 37.0019 216.133 37.7008 215.534 38.2999C214.968 38.8658 214.286 39.1487 213.487 39.1487H205.349C205.116 39.1487 204.933 39.2485 204.8 39.4482C204.534 39.9808 204.217 40.53 203.851 41.0958C203.818 41.1624 203.818 41.2456 203.851 41.3454C203.885 41.412 203.951 41.4453 204.051 41.4453H211.54C211.64 41.4453 211.74 41.4286 211.839 41.3953C212.039 41.3288 212.255 41.2955 212.488 41.2955C212.954 41.2955 213.387 41.4453 213.787 41.7448L214.785 42.4937C215.318 42.8931 215.65 43.4257 215.784 44.0913C215.817 44.2578 215.834 44.4242 215.834 44.5906C215.834 45.0566 215.7 45.5059 215.434 45.9386C214.203 47.8358 213.004 49.4834 211.839 50.8813C211.773 50.9479 211.756 51.0144 211.79 51.081C211.823 51.1476 211.873 51.1808 211.939 51.1808H213.836C214.635 51.1808 215.318 51.4638 215.883 52.0296C216.449 52.5954 216.732 53.2777 216.732 54.0766C216.732 54.8754 216.449 55.5577 215.883 56.1235C215.318 56.6893 214.635 56.9723 213.836 56.9723H211.69C211.457 56.9723 211.34 57.0888 211.34 57.3217V61.6653C211.34 63.1631 211.174 64.3447 210.841 65.2101C210.541 66.0422 209.959 66.6912 209.094 67.1572C208.095 67.6897 206.764 68.0226 205.099 68.1557C205.033 68.1557 204.95 68.1557 204.85 68.1557C204.151 68.1557 203.502 67.9061 202.903 67.4068C202.237 66.8743 201.771 66.1919 201.505 65.3598C201.438 65.1934 201.372 65.027 201.305 64.8606C201.238 64.5943 201.205 64.3447 201.205 64.1117C201.205 63.7456 201.322 63.3794 201.555 63.0133C201.921 62.4475 202.437 62.1646 203.102 62.1646H204.301C204.6 62.1646 204.8 62.1313 204.9 62.0647C205.033 61.9649 205.099 61.7984 205.099 61.5655V57.3217C205.099 57.0888 204.966 56.9723 204.7 56.9723H203.003C202.204 56.9723 201.521 56.6893 200.956 56.1235C200.39 55.5577 200.107 54.8754 200.107 54.0766C200.107 53.2777 200.39 52.5954 200.956 52.0296C201.521 51.4638 202.204 51.1808 203.003 51.1808H204.8C205 51.1808 205.099 51.0976 205.099 50.9312V50.382C205.099 49.9161 205.249 49.5333 205.549 49.2337C205.882 48.9009 206.264 48.7345 206.697 48.7345C206.863 48.7345 206.98 48.6845 207.047 48.5847C207.479 47.919 207.795 47.4198 207.995 47.0869C208.028 47.0203 208.012 46.9538 207.945 46.8872C207.912 46.7874 207.862 46.7374 207.795 46.7374H204.151C203.319 46.7374 202.62 46.4545 202.054 45.8887C201.488 45.3229 201.205 44.6239 201.205 43.7918V42.7933C201.205 42.527 201.105 42.3107 200.906 42.1442C200.373 41.6783 199.707 41.1124 198.909 40.4467C198.875 40.4467 198.859 40.4467 198.859 40.4467C198.859 40.6797 198.726 40.7962 198.459 40.7962H191.619C191.353 40.7962 191.22 40.9294 191.22 41.1956V43.2426C191.22 43.5089 191.353 43.642 191.619 43.642H196.263C197.061 43.642 197.744 43.9249 198.309 44.4908C198.875 45.0566 199.158 45.7223 199.158 46.4878C199.158 51.6468 198.975 56.4397 198.609 60.8665C198.409 63.5958 198.027 65.3598 197.461 66.1587C196.662 67.3236 195.613 68.0226 194.315 68.2555C193.849 68.3554 193.284 68.4386 192.618 68.5052C192.551 68.5052 192.485 68.5052 192.418 68.5052C191.686 68.5052 191.037 68.2555 190.471 67.7563C189.839 67.2237 189.423 66.5248 189.223 65.6594C189.023 64.794 188.774 64.0285 188.474 63.3628C188.441 63.2962 188.391 63.2629 188.324 63.2629C188.258 63.2629 188.208 63.2962 188.174 63.3628C187.775 64.1616 187.342 64.9105 186.876 65.6095C186.444 66.2419 185.845 66.5581 185.079 66.5581C184.314 66.5581 183.665 66.2751 183.132 65.7093C183.099 65.6428 183.049 65.5928 182.982 65.5595C182.416 64.9937 182.084 64.2947 181.984 63.4626C181.984 63.3295 181.984 63.1797 181.984 63.0133C181.984 62.3809 182.15 61.7818 182.483 61.216C184.347 57.7544 185.279 52.7618 185.279 46.2382ZM179.537 35.2544C179.87 35.7537 180.037 36.2862 180.037 36.8521C180.037 37.0518 180.02 37.2515 179.987 37.4512C179.787 38.25 179.338 38.8824 178.639 39.3484L177.241 40.297C176.775 40.5632 176.292 40.6964 175.793 40.6964C175.56 40.6964 175.327 40.6631 175.094 40.5965C174.362 40.4301 173.779 39.9974 173.346 39.2984C172.514 38.0337 171.499 36.6856 170.301 35.2544C169.902 34.7885 169.702 34.2559 169.702 33.6568C169.702 33.5237 169.719 33.3739 169.752 33.2075C169.852 32.4752 170.218 31.8928 170.85 31.4601L171.749 30.9109C172.348 30.5447 172.997 30.3617 173.696 30.3617C173.829 30.3617 173.979 30.3617 174.145 30.3617C175.011 30.4615 175.726 30.8277 176.292 31.4601C177.59 32.8247 178.672 34.0895 179.537 35.2544ZM177.74 48.0854C178.572 48.0854 179.271 48.3683 179.837 48.9342C180.403 49.5 180.686 50.199 180.686 51.0311V64.1117C180.686 64.378 180.752 64.6109 180.885 64.8107C182.55 67.6398 185.778 69.1542 190.571 69.3539C192.635 69.4538 195.214 69.5037 198.309 69.5037C199.474 69.5037 200.706 69.4871 202.004 69.4538C206.83 69.4205 211.14 69.2874 214.935 69.0544C214.968 69.0544 215.018 69.0544 215.085 69.0544C215.684 69.0544 216.166 69.304 216.532 69.8033C216.799 70.1361 216.932 70.5022 216.932 70.9016C216.932 71.1346 216.882 71.3676 216.782 71.6006C216.649 72.0333 216.516 72.466 216.383 72.8987C216.116 73.7308 215.65 74.4131 214.985 74.9456C214.319 75.5115 213.57 75.811 212.738 75.8443C208.378 76.0107 204.317 76.0939 200.556 76.0939C196.961 76.0939 193.633 76.0274 190.571 75.8942C187.575 75.7611 185.079 75.2951 183.082 74.4963C181.118 73.6975 179.404 72.3994 177.94 70.6021C177.807 70.4024 177.657 70.4024 177.49 70.6021C176.425 71.7337 175.194 72.9652 173.796 74.2966C173.363 74.696 172.88 74.8957 172.348 74.8957C172.215 74.8957 172.065 74.8957 171.899 74.8957C171.2 74.7626 170.684 74.3632 170.351 73.6975L169.502 71.9001C169.269 71.4009 169.153 70.9016 169.153 70.4024C169.153 70.1361 169.203 69.8365 169.302 69.5037C169.502 68.7049 169.952 68.0558 170.65 67.5566C171.682 66.791 172.631 66.0588 173.496 65.3598C173.696 65.1934 173.796 64.9771 173.796 64.7108V55.2748C173.796 55.0418 173.663 54.9253 173.396 54.9253H171.998C171.166 54.9253 170.467 54.6424 169.902 54.0766C169.336 53.4774 169.053 52.7785 169.053 51.9797V51.0311C169.053 50.199 169.336 49.5 169.902 48.9342C170.467 48.3683 171.166 48.0854 171.998 48.0854H177.74Z" fill="white"/>
<path d="M266.808 34.2559C267.008 34.6886 267.108 35.1213 267.108 35.554C267.108 35.8868 267.041 36.2363 266.908 36.6024C266.608 37.368 266.076 37.9504 265.31 38.3499L264.861 38.5995C264.461 38.7992 264.079 38.899 263.713 38.899C263.413 38.899 263.097 38.8325 262.764 38.6993C262.065 38.4331 261.566 37.9338 261.266 37.2016C260.834 36.2363 260.334 35.2045 259.768 34.1061C259.535 33.6734 259.419 33.2408 259.419 32.8081C259.419 32.5085 259.469 32.2089 259.569 31.9094C259.802 31.1439 260.268 30.5947 260.967 30.2618L261.017 30.2119C261.516 29.9789 262.015 29.8624 262.514 29.8624C262.781 29.8624 263.08 29.8957 263.413 29.9623C264.212 30.1953 264.828 30.6779 265.26 31.4101C265.826 32.3754 266.342 33.324 266.808 34.2559ZM239.998 65.8591C240.031 65.7925 240.014 65.726 239.948 65.6594C239.915 65.5595 239.848 65.5096 239.748 65.5096H236.153C236.054 65.5096 235.97 65.5429 235.904 65.6095C235.871 65.676 235.871 65.7592 235.904 65.8591C236.07 66.1919 236.22 66.5581 236.353 66.9575C236.453 67.2237 236.503 67.5067 236.503 67.8062C236.503 68.2389 236.386 68.655 236.153 69.0544C235.721 69.7533 235.105 70.186 234.306 70.3524C234.273 70.3524 234.256 70.3691 234.256 70.4024C234.256 70.4024 234.273 70.4024 234.306 70.4024L239.498 69.8532C239.365 69.8199 239.249 69.7367 239.149 69.6036C239.082 69.4704 239.066 69.3373 239.099 69.2041C239.465 68.0059 239.765 66.8909 239.998 65.8591ZM235.105 60.7666C234.872 60.7666 234.755 60.8831 234.755 61.1161V61.9649C234.755 62.1979 234.872 62.3144 235.105 62.3144H241.446C241.712 62.3144 241.845 62.1979 241.845 61.9649V61.1161C241.845 60.8831 241.712 60.7666 241.446 60.7666H235.105ZM237.302 41.1457C237.069 41.1457 236.952 41.2622 236.952 41.4952V42.4438C236.952 42.6768 237.069 42.7933 237.302 42.7933L242.943 42.3439C243.21 42.3107 243.359 42.1775 243.393 41.9445L243.443 41.4952C243.509 41.2622 243.409 41.1457 243.143 41.1457H237.302ZM261.166 50.8813C261.433 50.149 261.915 49.6498 262.614 49.3835C262.914 49.2504 263.213 49.1838 263.513 49.1838C263.912 49.1838 264.295 49.2837 264.661 49.4834L264.911 49.6331C265.676 50.0325 266.226 50.6317 266.558 51.4305C266.725 51.8632 266.808 52.2959 266.808 52.7285C266.808 53.0947 266.741 53.4608 266.608 53.8269C265.21 57.7212 263.413 61.399 261.216 64.8606C261.083 65.0936 261.05 65.3266 261.116 65.5595C261.616 67.0906 262.148 67.8728 262.714 67.9061C263.18 67.9061 263.53 66.8243 263.763 64.6609C263.829 64.095 264.112 63.7289 264.611 63.5625C265.144 63.3628 265.626 63.446 266.059 63.8121C266.259 63.9453 266.442 64.0784 266.608 64.2115C267.341 64.7774 267.89 65.4763 268.256 66.3084C268.456 66.841 268.555 67.3735 268.555 67.9061C268.555 68.2056 268.522 68.5052 268.456 68.8047C267.757 71.7004 266.891 73.7308 265.859 74.8957C264.828 75.9941 263.763 76.5433 262.664 76.5433C262.631 76.5433 262.614 76.5433 262.614 76.5433C260.085 76.4434 258.004 74.8125 256.373 71.6505C256.274 71.4508 256.14 71.4342 255.974 71.6006C254.809 72.8321 253.644 73.9138 252.479 74.8458C251.913 75.2452 251.314 75.4449 250.682 75.4449C250.549 75.4449 250.399 75.4449 250.233 75.4449C249.434 75.3118 248.718 74.9456 248.086 74.3465C248.052 74.3132 248.036 74.2966 248.036 74.2966C247.869 74.1302 247.653 74.0636 247.387 74.0969C241.396 74.7626 235.687 75.3783 230.262 75.9442C230.162 75.9774 230.062 75.9941 229.963 75.9941C229.363 75.9941 228.814 75.7944 228.315 75.395C227.716 74.929 227.366 74.3299 227.267 73.5976C227.267 73.4645 227.267 73.348 227.267 73.2482C227.267 72.6823 227.45 72.1664 227.816 71.7004C228.248 71.1346 228.831 70.8184 229.563 70.7518C229.796 70.7518 230.146 70.7352 230.612 70.7019C231.111 70.6354 231.444 70.6021 231.61 70.6021C231.843 70.5688 231.943 70.4356 231.91 70.2027C231.843 69.7034 231.71 69.1209 231.51 68.4553C231.444 68.2223 231.41 68.0059 231.41 67.8062C231.41 67.3735 231.527 66.9741 231.76 66.608C232.093 66.0422 232.592 65.6927 233.258 65.5595C233.258 65.5263 233.241 65.5096 233.208 65.5096H232.259C231.46 65.5096 230.761 65.2267 230.162 64.6609C229.596 64.0618 229.314 63.3628 229.314 62.564V60.517C229.314 59.7182 229.596 59.0359 230.162 58.47C230.761 57.8709 231.46 57.5714 232.259 57.5714H244.691C245.49 57.5714 246.172 57.8709 246.738 58.47C247.337 59.0359 247.636 59.7182 247.636 60.517V62.564C247.636 63.3628 247.337 64.0618 246.738 64.6609C246.172 65.2267 245.49 65.5096 244.691 65.5096H243.443C243.443 65.5429 243.443 65.5595 243.443 65.5595C244.108 65.6261 244.591 65.9423 244.89 66.5081C245.09 66.841 245.19 67.1572 245.19 67.4567C245.19 67.723 245.123 67.9893 244.99 68.2555C244.89 68.5551 244.791 68.8047 244.691 69.0044C244.657 69.071 244.657 69.1376 244.691 69.2041C244.757 69.2707 244.841 69.304 244.94 69.304L248.585 68.9545C248.685 68.9545 248.735 68.9878 248.735 69.0544C250.466 67.723 252.096 66.142 253.628 64.3114C253.794 64.1117 253.844 63.8953 253.777 63.6624C252.945 59.5351 252.329 54.6757 251.93 49.084C251.93 48.8177 251.797 48.7012 251.531 48.7345L251.031 48.7844C250.898 48.8177 250.765 48.8343 250.632 48.8343C250 48.8343 249.417 48.6346 248.885 48.2352C248.219 47.7359 247.836 47.0869 247.736 46.2881L247.686 45.9386C247.653 45.7056 247.503 45.5558 247.237 45.4893L243.942 45.0399C243.909 45.0399 243.875 45.0566 243.842 45.0899C243.875 45.3229 243.825 45.5226 243.692 45.689C243.559 45.8221 243.376 45.9053 243.143 45.9386L237.302 46.3879C237.035 46.4212 236.919 46.5544 236.952 46.7874C236.952 47.22 237.035 47.503 237.202 47.6361C237.402 47.7692 237.768 47.8358 238.3 47.8358H241.945C242.411 47.8358 242.727 47.7193 242.893 47.4863C243.326 46.9205 243.775 46.7374 244.241 46.9371C244.541 47.037 244.874 47.1368 245.24 47.2367C245.839 47.4364 246.288 47.8025 246.588 48.3351C246.921 48.8343 246.937 49.3169 246.638 49.7829C246.005 50.8147 244.657 51.3306 242.594 51.3306H237.551C235.421 51.3306 233.957 51.0477 233.158 50.4819C232.392 49.9161 231.976 48.8343 231.91 47.2367C231.876 47.0037 231.743 46.9038 231.51 46.9371L230.512 46.9871C230.013 47.0536 229.563 46.9205 229.164 46.5876C228.764 46.2548 228.531 45.8388 228.465 45.3395C228.398 44.8402 228.515 44.4075 228.814 44.0414C229.147 43.642 229.563 43.4257 230.062 43.3924L231.51 43.2426C231.743 43.2093 231.86 43.0762 231.86 42.8432V41.4952C231.86 41.2622 231.743 41.1457 231.51 41.1457H228.365C228.099 41.1457 227.966 41.2622 227.966 41.4952V51.8798C227.966 52.1461 228.099 52.2792 228.365 52.2792H247.037C247.603 52.2792 248.086 52.4956 248.485 52.9283C248.918 53.3277 249.134 53.8269 249.134 54.426C249.134 54.9919 248.918 55.4911 248.485 55.9238C248.086 56.3232 247.603 56.5229 247.037 56.5229H230.212C229.58 56.5229 229.031 56.3066 228.565 55.8739C228.132 55.4079 227.916 54.8587 227.916 54.2263C227.683 62.3809 226.701 68.9046 224.97 73.7973C224.737 74.463 224.271 74.8624 223.572 74.9956C223.406 75.0288 223.239 75.0455 223.073 75.0455C222.574 75.0455 222.108 74.8624 221.675 74.4963C221.575 74.3964 221.475 74.3132 221.375 74.2467C220.71 73.7141 220.244 73.0485 219.977 72.2496C219.844 71.8169 219.778 71.4009 219.778 71.0015C219.778 70.6021 219.844 70.2027 219.977 69.8033C221.342 65.3765 222.024 58.8695 222.024 50.2822V39.4482C222.024 38.6494 222.307 37.9671 222.873 37.4013C223.439 36.8021 224.138 36.5026 224.97 36.5026H230.911C231.177 36.5026 231.311 36.3861 231.311 36.1531V31.2104C231.311 30.4116 231.594 29.7293 232.159 29.1635C232.758 28.5643 233.457 28.2648 234.256 28.2648H236.153C236.719 28.2648 237.185 28.4645 237.551 28.8639C237.951 29.2633 238.15 29.7293 238.15 30.2618C238.15 30.4615 238.234 30.5614 238.4 30.5614H246.238C246.871 30.5614 247.403 30.7944 247.836 31.2604C248.302 31.693 248.535 32.2256 248.535 32.858C248.535 33.4904 248.302 34.0396 247.836 34.5055C247.403 34.9382 246.871 35.1546 246.238 35.1546H238.55C238.284 35.1546 238.15 35.2711 238.15 35.5041V36.1531C238.15 36.3861 238.284 36.5026 238.55 36.5026H243.592C245.723 36.5026 247.17 36.5692 247.936 36.7023C248.535 36.8021 249.001 37.0851 249.334 37.551C249.6 37.9172 249.733 38.3166 249.733 38.7493C249.733 38.8824 249.717 39.0322 249.683 39.1986C249.45 40.2637 249.234 41.2456 249.034 42.1442C249.001 42.2441 249.018 42.3273 249.084 42.3939C249.151 42.4271 249.234 42.4438 249.334 42.4438L251.131 42.1942C251.364 42.1609 251.481 42.0111 251.481 41.7448C251.281 37.0518 251.181 33.5902 251.181 31.3602C251.181 30.5947 251.447 29.929 251.98 29.3632C252.546 28.7973 253.228 28.5144 254.027 28.5144H254.926C255.758 28.5144 256.457 28.7973 257.022 29.3632C257.622 29.929 257.921 30.628 257.921 31.4601C257.954 34.4889 258.021 37.6176 258.121 40.8462C258.154 41.1124 258.287 41.2289 258.52 41.1956L264.212 40.4467C264.378 40.4135 264.528 40.3968 264.661 40.3968C265.294 40.3968 265.876 40.5965 266.409 40.9959C267.041 41.4952 267.407 42.1609 267.507 42.993L267.607 43.5422C267.607 43.7086 267.607 43.8584 267.607 43.9915C267.607 44.6239 267.407 45.2064 267.008 45.7389C266.508 46.4046 265.859 46.7874 265.061 46.8872L258.87 47.7359C258.637 47.7692 258.52 47.9024 258.52 48.1354C258.687 50.3321 258.903 52.6786 259.169 55.1749C259.169 55.2082 259.203 55.2415 259.269 55.2748C259.336 55.2748 259.369 55.2581 259.369 55.2249C260.068 53.7604 260.667 52.3125 261.166 50.8813Z" fill="white"/>
</svg>
