<svg width="468" height="152" viewBox="0 0 468 152" fill="none" xmlns="http://www.w3.org/2000/svg">
<g filter="url(#filter0_i_1_896)">
<rect width="468" height="152" rx="76" fill="#C33E21"/>
</g>
<path d="M74.6999 21.1367C58.9499 25.1841 27.0899 42.2728 25.6499 78.2491" stroke="#E36144" stroke-width="10.8" stroke-linecap="round"/>
<path d="M133.383 59.9219C133.758 59.9219 133.945 59.7344 133.945 59.3594V57.4609C133.945 57.1328 133.758 56.9688 133.383 56.9688H126.914C126.539 56.9688 126.352 57.1328 126.352 57.4609V59.3594C126.352 59.7344 126.539 59.9219 126.914 59.9219H133.383ZM133.383 71.2422C133.758 71.2422 133.945 71.0781 133.945 70.75V68.7812C133.945 68.4062 133.758 68.2188 133.383 68.2188H126.914C126.539 68.2188 126.352 68.4062 126.352 68.7812V70.75C126.352 71.0781 126.539 71.2422 126.914 71.2422H133.383ZM133.383 82.8438C133.758 82.8438 133.945 82.6797 133.945 82.3516V80.1719C133.945 79.7969 133.758 79.6094 133.383 79.6094H126.914C126.539 79.6094 126.352 79.7969 126.352 80.1719V82.3516C126.352 82.6797 126.539 82.8438 126.914 82.8438H133.383ZM120.445 91.5625C119.273 91.5625 118.289 91.1641 117.492 90.3672C116.695 89.5703 116.297 88.5859 116.297 87.4141V66.3906C116.297 66.3438 116.25 66.3203 116.156 66.3203C116.109 66.2734 116.062 66.2734 116.016 66.3203C115.453 66.8359 114.82 67.0938 114.117 67.0938C114.023 67.0938 113.953 67.0938 113.906 67.0938C113.062 67 112.359 66.625 111.797 65.9688C110.953 64.9375 110.039 63.9297 109.055 62.9453C108.352 62.1953 108 61.3047 108 60.2734C108 59.1016 108.422 58.1406 109.266 57.3906C113.672 53.2188 117.258 48.2734 120.023 42.5547C120.539 41.4766 121.336 40.6797 122.414 40.1641C123.07 39.8359 123.727 39.6719 124.383 39.6719C124.805 39.6719 125.227 39.7422 125.648 39.8828L128.109 40.5859C129.188 40.9141 129.961 41.5703 130.43 42.5547C130.664 43.0234 130.781 43.5156 130.781 44.0312C130.781 44.5469 130.664 45.0391 130.43 45.5078C130.055 46.2578 129.68 47.0078 129.305 47.7578C129.258 47.8516 129.258 47.9688 129.305 48.1094C129.398 48.2031 129.516 48.25 129.656 48.25H134.789C135.117 48.25 135.352 48.0859 135.492 47.7578C135.961 46.3516 136.406 44.8984 136.828 43.3984C137.156 42.2734 137.812 41.3828 138.797 40.7266C139.547 40.2578 140.344 40.0234 141.188 40.0234C141.422 40.0234 141.68 40.0469 141.961 40.0938L145.406 40.6562C146.391 40.8438 147.117 41.4062 147.586 42.3438C147.82 42.8125 147.938 43.2812 147.938 43.75C147.938 44.1719 147.844 44.6172 147.656 45.0859C147.141 46.1172 146.672 47.0078 146.25 47.7578C146.203 47.8516 146.203 47.9688 146.25 48.1094C146.344 48.2031 146.438 48.25 146.531 48.25H153C154.172 48.25 155.156 48.6484 155.953 49.4453C156.75 50.2422 157.148 51.2266 157.148 52.3984V52.8203C157.148 53.9453 156.75 54.9297 155.953 55.7734C155.156 56.5703 154.172 56.9688 153 56.9688H144.352C144.023 56.9688 143.859 57.1328 143.859 57.4609V59.3594C143.859 59.7344 144.023 59.9219 144.352 59.9219H151.102C152.227 59.9219 153.188 60.3203 153.984 61.1172C154.828 61.9141 155.25 62.8984 155.25 64.0703C155.25 65.2422 154.828 66.2266 153.984 67.0234C153.188 67.8203 152.227 68.2188 151.102 68.2188H144.352C144.023 68.2188 143.859 68.4062 143.859 68.7812V70.75C143.859 71.0781 144.023 71.2422 144.352 71.2422H150.75C151.875 71.2422 152.836 71.6641 153.633 72.5078C154.477 73.3047 154.898 74.2656 154.898 75.3906V75.4609C154.898 76.6328 154.477 77.6172 153.633 78.4141C152.836 79.2109 151.875 79.6094 150.75 79.6094H144.352C144.023 79.6094 143.859 79.7969 143.859 80.1719V82.3516C143.859 82.6797 144.023 82.8438 144.352 82.8438H154.336C155.461 82.8438 156.422 83.2656 157.219 84.1094C158.062 84.9062 158.484 85.8672 158.484 86.9922V87.4141C158.484 88.5859 158.062 89.5703 157.219 90.3672C156.422 91.1641 155.461 91.5625 154.336 91.5625H120.445ZM109.055 48.3203C109.711 49.0234 110.039 49.8438 110.039 50.7812C110.039 50.9688 110.016 51.1328 109.969 51.2734C109.828 52.4453 109.289 53.3828 108.352 54.0859L106.312 55.6328C105.609 56.1484 104.859 56.4062 104.062 56.4062C103.828 56.4062 103.594 56.3828 103.359 56.3359C102.281 56.1953 101.391 55.6797 100.688 54.7891C99.2812 53.0078 97.5469 51.1094 95.4844 49.0938C94.7344 48.3906 94.3594 47.5469 94.3594 46.5625C94.3594 45.3906 94.8281 44.4531 95.7656 43.75L97.1016 42.7656C98.0391 42.0625 99.0938 41.7109 100.266 41.7109C100.312 41.7109 100.359 41.7109 100.406 41.7109C101.625 41.7578 102.703 42.1797 103.641 42.9766C105.703 44.8516 107.508 46.6328 109.055 48.3203ZM105.82 66.3203C106.945 66.3203 107.906 66.7188 108.703 67.5156C109.547 68.3125 109.969 69.2969 109.969 70.4688V88.8203C109.969 89.1953 110.039 89.5234 110.18 89.8047C111.398 91.8203 113.086 93.3203 115.242 94.3047C117.398 95.2891 120.141 95.8516 123.469 95.9922C126.281 96.1328 129.797 96.2031 134.016 96.2031C135.562 96.2031 137.203 96.1797 138.938 96.1328C145.406 96.0859 151.242 95.8984 156.445 95.5703C156.492 95.5703 156.562 95.5703 156.656 95.5703C157.5 95.5703 158.18 95.9219 158.695 96.625C159.023 97.0938 159.188 97.6094 159.188 98.1719C159.188 98.4531 159.141 98.7578 159.047 99.0859C158.766 99.8359 158.508 100.609 158.273 101.406C157.945 102.578 157.312 103.539 156.375 104.289C155.438 105.086 154.383 105.508 153.211 105.555C147.398 105.789 141.938 105.906 136.828 105.906C132 105.906 127.5 105.812 123.328 105.625C119.203 105.438 115.758 104.781 112.992 103.656C110.273 102.578 107.906 100.797 105.891 98.3125C105.656 98.0312 105.422 98.0312 105.188 98.3125C103.406 100 101.508 101.734 99.4922 103.516C98.8828 104.031 98.2266 104.289 97.5234 104.289C97.2891 104.289 97.0312 104.266 96.75 104.219C95.7656 103.984 95.0391 103.398 94.5703 102.461L93.2344 99.5078C92.9531 98.8984 92.8125 98.2656 92.8125 97.6094C92.8125 97.1406 92.8828 96.6719 93.0234 96.2031C93.3516 95.0781 94.0078 94.1875 94.9922 93.5312C96.4922 92.5469 97.9922 91.4922 99.4922 90.3672C99.7734 90.1797 99.9141 89.8984 99.9141 89.5234V76.4453C99.9141 76.1172 99.75 75.9531 99.4219 75.9531H96.6094C95.4375 75.9531 94.4531 75.5547 93.6562 74.7578C92.8594 73.9141 92.4609 72.9297 92.4609 71.8047V70.4688C92.4609 69.2969 92.8594 68.3125 93.6562 67.5156C94.4531 66.7188 95.4375 66.3203 96.6094 66.3203H105.82ZM178.594 44.8047C178.594 43.6797 178.992 42.7188 179.789 41.9219C180.633 41.0781 181.617 40.6562 182.742 40.6562H200.602C201.727 40.6562 202.688 41.0547 203.484 41.8516C204.328 42.6484 204.773 43.6328 204.82 44.8047C205.711 66.9766 213.797 83.2422 229.078 93.6016C229.922 94.1641 230.391 94.9609 230.484 95.9922C230.484 96.0859 230.484 96.2031 230.484 96.3438C230.484 97.1875 230.18 97.9375 229.57 98.5938C229.148 99.0625 228.703 99.5547 228.234 100.07C227.672 100.633 227.18 101.195 226.758 101.758C225.961 102.648 225 103.188 223.875 103.375C223.594 103.422 223.312 103.445 223.031 103.445C222.188 103.445 221.414 103.211 220.711 102.742C210.539 95.5703 203.25 85.3516 198.844 72.0859C198.844 71.9922 198.797 71.9453 198.703 71.9453C198.609 71.9453 198.539 71.9922 198.492 72.0859C193.477 85.6328 186.188 95.875 176.625 102.812C175.781 103.375 174.891 103.656 173.953 103.656C173.766 103.656 173.578 103.656 173.391 103.656C172.219 103.516 171.164 103.023 170.227 102.18C169.758 101.711 169.242 101.219 168.68 100.703C168.023 100.141 167.414 99.625 166.852 99.1562C166.195 98.5938 165.867 97.8906 165.867 97.0469C165.867 95.9688 166.336 95.1484 167.273 94.5859C178.148 87.8828 185.484 76.8438 189.281 61.4688C189.562 60.3438 190.195 59.4531 191.18 58.7969C191.883 58.3281 192.633 58.0938 193.43 58.0938C193.711 58.0938 193.992 58.1172 194.273 58.1641L194.906 58.3047C195 58.3047 195.094 58.2578 195.188 58.1641C195.281 58.0703 195.328 57.9766 195.328 57.8828C195 56.0078 194.742 53.9688 194.555 51.7656C194.508 51.4375 194.297 51.2734 193.922 51.2734H182.742C181.617 51.2734 180.633 50.875 179.789 50.0781C178.992 49.2344 178.594 48.25 178.594 47.125V44.8047ZM269.93 68.9219C269.93 68.5469 269.742 68.3594 269.367 68.3594H268.031C267.656 68.3594 267.469 68.5469 267.469 68.9219C267.094 75.8594 265.898 81.7188 263.883 86.5C263.742 86.8281 263.836 86.9922 264.164 86.9922C264.914 87.0859 265.828 87.1328 266.906 87.1328C267.656 87.1328 268.266 86.7812 268.734 86.0781C269.344 85.0938 269.742 79.375 269.93 68.9219ZM259.172 63.7188V56.6172C259.172 56.2422 259.008 56.0547 258.68 56.0547H258.398C257.227 56.0547 256.242 55.6562 255.445 54.8594C254.648 54.0625 254.25 53.0781 254.25 51.9062V51.7656C254.25 50.5938 254.648 49.6094 255.445 48.8125C256.242 48.0156 257.227 47.6172 258.398 47.6172H261.492C261.82 47.6172 261.984 47.4297 261.984 47.0547V42.5547C261.984 41.4297 262.383 40.4688 263.18 39.6719C264.023 38.8281 265.008 38.4062 266.133 38.4062H267.469C268.594 38.4062 269.555 38.8281 270.352 39.6719C271.195 40.4688 271.617 41.4297 271.617 42.5547V47.0547C271.617 47.4297 271.781 47.6172 272.109 47.6172H275.133C276.023 47.6172 276.773 47.9219 277.383 48.5312C277.992 49.1406 278.297 49.8672 278.297 50.7109C278.297 50.7578 278.32 50.8047 278.367 50.8516C278.414 50.8516 278.461 50.8281 278.508 50.7812C280.008 48.2031 281.297 45.2734 282.375 41.9922C282.703 40.9141 283.359 40.0703 284.344 39.4609C285.047 39.0391 285.773 38.8281 286.523 38.8281C286.852 38.8281 287.18 38.875 287.508 38.9688L288.07 39.1094C289.195 39.3438 290.039 39.9531 290.602 40.9375C290.977 41.5469 291.164 42.1797 291.164 42.8359C291.164 43.2109 291.094 43.6094 290.953 44.0312C290.859 44.2656 290.766 44.5 290.672 44.7344C290.672 44.8281 290.695 44.9453 290.742 45.0859C290.836 45.1797 290.93 45.2266 291.023 45.2266H298.898C300.023 45.2266 300.984 45.625 301.781 46.4219C302.625 47.2188 303.047 48.2031 303.047 49.375V49.5859C303.047 50.7109 302.625 51.6953 301.781 52.5391C300.984 53.3359 300.023 53.7344 298.898 53.7344H287.438C287.109 53.7344 286.852 53.875 286.664 54.1562C286.289 54.9062 285.844 55.6797 285.328 56.4766C285.281 56.5703 285.281 56.6875 285.328 56.8281C285.375 56.9219 285.469 56.9688 285.609 56.9688H296.156C296.297 56.9688 296.438 56.9453 296.578 56.8984C296.859 56.8047 297.164 56.7578 297.492 56.7578C298.148 56.7578 298.758 56.9688 299.32 57.3906L300.727 58.4453C301.477 59.0078 301.945 59.7578 302.133 60.6953C302.18 60.9297 302.203 61.1641 302.203 61.3984C302.203 62.0547 302.016 62.6875 301.641 63.2969C299.906 65.9688 298.219 68.2891 296.578 70.2578C296.484 70.3516 296.461 70.4453 296.508 70.5391C296.555 70.6328 296.625 70.6797 296.719 70.6797H299.391C300.516 70.6797 301.477 71.0781 302.273 71.875C303.07 72.6719 303.469 73.6328 303.469 74.7578C303.469 75.8828 303.07 76.8438 302.273 77.6406C301.477 78.4375 300.516 78.8359 299.391 78.8359H296.367C296.039 78.8359 295.875 79 295.875 79.3281V85.4453C295.875 87.5547 295.641 89.2188 295.172 90.4375C294.75 91.6094 293.93 92.5234 292.711 93.1797C291.305 93.9297 289.43 94.3984 287.086 94.5859C286.992 94.5859 286.875 94.5859 286.734 94.5859C285.75 94.5859 284.836 94.2344 283.992 93.5312C283.055 92.7812 282.398 91.8203 282.023 90.6484C281.93 90.4141 281.836 90.1797 281.742 89.9453C281.648 89.5703 281.602 89.2188 281.602 88.8906C281.602 88.375 281.766 87.8594 282.094 87.3438C282.609 86.5469 283.336 86.1484 284.273 86.1484H285.961C286.383 86.1484 286.664 86.1016 286.805 86.0078C286.992 85.8672 287.086 85.6328 287.086 85.3047V79.3281C287.086 79 286.898 78.8359 286.523 78.8359H284.133C283.008 78.8359 282.047 78.4375 281.25 77.6406C280.453 76.8438 280.055 75.8828 280.055 74.7578C280.055 73.6328 280.453 72.6719 281.25 71.875C282.047 71.0781 283.008 70.6797 284.133 70.6797H286.664C286.945 70.6797 287.086 70.5625 287.086 70.3281V69.5547C287.086 68.8984 287.297 68.3594 287.719 67.9375C288.188 67.4688 288.727 67.2344 289.336 67.2344C289.57 67.2344 289.734 67.1641 289.828 67.0234C290.438 66.0859 290.883 65.3828 291.164 64.9141C291.211 64.8203 291.188 64.7266 291.094 64.6328C291.047 64.4922 290.977 64.4219 290.883 64.4219H285.75C284.578 64.4219 283.594 64.0234 282.797 63.2266C282 62.4297 281.602 61.4453 281.602 60.2734V58.8672C281.602 58.4922 281.461 58.1875 281.18 57.9531C280.43 57.2969 279.492 56.5 278.367 55.5625C278.32 55.5625 278.297 55.5625 278.297 55.5625C278.297 55.8906 278.109 56.0547 277.734 56.0547H268.102C267.727 56.0547 267.539 56.2422 267.539 56.6172V59.5C267.539 59.875 267.727 60.0625 268.102 60.0625H274.641C275.766 60.0625 276.727 60.4609 277.523 61.2578C278.32 62.0547 278.719 62.9922 278.719 64.0703C278.719 71.3359 278.461 78.0859 277.945 84.3203C277.664 88.1641 277.125 90.6484 276.328 91.7734C275.203 93.4141 273.727 94.3984 271.898 94.7266C271.242 94.8672 270.445 94.9844 269.508 95.0781C269.414 95.0781 269.32 95.0781 269.227 95.0781C268.195 95.0781 267.281 94.7266 266.484 94.0234C265.594 93.2734 265.008 92.2891 264.727 91.0703C264.445 89.8516 264.094 88.7734 263.672 87.8359C263.625 87.7422 263.555 87.6953 263.461 87.6953C263.367 87.6953 263.297 87.7422 263.25 87.8359C262.688 88.9609 262.078 90.0156 261.422 91C260.812 91.8906 259.969 92.3359 258.891 92.3359C257.812 92.3359 256.898 91.9375 256.148 91.1406C256.102 91.0469 256.031 90.9766 255.938 90.9297C255.141 90.1328 254.672 89.1484 254.531 87.9766C254.531 87.7891 254.531 87.5781 254.531 87.3438C254.531 86.4531 254.766 85.6094 255.234 84.8125C257.859 79.9375 259.172 72.9062 259.172 63.7188ZM251.086 48.25C251.555 48.9531 251.789 49.7031 251.789 50.5C251.789 50.7812 251.766 51.0625 251.719 51.3438C251.438 52.4688 250.805 53.3594 249.82 54.0156L247.852 55.3516C247.195 55.7266 246.516 55.9141 245.812 55.9141C245.484 55.9141 245.156 55.8672 244.828 55.7734C243.797 55.5391 242.977 54.9297 242.367 53.9453C241.195 52.1641 239.766 50.2656 238.078 48.25C237.516 47.5938 237.234 46.8438 237.234 46C237.234 45.8125 237.258 45.6016 237.305 45.3672C237.445 44.3359 237.961 43.5156 238.852 42.9062L240.117 42.1328C240.961 41.6172 241.875 41.3594 242.859 41.3594C243.047 41.3594 243.258 41.3594 243.492 41.3594C244.711 41.5 245.719 42.0156 246.516 42.9062C248.344 44.8281 249.867 46.6094 251.086 48.25ZM248.555 66.3203C249.727 66.3203 250.711 66.7188 251.508 67.5156C252.305 68.3125 252.703 69.2969 252.703 70.4688V88.8906C252.703 89.2656 252.797 89.5938 252.984 89.875C255.328 93.8594 259.875 95.9922 266.625 96.2734C269.531 96.4141 273.164 96.4844 277.523 96.4844C279.164 96.4844 280.898 96.4609 282.727 96.4141C289.523 96.3672 295.594 96.1797 300.938 95.8516C300.984 95.8516 301.055 95.8516 301.148 95.8516C301.992 95.8516 302.672 96.2031 303.188 96.9062C303.562 97.375 303.75 97.8906 303.75 98.4531C303.75 98.7812 303.68 99.1094 303.539 99.4375C303.352 100.047 303.164 100.656 302.977 101.266C302.602 102.438 301.945 103.398 301.008 104.148C300.07 104.945 299.016 105.367 297.844 105.414C291.703 105.648 285.984 105.766 280.688 105.766C275.625 105.766 270.938 105.672 266.625 105.484C262.406 105.297 258.891 104.641 256.078 103.516C253.312 102.391 250.898 100.562 248.836 98.0312C248.648 97.75 248.438 97.75 248.203 98.0312C246.703 99.625 244.969 101.359 243 103.234C242.391 103.797 241.711 104.078 240.961 104.078C240.773 104.078 240.562 104.078 240.328 104.078C239.344 103.891 238.617 103.328 238.148 102.391L236.953 99.8594C236.625 99.1562 236.461 98.4531 236.461 97.75C236.461 97.375 236.531 96.9531 236.672 96.4844C236.953 95.3594 237.586 94.4453 238.57 93.7422C240.023 92.6641 241.359 91.6328 242.578 90.6484C242.859 90.4141 243 90.1094 243 89.7344V76.4453C243 76.1172 242.812 75.9531 242.438 75.9531H240.469C239.297 75.9531 238.312 75.5547 237.516 74.7578C236.719 73.9141 236.32 72.9297 236.32 71.8047V70.4688C236.32 69.2969 236.719 68.3125 237.516 67.5156C238.312 66.7188 239.297 66.3203 240.469 66.3203H248.555ZM373.992 46.8438C374.273 47.4531 374.414 48.0625 374.414 48.6719C374.414 49.1406 374.32 49.6328 374.133 50.1484C373.711 51.2266 372.961 52.0469 371.883 52.6094L371.25 52.9609C370.688 53.2422 370.148 53.3828 369.633 53.3828C369.211 53.3828 368.766 53.2891 368.297 53.1016C367.312 52.7266 366.609 52.0234 366.188 50.9922C365.578 49.6328 364.875 48.1797 364.078 46.6328C363.75 46.0234 363.586 45.4141 363.586 44.8047C363.586 44.3828 363.656 43.9609 363.797 43.5391C364.125 42.4609 364.781 41.6875 365.766 41.2188L365.836 41.1484C366.539 40.8203 367.242 40.6562 367.945 40.6562C368.32 40.6562 368.742 40.7031 369.211 40.7969C370.336 41.125 371.203 41.8047 371.812 42.8359C372.609 44.1953 373.336 45.5312 373.992 46.8438ZM336.234 91.3516C336.281 91.2578 336.258 91.1641 336.164 91.0703C336.117 90.9297 336.023 90.8594 335.883 90.8594H330.82C330.68 90.8594 330.562 90.9062 330.469 91C330.422 91.0938 330.422 91.2109 330.469 91.3516C330.703 91.8203 330.914 92.3359 331.102 92.8984C331.242 93.2734 331.312 93.6719 331.312 94.0938C331.312 94.7031 331.148 95.2891 330.82 95.8516C330.211 96.8359 329.344 97.4453 328.219 97.6797C328.172 97.6797 328.148 97.7031 328.148 97.75C328.148 97.75 328.172 97.75 328.219 97.75L335.531 96.9766C335.344 96.9297 335.18 96.8125 335.039 96.625C334.945 96.4375 334.922 96.25 334.969 96.0625C335.484 94.375 335.906 92.8047 336.234 91.3516ZM329.344 84.1797C329.016 84.1797 328.852 84.3438 328.852 84.6719V85.8672C328.852 86.1953 329.016 86.3594 329.344 86.3594H338.273C338.648 86.3594 338.836 86.1953 338.836 85.8672V84.6719C338.836 84.3438 338.648 84.1797 338.273 84.1797H329.344ZM332.438 56.5469C332.109 56.5469 331.945 56.7109 331.945 57.0391V58.375C331.945 58.7031 332.109 58.8672 332.438 58.8672L340.383 58.2344C340.758 58.1875 340.969 58 341.016 57.6719L341.086 57.0391C341.18 56.7109 341.039 56.5469 340.664 56.5469H332.438ZM366.047 70.2578C366.422 69.2266 367.102 68.5234 368.086 68.1484C368.508 67.9609 368.93 67.8672 369.352 67.8672C369.914 67.8672 370.453 68.0078 370.969 68.2891L371.32 68.5C372.398 69.0625 373.172 69.9062 373.641 71.0312C373.875 71.6406 373.992 72.25 373.992 72.8594C373.992 73.375 373.898 73.8906 373.711 74.4062C371.742 79.8906 369.211 85.0703 366.117 89.9453C365.93 90.2734 365.883 90.6016 365.977 90.9297C366.68 93.0859 367.43 94.1875 368.227 94.2344C368.883 94.2344 369.375 92.7109 369.703 89.6641C369.797 88.8672 370.195 88.3516 370.898 88.1172C371.648 87.8359 372.328 87.9531 372.938 88.4688C373.219 88.6562 373.477 88.8438 373.711 89.0312C374.742 89.8281 375.516 90.8125 376.031 91.9844C376.312 92.7344 376.453 93.4844 376.453 94.2344C376.453 94.6562 376.406 95.0781 376.312 95.5C375.328 99.5781 374.109 102.438 372.656 104.078C371.203 105.625 369.703 106.398 368.156 106.398C368.109 106.398 368.086 106.398 368.086 106.398C364.523 106.258 361.594 103.961 359.297 99.5078C359.156 99.2266 358.969 99.2031 358.734 99.4375C357.094 101.172 355.453 102.695 353.812 104.008C353.016 104.57 352.172 104.852 351.281 104.852C351.094 104.852 350.883 104.852 350.648 104.852C349.523 104.664 348.516 104.148 347.625 103.305C347.578 103.258 347.555 103.234 347.555 103.234C347.32 103 347.016 102.906 346.641 102.953C338.203 103.891 330.164 104.758 322.523 105.555C322.383 105.602 322.242 105.625 322.102 105.625C321.258 105.625 320.484 105.344 319.781 104.781C318.938 104.125 318.445 103.281 318.305 102.25C318.305 102.062 318.305 101.898 318.305 101.758C318.305 100.961 318.562 100.234 319.078 99.5781C319.688 98.7812 320.508 98.3359 321.539 98.2422C321.867 98.2422 322.359 98.2188 323.016 98.1719C323.719 98.0781 324.188 98.0312 324.422 98.0312C324.75 97.9844 324.891 97.7969 324.844 97.4688C324.75 96.7656 324.562 95.9453 324.281 95.0078C324.188 94.6797 324.141 94.375 324.141 94.0938C324.141 93.4844 324.305 92.9219 324.633 92.4062C325.102 91.6094 325.805 91.1172 326.742 90.9297C326.742 90.8828 326.719 90.8594 326.672 90.8594H325.336C324.211 90.8594 323.227 90.4609 322.383 89.6641C321.586 88.8203 321.188 87.8359 321.188 86.7109V83.8281C321.188 82.7031 321.586 81.7422 322.383 80.9453C323.227 80.1016 324.211 79.6797 325.336 79.6797H342.844C343.969 79.6797 344.93 80.1016 345.727 80.9453C346.57 81.7422 346.992 82.7031 346.992 83.8281V86.7109C346.992 87.8359 346.57 88.8203 345.727 89.6641C344.93 90.4609 343.969 90.8594 342.844 90.8594H341.086C341.086 90.9062 341.086 90.9297 341.086 90.9297C342.023 91.0234 342.703 91.4688 343.125 92.2656C343.406 92.7344 343.547 93.1797 343.547 93.6016C343.547 93.9766 343.453 94.3516 343.266 94.7266C343.125 95.1484 342.984 95.5 342.844 95.7812C342.797 95.875 342.797 95.9688 342.844 96.0625C342.938 96.1562 343.055 96.2031 343.195 96.2031L348.328 95.7109C348.469 95.7109 348.539 95.7578 348.539 95.8516C350.977 93.9766 353.273 91.75 355.43 89.1719C355.664 88.8906 355.734 88.5859 355.641 88.2578C354.469 82.4453 353.602 75.6016 353.039 67.7266C353.039 67.3516 352.852 67.1875 352.477 67.2344L351.773 67.3047C351.586 67.3516 351.398 67.375 351.211 67.375C350.32 67.375 349.5 67.0938 348.75 66.5312C347.812 65.8281 347.273 64.9141 347.133 63.7891L347.062 63.2969C347.016 62.9688 346.805 62.7578 346.43 62.6641L341.789 62.0312C341.742 62.0312 341.695 62.0547 341.648 62.1016C341.695 62.4297 341.625 62.7109 341.438 62.9453C341.25 63.1328 340.992 63.25 340.664 63.2969L332.438 63.9297C332.062 63.9766 331.898 64.1641 331.945 64.4922C331.945 65.1016 332.062 65.5 332.297 65.6875C332.578 65.875 333.094 65.9688 333.844 65.9688H338.977C339.633 65.9688 340.078 65.8047 340.312 65.4766C340.922 64.6797 341.555 64.4219 342.211 64.7031C342.633 64.8438 343.102 64.9844 343.617 65.125C344.461 65.4062 345.094 65.9219 345.516 66.6719C345.984 67.375 346.008 68.0547 345.586 68.7109C344.695 70.1641 342.797 70.8906 339.891 70.8906H332.789C329.789 70.8906 327.727 70.4922 326.602 69.6953C325.523 68.8984 324.938 67.375 324.844 65.125C324.797 64.7969 324.609 64.6562 324.281 64.7031L322.875 64.7734C322.172 64.8672 321.539 64.6797 320.977 64.2109C320.414 63.7422 320.086 63.1562 319.992 62.4531C319.898 61.75 320.062 61.1406 320.484 60.625C320.953 60.0625 321.539 59.7578 322.242 59.7109L324.281 59.5C324.609 59.4531 324.773 59.2656 324.773 58.9375V57.0391C324.773 56.7109 324.609 56.5469 324.281 56.5469H319.852C319.477 56.5469 319.289 56.7109 319.289 57.0391V69.4141V71.6641C319.289 72.0391 319.477 72.2266 319.852 72.2266H346.148C346.945 72.2266 347.625 72.5312 348.188 73.1406C348.797 73.7031 349.102 74.4062 349.102 75.25C349.102 76.0469 348.797 76.75 348.188 77.3594C347.625 77.9219 346.945 78.2031 346.148 78.2031H322.453C321.562 78.2031 320.789 77.8984 320.133 77.2891C319.523 76.6328 319.219 75.8594 319.219 74.9688C318.891 86.4531 317.508 95.6406 315.07 102.531C314.742 103.469 314.086 104.031 313.102 104.219C312.867 104.266 312.633 104.289 312.398 104.289C311.695 104.289 311.039 104.031 310.43 103.516C310.289 103.375 310.148 103.258 310.008 103.164C309.07 102.414 308.414 101.477 308.039 100.352C307.852 99.7422 307.758 99.1562 307.758 98.5938C307.758 98.0312 307.852 97.4688 308.039 96.9062C309.961 90.6719 310.922 81.5078 310.922 69.4141V54.1562C310.922 53.0312 311.32 52.0703 312.117 51.2734C312.914 50.4297 313.898 50.0078 315.07 50.0078H323.438C323.812 50.0078 324 49.8438 324 49.5156V42.5547C324 41.4297 324.398 40.4688 325.195 39.6719C326.039 38.8281 327.023 38.4062 328.148 38.4062H330.82C331.617 38.4062 332.273 38.6875 332.789 39.25C333.352 39.8125 333.633 40.4688 333.633 41.2188C333.633 41.5 333.75 41.6406 333.984 41.6406H345.023C345.914 41.6406 346.664 41.9688 347.273 42.625C347.93 43.2344 348.258 43.9844 348.258 44.875C348.258 45.7656 347.93 46.5391 347.273 47.1953C346.664 47.8047 345.914 48.1094 345.023 48.1094H334.195C333.82 48.1094 333.633 48.2734 333.633 48.6016V49.5156C333.633 49.8438 333.82 50.0078 334.195 50.0078H341.297C344.297 50.0078 346.336 50.1016 347.414 50.2891C348.258 50.4297 348.914 50.8281 349.383 51.4844C349.758 52 349.945 52.5625 349.945 53.1719C349.945 53.3594 349.922 53.5703 349.875 53.8047C349.547 55.3047 349.242 56.6875 348.961 57.9531C348.914 58.0938 348.938 58.2109 349.031 58.3047C349.125 58.3516 349.242 58.375 349.383 58.375L351.914 58.0234C352.242 57.9766 352.406 57.7656 352.406 57.3906C352.125 50.7812 351.984 45.9062 351.984 42.7656C351.984 41.6875 352.359 40.75 353.109 39.9531C353.906 39.1562 354.867 38.7578 355.992 38.7578H357.258C358.43 38.7578 359.414 39.1562 360.211 39.9531C361.055 40.75 361.477 41.7344 361.477 42.9062C361.523 47.1719 361.617 51.5781 361.758 56.125C361.805 56.5 361.992 56.6641 362.32 56.6172L370.336 55.5625C370.57 55.5156 370.781 55.4922 370.969 55.4922C371.859 55.4922 372.68 55.7734 373.43 56.3359C374.32 57.0391 374.836 57.9766 374.977 59.1484L375.117 59.9219C375.117 60.1562 375.117 60.3672 375.117 60.5547C375.117 61.4453 374.836 62.2656 374.273 63.0156C373.57 63.9531 372.656 64.4922 371.531 64.6328L362.812 65.8281C362.484 65.875 362.32 66.0625 362.32 66.3906C362.555 69.4844 362.859 72.7891 363.234 76.3047C363.234 76.3516 363.281 76.3984 363.375 76.4453C363.469 76.4453 363.516 76.4219 363.516 76.375C364.5 74.3125 365.344 72.2734 366.047 70.2578Z" fill="white"/>
<defs>
<filter id="filter0_i_1_896" x="0" y="0" width="468" height="152" filterUnits="userSpaceOnUse" color-interpolation-filters="sRGB">
<feFlood flood-opacity="0" result="BackgroundImageFix"/>
<feBlend mode="normal" in="SourceGraphic" in2="BackgroundImageFix" result="shape"/>
<feColorMatrix in="SourceAlpha" type="matrix" values="0 0 0 0 0 0 0 0 0 0 0 0 0 0 0 0 0 0 127 0" result="hardAlpha"/>
<feOffset dx="-9" dy="-16.2"/>
<feComposite in2="hardAlpha" operator="arithmetic" k2="-1" k3="1"/>
<feColorMatrix type="matrix" values="0 0 0 0 0 0 0 0 0 0 0 0 0 0 0 0 0 0 0.25 0"/>
<feBlend mode="normal" in2="shape" result="effect1_innerShadow_1_896"/>
</filter>
</defs>
</svg>
