<svg width="426" height="96" viewBox="0 0 426 96" fill="none" xmlns="http://www.w3.org/2000/svg">
<rect x="0.77124" width="424.366" height="96" rx="48" fill="#C33E21"/>
<path d="M49.2833 62.6719C49.2529 62.4294 49.2984 62.2172 49.4197 62.0353C49.5713 61.8534 49.7683 61.7473 50.0109 61.717L51.1477 61.5805C51.2387 61.5805 51.3296 61.5805 51.4206 61.5805C51.8753 61.5805 52.2998 61.717 52.6939 61.9898C53.1487 62.3233 53.4215 62.778 53.5125 63.3541C53.7853 65.3247 53.9217 66.7344 53.9217 67.5833C53.9217 68.0987 53.7398 68.5686 53.376 68.993C52.9819 69.4478 52.4817 69.7206 51.8753 69.8116C51.7844 69.8116 51.7086 69.8116 51.648 69.8116C51.1932 69.8116 50.7839 69.66 50.4201 69.3568C49.9957 68.9627 49.7835 68.4776 49.7835 67.9016C49.7228 66.6586 49.6016 65.264 49.4197 63.7179C49.4197 63.6876 49.4045 63.6724 49.3742 63.6724C49.3439 63.6724 49.3287 63.6876 49.3287 63.7179C48.8133 66.2948 48.1767 68.326 47.4188 69.8116C47.1156 70.4179 46.6154 70.812 45.9181 70.9939C45.6755 71.0545 45.4482 71.0849 45.236 71.0849C44.7812 71.0849 44.3416 70.9636 43.9172 70.7211C43.3715 70.4482 43.0228 69.9935 42.8712 69.3568C42.8106 69.1749 42.7803 68.9778 42.7803 68.7656C42.7803 68.3715 42.8864 67.9925 43.0986 67.6287C43.614 66.5677 44.0536 65.4005 44.4174 64.1271C44.6296 63.4299 45.0389 62.8842 45.6452 62.49C46.0394 62.2778 46.4486 62.1717 46.8731 62.1717C47.1156 62.1717 47.343 62.202 47.5552 62.2627L49.1923 62.7629C49.2226 62.7629 49.2378 62.7629 49.2378 62.7629C49.2681 62.7326 49.2833 62.7023 49.2833 62.6719ZM54.4674 63.5814C54.4068 63.3995 54.3765 63.2328 54.3765 63.0812C54.3765 62.7477 54.4674 62.4294 54.6493 62.1262C54.9525 61.6715 55.3618 61.3986 55.8772 61.3077C55.9984 61.3077 56.1349 61.3077 56.2864 61.3077C56.6806 61.3077 57.0595 61.4138 57.4233 61.626C57.9387 61.8989 58.2722 62.3081 58.4238 62.8538C58.7876 64.2181 59.0908 65.5066 59.3333 66.7192C59.3636 66.8708 59.3788 67.0224 59.3788 67.174C59.3788 67.5681 59.2575 67.9471 59.015 68.3109C58.6815 68.7959 58.2267 69.0991 57.6507 69.2204C57.4991 69.2507 57.3627 69.2659 57.2414 69.2659C56.8473 69.2659 56.4835 69.1446 56.15 68.9021C55.6953 68.5686 55.4224 68.129 55.3315 67.5833C55.1192 66.31 54.8312 64.976 54.4674 63.5814ZM78.16 64.0817C78.3723 64.0817 78.4784 63.9756 78.4784 63.7633V55.9416C78.4784 55.7294 78.3723 55.6233 78.16 55.6233H71.8845C71.6722 55.6233 71.5661 55.7294 71.5661 55.9416V63.7633C71.5661 63.9756 71.6722 64.0817 71.8845 64.0817H78.16ZM48.874 37.2967C48.8437 37.2664 48.8133 37.2513 48.783 37.2513C48.783 37.2513 48.783 37.2664 48.783 37.2967V42.4809C48.783 42.6931 48.8891 42.7992 49.1014 42.7992H51.648C51.8905 42.7992 52.0118 42.6931 52.0118 42.4809V41.1621C52.0118 40.9499 51.9208 40.8741 51.7389 40.9348C51.5267 41.0257 51.3145 41.0712 51.1023 41.0712C50.7688 41.0712 50.4505 40.9651 50.1473 40.7529C49.6622 40.4497 49.3742 39.9949 49.2833 39.3886C49.162 38.7519 49.0256 38.0547 48.874 37.2967ZM52.0118 33.6132C52.0118 33.3707 51.8905 33.2494 51.648 33.2494H49.1014C48.8891 33.2494 48.783 33.3707 48.783 33.6132V34.7047C48.783 34.8562 48.8588 34.9169 49.0104 34.8866C49.2226 34.8259 49.4197 34.7956 49.6016 34.7956C49.9047 34.7956 50.2079 34.8714 50.5111 35.023C50.9962 35.2655 51.2993 35.6445 51.4206 36.1599C51.6328 36.8571 51.7996 37.5393 51.9208 38.2062C51.9208 38.2062 51.936 38.2062 51.9663 38.2062C51.9966 38.2062 52.0118 38.2062 52.0118 38.2062V33.6132ZM59.015 34.932C59.1665 34.9623 59.2423 34.9017 59.2423 34.7501V33.6132C59.2423 33.3707 59.1362 33.2494 58.924 33.2494H56.2864C56.0742 33.2494 55.9681 33.3707 55.9681 33.6132V38.7519C55.9681 38.7823 55.9833 38.7974 56.0136 38.7974C56.0439 38.7974 56.0591 38.7823 56.0591 38.7519C56.3319 37.9031 56.5593 37.0542 56.7412 36.2053C56.8625 35.6899 57.1505 35.311 57.6052 35.0685C57.8781 34.8866 58.1661 34.7956 58.4693 34.7956C58.6512 34.7956 58.8331 34.8411 59.015 34.932ZM55.9681 42.4809C55.9681 42.6931 56.0742 42.7992 56.2864 42.7992H58.924C59.1362 42.7992 59.2423 42.6931 59.2423 42.4809V38.4336C59.2423 38.4033 59.2272 38.3881 59.1969 38.3881C59.1665 38.3881 59.1362 38.4033 59.1059 38.4336C59.0756 38.5246 58.8634 39.0703 58.4693 40.0707C58.2874 40.5255 57.969 40.8438 57.5143 41.0257C57.0595 41.2076 56.6048 41.2076 56.15 41.0257C56.0288 40.9651 55.9681 41.0106 55.9681 41.1621V42.4809ZM86.3911 40.5255C86.3911 41.2531 86.1334 41.8897 85.618 42.4354C85.1026 42.9508 84.466 43.2085 83.708 43.2085H78.2055C77.9933 43.2085 77.8872 43.3146 77.8872 43.5269V49.1658C77.8872 49.4083 77.9933 49.5296 78.2055 49.5296H82.2528C82.9804 49.5296 83.6019 49.7873 84.1173 50.3027C84.663 50.8181 84.9359 51.4547 84.9359 52.2126V68.9021C84.9359 69.66 84.663 70.2966 84.1173 70.812C83.6019 71.3274 82.9804 71.5851 82.2528 71.5851H79.7517C79.3879 71.5851 79.0847 71.4638 78.8422 71.2213C78.5996 70.9788 78.4784 70.6907 78.4784 70.3573C78.4784 70.236 78.4329 70.1754 78.3419 70.1754H71.748C71.6268 70.1754 71.5661 70.236 71.5661 70.3573C71.5661 70.7514 71.4297 71.0849 71.1569 71.3577C70.884 71.6306 70.5505 71.767 70.1564 71.767H68.1555C67.3976 71.767 66.7609 71.5093 66.2455 70.9939C65.7301 70.4785 65.4724 69.8419 65.4724 69.084V67.9016C65.4724 67.8106 65.427 67.7349 65.336 67.6742C65.2754 67.6439 65.2148 67.6439 65.1541 67.6742L64.1082 68.0835C63.8353 68.2048 63.5473 68.2654 63.2442 68.2654C62.8804 68.2654 62.5317 68.1744 62.1982 67.9925C61.5616 67.6894 61.122 67.2043 60.8794 66.5373C60.546 65.6278 60.167 64.7183 59.7426 63.8088C59.5607 63.445 59.4697 63.0812 59.4697 62.7174C59.4697 62.4446 59.5303 62.1566 59.6516 61.8534C59.9245 61.1864 60.3792 60.7317 61.0159 60.4891L62.0618 60.1253C62.0921 60.095 62.0921 60.0647 62.0618 60.0344C62.0618 60.0041 62.0618 60.0041 62.0618 60.0344C54.907 60.3679 49.4652 60.5952 45.7362 60.7165C45.7059 60.7165 45.6604 60.7165 45.5998 60.7165C44.9328 60.7165 44.3416 60.4891 43.8262 60.0344C43.2805 59.519 42.9925 58.8975 42.9622 58.1699V57.897C42.9319 57.1391 43.1744 56.5025 43.6898 55.9871C44.2052 55.4414 44.8267 55.1685 45.5543 55.1685C47.0095 55.1382 48.7224 55.1079 50.693 55.0776C50.9052 55.0776 51.0113 54.9563 51.0113 54.7138V53.9407C51.0113 53.7285 50.9052 53.6224 50.693 53.6224H46.6457C45.9484 53.6224 45.3572 53.3798 44.8722 52.8948C44.3871 52.4097 44.1445 51.8185 44.1445 51.1212C44.1445 50.4239 44.3871 49.8328 44.8722 49.3477C45.3572 48.8323 45.9484 48.5746 46.6457 48.5746H50.693C50.9052 48.5746 51.0113 48.4685 51.0113 48.2563V47.5742C51.0113 47.3619 50.9052 47.2558 50.693 47.2558H46.5093C45.7817 47.2558 45.145 46.9981 44.5993 46.4827C44.0839 45.937 43.8262 45.3004 43.8262 44.5728V31.5214C43.8262 30.7938 44.0839 30.1723 44.5993 29.6569C45.145 29.1112 45.7817 28.8383 46.5093 28.8383H61.7435C62.4711 28.8383 63.0926 29.1112 63.608 29.6569C64.1537 30.1723 64.4265 30.7938 64.4265 31.5214V44.5728C64.4265 45.3004 64.1537 45.937 63.608 46.4827C63.0926 46.9981 62.4711 47.2558 61.7435 47.2558H57.2869C57.0444 47.2558 56.9231 47.3619 56.9231 47.5742V48.2563C56.9231 48.4685 57.0444 48.5746 57.2869 48.5746H61.5616C62.2285 48.5746 62.8046 48.8323 63.2896 49.3477C63.805 49.8328 64.0627 50.4239 64.0627 51.1212C64.0627 51.8185 63.805 52.4097 63.2896 52.8948C62.8046 53.3798 62.2285 53.6224 61.5616 53.6224H57.2869C57.0444 53.6224 56.9231 53.7285 56.9231 53.9407V54.5319C56.9231 54.7744 57.0444 54.8805 57.2869 54.8502C58.6815 54.8502 60.3337 54.8047 62.2437 54.7138C62.274 54.7138 62.3043 54.7138 62.3347 54.7138C63.0016 54.7138 63.5776 54.9563 64.0627 55.4414C64.5478 55.9264 64.7903 56.5328 64.7903 57.2604L64.7448 57.8516C64.7448 58.4276 64.5478 58.9278 64.1537 59.3522C63.7595 59.7464 63.2896 59.9586 62.7439 59.9889C62.6833 59.9889 62.6378 60.0192 62.6075 60.0798C62.5772 60.1405 62.5772 60.186 62.6075 60.2163C63.7595 62.0353 64.6691 63.8998 65.336 65.8097C65.336 65.84 65.3512 65.8552 65.3815 65.8552C65.4421 65.8552 65.4724 65.84 65.4724 65.8097V52.2126C65.4724 51.4547 65.7301 50.8181 66.2455 50.3027C66.7609 49.7873 67.3976 49.5296 68.1555 49.5296H70.975C71.2175 49.5296 71.3388 49.4083 71.3388 49.1658V30.339C71.3388 29.5811 71.5965 28.9444 72.1118 28.4291C72.6272 27.9137 73.2639 27.656 74.0218 27.656H75.2042C75.9318 27.656 76.5533 27.9137 77.0686 28.4291C77.6143 28.9444 77.8872 29.5811 77.8872 30.339V36.6146C77.8872 36.8268 77.9933 36.9329 78.2055 36.9329H83.708C84.466 36.9329 85.1026 37.2058 85.618 37.7515C86.1334 38.2669 86.3911 38.8884 86.3911 39.616V40.5255ZM130.639 34.0225C131.002 34.4773 131.184 34.9775 131.184 35.5232C131.184 35.6748 131.169 35.8264 131.139 35.978C130.987 36.7056 130.593 37.2967 129.956 37.7515L128.956 38.4336C128.501 38.7368 128.031 38.8884 127.546 38.8884C127.364 38.8884 127.182 38.8581 127 38.7974C126.303 38.6458 125.742 38.282 125.318 37.706C124.499 36.5843 123.514 35.4171 122.362 34.2044C121.938 33.78 121.725 33.2646 121.725 32.6583C121.725 31.87 122.044 31.2637 122.68 30.8393L123.317 30.3845C123.893 29.9904 124.53 29.7933 125.227 29.7933C125.318 29.7933 125.394 29.7933 125.454 29.7933C126.273 29.854 126.955 30.1571 127.501 30.7028C128.713 31.8852 129.759 32.9917 130.639 34.0225ZM123.726 50.4391C124.151 49.7721 124.727 49.3325 125.454 49.1203C125.757 48.999 126.076 48.9384 126.409 48.9384C126.803 48.9384 127.198 49.0142 127.592 49.1658L128.592 49.6205C129.259 49.8934 129.699 50.3785 129.911 51.0757C130.002 51.3183 130.047 51.5608 130.047 51.8034C130.047 52.1975 129.926 52.5916 129.684 52.9857C128.016 55.5626 126.03 58.0335 123.726 60.3982C123.544 60.5801 123.499 60.7771 123.59 60.9894C124.59 63.7482 125.56 65.1276 126.5 65.1276C127.167 65.1276 127.622 63.536 127.865 60.3527C127.925 59.8373 128.198 59.4887 128.683 59.3068C129.168 59.0946 129.608 59.14 130.002 59.4432C130.396 59.7464 130.79 60.0344 131.184 60.3072C131.881 60.762 132.412 61.338 132.776 62.0353C133.049 62.5507 133.185 63.0812 133.185 63.6269C133.185 63.8391 133.17 64.0362 133.14 64.2181C132.594 67.2498 131.775 69.2962 130.684 70.3573C129.593 71.4487 127.971 71.9944 125.818 71.9944C122.847 71.9944 120.316 69.9025 118.224 65.7188C118.133 65.5066 117.996 65.4611 117.814 65.5824C116.147 66.8557 114.374 68.038 112.494 69.1294C112.039 69.4023 111.584 69.5387 111.13 69.5387C110.887 69.5387 110.645 69.5084 110.402 69.4478C109.705 69.2659 109.114 68.8717 108.628 68.2654C108.265 67.8106 107.886 67.3559 107.492 66.9011C107.158 66.507 106.991 66.0674 106.991 65.5824C106.991 65.4611 107.007 65.3398 107.037 65.2186C107.158 64.5819 107.492 64.112 108.037 63.8088C110.705 62.4446 113.206 60.8681 115.541 59.0794C115.723 58.9581 115.783 58.7762 115.723 58.5337C114.813 55.1685 114.101 51.4092 113.585 47.2558C113.555 47.0133 113.434 46.892 113.221 46.892H105.127C104.915 46.892 104.809 47.0133 104.809 47.2558V50.7119C104.809 50.9545 104.915 51.0454 105.127 50.9848L108.856 50.3936C109.007 50.3936 109.144 50.3936 109.265 50.3936C109.811 50.3936 110.311 50.5604 110.766 50.8938C111.342 51.3486 111.66 51.9398 111.721 52.6674L111.766 53.4405C111.766 53.5314 111.766 53.6224 111.766 53.7133C111.766 54.3803 111.569 54.9866 111.175 55.5323C110.69 56.1387 110.084 56.5025 109.356 56.6237C107.082 57.0785 105.673 57.3513 105.127 57.4423C104.915 57.5029 104.809 57.6393 104.809 57.8516V64.1271C104.809 65.9158 104.596 67.2801 104.172 68.2199C103.778 69.1901 103.065 69.948 102.035 70.4937C100.67 71.191 98.6391 71.6003 95.9409 71.7215C95.8802 71.7215 95.8348 71.7215 95.8045 71.7215C95.1072 71.7215 94.4705 71.4941 93.8945 71.0394C93.2882 70.5543 92.8637 69.9328 92.6212 69.1749C92.4393 68.5989 92.2271 68.0077 91.9845 67.4014C91.8936 67.1588 91.8481 66.9315 91.8481 66.7192C91.8481 66.3858 91.9542 66.0674 92.1664 65.7643C92.4696 65.2792 92.9244 65.0367 93.5307 65.0367C93.5307 65.0367 93.5458 65.0367 93.5762 65.0367C94.2431 65.0367 94.8343 65.0367 95.3497 65.0367C95.9864 65.0367 96.4866 65.0367 96.8504 65.0367C97.2748 65.0367 97.5628 64.976 97.7144 64.8548C97.866 64.7032 97.9418 64.4303 97.9418 64.0362V59.1703C97.9418 58.9581 97.8357 58.8672 97.6235 58.8975L92.985 59.7615C92.8031 59.7918 92.6363 59.807 92.4848 59.807C91.9391 59.807 91.4237 59.6554 90.9386 59.3522C90.3323 58.9278 89.9381 58.3518 89.7562 57.6242L89.3924 55.9871C89.3318 55.8052 89.3015 55.6081 89.3015 55.3959C89.3015 54.9411 89.4531 54.5015 89.7562 54.0771C90.1807 53.4708 90.7415 53.1221 91.4388 53.0312C93.7126 52.728 95.7741 52.4248 97.6235 52.1217C97.8357 52.0914 97.9418 51.9701 97.9418 51.7579V47.2558C97.9418 47.0133 97.8357 46.892 97.6235 46.892H92.4393C91.7117 46.892 91.075 46.6343 90.5293 46.1189C90.0139 45.6036 89.7562 44.9669 89.7562 44.209V43.2085C89.7562 42.4809 90.0139 41.8594 90.5293 41.344C91.075 40.7983 91.7117 40.5255 92.4393 40.5255H97.6235C97.8357 40.5255 97.9418 40.4194 97.9418 40.2072V36.751C97.9418 36.5085 97.8357 36.4024 97.6235 36.4327C96.2592 36.6146 95.0011 36.7814 93.849 36.9329C93.7277 36.9329 93.6065 36.9329 93.4852 36.9329C92.8789 36.9329 92.3029 36.751 91.7572 36.3872C91.1508 35.9325 90.7264 35.3261 90.4838 34.5682C90.4232 34.3863 90.3474 34.1893 90.2565 33.977C90.1655 33.7345 90.12 33.4768 90.12 33.204C90.12 32.8402 90.2262 32.4915 90.4384 32.158C90.7719 31.582 91.2569 31.2485 91.8936 31.1576C96.8959 30.43 101.368 29.5356 105.309 28.4745C105.673 28.3836 106.036 28.3381 106.4 28.3381C106.825 28.3381 107.234 28.3987 107.628 28.52C108.416 28.7625 109.053 29.2021 109.538 29.8388L110.766 31.385C111.039 31.7184 111.175 32.0822 111.175 32.4764C111.175 32.6583 111.145 32.8553 111.084 33.0675C110.872 33.6739 110.463 34.0528 109.856 34.2044C108.522 34.5076 106.946 34.8411 105.127 35.2049C104.915 35.2352 104.809 35.3716 104.809 35.6142V40.2072C104.809 40.4194 104.915 40.5255 105.127 40.5255H112.63C112.843 40.5255 112.933 40.4194 112.903 40.2072C112.6 36.1447 112.448 32.9311 112.448 30.5664C112.448 29.8691 112.706 29.2628 113.221 28.7474C113.737 28.232 114.374 27.9743 115.131 27.9743H116.814C117.572 27.9743 118.209 28.232 118.724 28.7474C119.239 29.2628 119.497 29.8994 119.497 30.6574C119.497 33.78 119.618 36.9633 119.861 40.2072C119.891 40.4194 120.012 40.5255 120.225 40.5255H129.456C130.184 40.5255 130.805 40.7983 131.321 41.344C131.866 41.8594 132.139 42.4809 132.139 43.2085V44.209C132.139 44.9669 131.866 45.6036 131.321 46.1189C130.805 46.6343 130.184 46.892 129.456 46.892H120.861C120.649 46.892 120.558 47.0133 120.588 47.2558C120.952 49.6812 121.271 51.5608 121.543 52.8948C121.543 52.9857 121.574 53.0463 121.634 53.0767C121.725 53.0767 121.786 53.0463 121.816 52.9857C122.514 52.1368 123.15 51.288 123.726 50.4391ZM173.158 28.7019C173.916 28.7019 174.552 28.9748 175.068 29.5205C175.583 30.0359 175.841 30.6574 175.841 31.385V42.2081C175.841 42.966 175.583 43.6026 175.068 44.118C174.552 44.6334 173.916 44.8911 173.158 44.8911H154.74C154.073 44.8911 153.497 44.6637 153.012 44.209C152.527 43.7239 152.285 43.1479 152.285 42.4809C152.285 41.814 152.527 41.2531 153.012 40.7983C153.497 40.3133 154.073 40.0707 154.74 40.0707H169.292C169.505 40.0707 169.611 39.9495 169.611 39.7069V39.2977C169.611 39.0551 169.505 38.9339 169.292 38.9339H155.923C155.347 38.9339 154.847 38.7368 154.422 38.3427C153.998 37.9182 153.785 37.418 153.785 36.842C153.785 36.2357 153.998 35.7203 154.422 35.2958C154.847 34.8714 155.347 34.6592 155.923 34.6592H169.292C169.505 34.6592 169.611 34.5531 169.611 34.3408V33.8406C169.611 33.6284 169.505 33.5223 169.292 33.5223H155.195C154.528 33.5223 153.967 33.2949 153.513 32.8402C153.058 32.3551 152.83 31.7791 152.83 31.1121C152.83 30.4451 153.058 29.8843 153.513 29.4295C153.967 28.9444 154.528 28.7019 155.195 28.7019H173.158ZM167.246 59.0339C167.034 59.0339 166.928 59.14 166.928 59.3522V63.6269C166.928 63.8391 167.034 63.9604 167.246 63.9907C167.913 63.9907 168.686 63.9907 169.565 63.9907C169.778 63.9907 169.929 63.9604 170.02 63.8998C170.111 63.8391 170.157 63.7027 170.157 63.4905V59.3522C170.157 59.14 170.035 59.0339 169.793 59.0339H167.246ZM155.377 53.6678C155.377 53.8801 155.483 53.9862 155.695 53.9862H160.607C160.849 53.9862 160.971 53.8801 160.971 53.6678V51.8488C160.971 51.6366 160.849 51.5305 160.607 51.5305H155.695C155.483 51.5305 155.377 51.6366 155.377 51.8488V53.6678ZM172.248 53.9862C172.491 53.9862 172.612 53.8801 172.612 53.6678V51.8488C172.612 51.6366 172.491 51.5305 172.248 51.5305H167.246C167.034 51.5305 166.928 51.6366 166.928 51.8488V53.6678C166.928 53.8801 167.034 53.9862 167.246 53.9862H172.248ZM175.977 46.2554C176.705 46.2554 177.326 46.5282 177.842 47.0739C178.388 47.5893 178.66 48.2108 178.66 48.9384V53.8043C178.66 54.4712 178.418 55.0473 177.933 55.5323C177.448 56.0174 176.857 56.2599 176.159 56.2599C175.947 56.2599 175.841 56.366 175.841 56.5783V63.5814C175.841 64.8851 175.72 65.9007 175.477 66.6283C175.235 67.3559 174.75 67.9168 174.022 68.3109C173.234 68.7656 172.218 69.0536 170.975 69.1749C170.884 69.1749 170.808 69.1749 170.748 69.1749C170.081 69.1749 169.49 68.9475 168.974 68.4928C168.368 68.0077 167.959 67.3711 167.746 66.5828C167.534 65.8552 167.307 65.1579 167.064 64.491C167.034 64.4606 167.004 64.4606 166.973 64.491C166.943 64.491 166.928 64.5061 166.928 64.5364V69.1294C166.928 69.8873 166.655 70.524 166.109 71.0394C165.594 71.5548 164.972 71.8125 164.245 71.8125H163.654C162.896 71.8125 162.259 71.5548 161.744 71.0394C161.228 70.524 160.971 69.8873 160.971 69.1294V59.3522C160.971 59.14 160.849 59.0339 160.607 59.0339H158.879C158.666 59.0339 158.56 59.14 158.56 59.3522V66.219C158.56 66.9466 158.287 67.5681 157.742 68.0835C157.226 68.6292 156.605 68.9021 155.877 68.9021H155.332C154.574 68.9021 153.937 68.6292 153.422 68.0835C152.906 67.5681 152.649 66.9466 152.649 66.219V56.6237C152.649 56.3812 152.527 56.2599 152.285 56.2599H152.103C151.406 56.2599 150.814 56.0174 150.329 55.5323C149.844 55.0473 149.602 54.4561 149.602 53.7588C149.602 53.6678 149.571 53.6072 149.511 53.5769C149.45 53.5163 149.374 53.5011 149.283 53.5314L146.646 54.259C146.434 54.3196 146.327 54.4712 146.327 54.7138V64.9002C146.327 66.4161 146.176 67.6136 145.873 68.4928C145.57 69.372 145.039 70.0692 144.281 70.5846C143.311 71.2213 141.947 71.6154 140.188 71.767C140.097 71.7973 140.006 71.8125 139.915 71.8125C139.279 71.8125 138.703 71.5851 138.187 71.1303C137.611 70.6453 137.217 70.0086 137.005 69.2204C136.914 68.8566 136.823 68.4928 136.732 68.129C136.611 67.7349 136.611 67.3559 136.732 66.9921C136.853 66.598 137.066 66.2796 137.369 66.0371C137.702 65.7946 138.081 65.6733 138.506 65.6733C138.9 65.6733 139.203 65.6581 139.415 65.6278C139.688 65.6278 139.87 65.5824 139.961 65.4914C140.082 65.3701 140.143 65.1731 140.143 64.9002V56.4418C140.143 56.3509 140.113 56.2751 140.052 56.2145C139.991 56.1538 139.915 56.1387 139.825 56.169L138.96 56.3964C138.748 56.457 138.521 56.4873 138.278 56.4873C137.824 56.4873 137.384 56.3509 136.96 56.078C136.353 55.7142 135.974 55.1685 135.823 54.4409L135.55 53.2131C135.489 53.0009 135.459 52.8038 135.459 52.6219C135.459 52.1368 135.61 51.6669 135.914 51.2122C136.308 50.6058 136.869 50.2269 137.596 50.0753C138.354 49.8934 139.097 49.7266 139.825 49.5751C140.037 49.5144 140.143 49.3628 140.143 49.1203V42.6628C140.143 42.4203 140.037 42.299 139.825 42.299H138.46C137.702 42.299 137.066 42.0413 136.55 41.5259C136.035 41.0106 135.777 40.3739 135.777 39.616V38.7974C135.777 38.0395 136.035 37.4028 136.55 36.8875C137.066 36.3721 137.702 36.1144 138.46 36.1144H139.825C140.037 36.1144 140.143 35.9931 140.143 35.7506V30.339C140.143 29.5811 140.401 28.9444 140.916 28.4291C141.462 27.9137 142.098 27.656 142.826 27.656H143.644C144.402 27.656 145.039 27.9137 145.554 28.4291C146.07 28.9444 146.327 29.5811 146.327 30.339V35.7506C146.327 35.9931 146.449 36.1144 146.691 36.1144H147.783C148.541 36.1144 149.177 36.3721 149.693 36.8875C150.208 37.4028 150.466 38.0395 150.466 38.7974V39.616C150.466 40.3739 150.208 41.0106 149.693 41.5259C149.177 42.0413 148.541 42.299 147.783 42.299H146.691C146.449 42.299 146.327 42.4203 146.327 42.6628V47.6196C146.327 47.7106 146.358 47.7864 146.418 47.847C146.509 47.9076 146.6 47.9228 146.691 47.8925L147.192 47.7561C147.373 47.7257 147.54 47.7106 147.692 47.7106C148.056 47.7106 148.404 47.8167 148.738 48.0289C149.223 48.3321 149.496 48.7717 149.556 49.3477C149.556 49.3477 149.571 49.3477 149.602 49.3477V48.9384C149.602 48.2108 149.859 47.5893 150.375 47.0739C150.92 46.5282 151.557 46.2554 152.285 46.2554H175.977ZM202.353 49.9843C202.353 53.5617 203.005 56.3509 204.308 58.3518C205.612 60.3527 207.401 61.3532 209.675 61.3532C211.979 61.3532 213.782 60.3527 215.086 58.3518C216.42 56.3509 217.087 53.5617 217.087 49.9843C217.087 46.6495 216.42 44.0422 215.086 42.1626C213.782 40.2829 211.979 39.3431 209.675 39.3431C207.401 39.3431 205.612 40.2829 204.308 42.1626C203.005 44.0422 202.353 46.6495 202.353 49.9843ZM223.454 70.6301C223.605 70.6301 223.742 70.6301 223.863 70.6301C224.469 70.6301 225.03 70.7817 225.545 71.0849C226.152 71.4487 226.546 71.9792 226.728 72.6765L226.91 73.4951C226.97 73.7679 227.001 74.0256 227.001 74.2681C227.001 74.7835 226.879 75.2534 226.637 75.6779C226.273 76.3752 225.727 76.7996 225 76.9512C223.848 77.1634 222.589 77.2695 221.225 77.2695C217.678 77.2695 214.601 76.4358 211.994 74.7684C209.387 73.1313 207.416 70.903 206.082 68.0835C205.961 67.8713 205.794 67.75 205.582 67.7197C201.944 66.8102 199.064 64.8244 196.941 61.7624C194.85 58.6701 193.804 54.7441 193.804 49.9843C193.804 44.406 195.244 40.0556 198.124 36.9329C201.034 33.78 204.884 32.2035 209.675 32.2035C214.495 32.2035 218.345 33.78 221.225 36.9329C224.136 40.0556 225.591 44.406 225.591 49.9843C225.591 54.4712 224.651 58.2305 222.771 61.2622C220.892 64.2636 218.3 66.2948 214.995 67.3559C214.783 67.4165 214.737 67.5378 214.859 67.7197C215.647 68.7505 216.693 69.5084 217.996 69.9935C219.3 70.4785 220.695 70.7211 222.18 70.7211C222.605 70.7211 223.029 70.6907 223.454 70.6301ZM240.643 39.3431C240.401 39.3431 240.279 39.4492 240.279 39.6615V48.3018C240.279 48.514 240.401 48.6201 240.643 48.6201H244.008C246.009 48.6201 247.51 48.2108 248.51 47.3922C249.541 46.5434 250.057 45.3004 250.057 43.6633C250.057 42.0868 249.556 40.9802 248.556 40.3436C247.586 39.6766 246.07 39.3431 244.008 39.3431H240.643ZM258.697 65.0821C258.818 65.3247 258.879 65.5824 258.879 65.8552C258.879 66.0977 258.803 66.3554 258.651 66.6283C258.348 67.1437 257.909 67.4014 257.333 67.4014H253.376C252.558 67.4014 251.785 67.1891 251.057 66.7647C250.36 66.3403 249.814 65.7643 249.42 65.0367L244.463 55.4868C244.342 55.3049 244.175 55.214 243.963 55.214H240.643C240.401 55.214 240.279 55.3201 240.279 55.5323V64.7183C240.279 65.4459 240.022 66.0826 239.506 66.6283C238.991 67.1437 238.354 67.4014 237.596 67.4014H234.64C233.913 67.4014 233.276 67.1437 232.73 66.6283C232.215 66.0826 231.957 65.4459 231.957 64.7183V35.4323C231.957 34.7047 232.215 34.0832 232.73 33.5678C233.276 33.0221 233.913 32.7492 234.64 32.7492H244.69C253.725 32.7492 258.242 36.3872 258.242 43.6633C258.242 48.3321 256.347 51.6214 252.558 53.5314C252.376 53.6224 252.33 53.7588 252.421 53.9407L258.697 65.0821ZM286.573 68.038C282.723 68.038 279.555 66.795 277.069 64.309C274.613 61.8231 273.385 58.4427 273.385 54.1681C273.385 51.3486 274.037 48.8626 275.341 46.7101C276.644 44.5576 278.342 42.9508 280.434 41.8897C282.526 40.7983 284.815 40.2526 287.301 40.2526C289.332 40.2526 291.181 40.6922 292.849 41.5714C293.485 41.9352 293.864 42.4809 293.986 43.2085C294.016 43.3601 294.031 43.5117 294.031 43.6633C294.031 44.2393 293.834 44.7698 293.44 45.2549L292.758 46.2554C292.242 46.9527 291.469 47.3013 290.439 47.3013C289.954 47.3013 289.423 47.2255 288.847 47.0739C288.513 46.983 288.15 46.9375 287.756 46.9375C285.967 46.9375 284.527 47.5893 283.435 48.8929C282.374 50.1966 281.844 51.9549 281.844 54.1681C281.844 56.3206 282.374 58.0638 283.435 59.3977C284.496 60.7013 285.846 61.3532 287.483 61.3532C288.241 61.3532 289.014 61.1864 289.802 60.8529C290.226 60.671 290.666 60.5801 291.121 60.5801C291.363 60.5801 291.606 60.6104 291.848 60.671C292.576 60.8226 293.106 61.2016 293.44 61.8079L293.94 62.6265C294.213 63.1115 294.349 63.6118 294.349 64.1271C294.349 64.3394 294.334 64.5516 294.304 64.7638C294.152 65.552 293.743 66.1129 293.076 66.4464C291.106 67.5075 288.938 68.038 286.573 68.038ZM311.357 68.038C309.659 68.038 308.022 67.7197 306.446 67.083C304.9 66.4464 303.52 65.552 302.308 64.4C301.095 63.248 300.125 61.7928 299.397 60.0344C298.7 58.2457 298.351 56.2902 298.351 54.1681C298.351 52.0459 298.7 50.0904 299.397 48.3018C300.125 46.5131 301.095 45.0427 302.308 43.8907C303.52 42.7386 304.9 41.8443 306.446 41.2076C308.022 40.571 309.659 40.2526 311.357 40.2526C313.025 40.2526 314.631 40.571 316.178 41.2076C317.724 41.8443 319.103 42.7386 320.316 43.8907C321.529 45.0427 322.484 46.5131 323.181 48.3018C323.908 50.0904 324.272 52.0459 324.272 54.1681C324.272 56.2902 323.908 58.2457 323.181 60.0344C322.484 61.7928 321.529 63.248 320.316 64.4C319.103 65.552 317.724 66.4464 316.178 67.083C314.631 67.7197 313.025 68.038 311.357 68.038ZM311.357 61.3532C312.843 61.3532 313.949 60.7317 314.677 59.4887C315.435 58.2154 315.814 56.4418 315.814 54.1681C315.814 51.8943 315.435 50.1208 314.677 48.8475C313.949 47.5742 312.843 46.9375 311.357 46.9375C309.841 46.9375 308.705 47.5742 307.947 48.8475C307.189 50.1208 306.81 51.8943 306.81 54.1681C306.81 56.4418 307.189 58.2154 307.947 59.4887C308.705 60.7317 309.841 61.3532 311.357 61.3532ZM339.006 68.038C335.671 68.038 333.019 66.8102 331.048 64.3545C329.108 61.8685 328.138 58.4731 328.138 54.1681C328.138 52.0762 328.441 50.1359 329.047 48.3472C329.684 46.5585 330.517 45.0882 331.548 43.9361C332.579 42.7841 333.746 41.8897 335.05 41.2531C336.353 40.5861 337.703 40.2526 339.097 40.2526C340.401 40.2526 341.522 40.4649 342.462 40.8893C343.402 41.3137 344.327 41.9352 345.236 42.7538C345.267 42.8144 345.312 42.8296 345.373 42.7992C345.433 42.7689 345.448 42.7235 345.418 42.6628L345.145 39.0248V32.8856C345.145 32.1277 345.403 31.4911 345.918 30.9757C346.434 30.4603 347.07 30.2026 347.828 30.2026H350.784C351.542 30.2026 352.179 30.4603 352.694 30.9757C353.21 31.4911 353.467 32.1277 353.467 32.8856V64.7183C353.467 65.4459 353.21 66.0826 352.694 66.6283C352.179 67.1437 351.542 67.4014 350.784 67.4014H349.056C348.359 67.4014 347.737 67.1891 347.192 66.7647C346.676 66.3403 346.343 65.7946 346.191 65.1276L346.146 64.9457C346.115 64.8851 346.07 64.8548 346.009 64.8548C345.949 64.8548 345.903 64.8699 345.873 64.9002C344.903 65.8704 343.811 66.6434 342.599 67.2195C341.386 67.7652 340.189 68.038 339.006 68.038ZM341.189 61.2622C342.765 61.2622 344.024 60.6104 344.963 59.3068C345.085 59.1249 345.145 58.9127 345.145 58.6701V48.9384C345.145 48.6959 345.054 48.4988 344.872 48.3472C343.781 47.4377 342.508 46.983 341.053 46.983C339.81 46.983 338.764 47.5893 337.915 48.802C337.066 49.9843 336.641 51.7276 336.641 54.0316C336.641 58.852 338.157 61.2622 341.189 61.2622ZM372.067 68.038C368.156 68.038 364.927 66.795 362.38 64.309C359.864 61.8231 358.606 58.4427 358.606 54.1681C358.606 52.0762 358.955 50.1511 359.652 48.3927C360.38 46.604 361.319 45.1336 362.471 43.9816C363.654 42.7992 364.988 41.8897 366.473 41.2531C367.989 40.5861 369.55 40.2526 371.157 40.2526C374.856 40.2526 377.675 41.435 379.616 43.7997C381.556 46.1644 382.526 49.2567 382.526 53.0767C382.526 53.3495 382.526 53.6375 382.526 53.9407C382.496 54.6986 382.177 55.3353 381.571 55.8506C380.965 56.3357 380.267 56.5783 379.479 56.5783H366.973C366.883 56.5783 366.807 56.6237 366.746 56.7147C366.685 56.7753 366.67 56.8511 366.701 56.9421C367.459 60.1253 369.626 61.717 373.204 61.717C374.295 61.717 375.356 61.5351 376.387 61.1713C376.751 61.05 377.13 60.9894 377.524 60.9894C377.857 60.9894 378.191 61.0348 378.524 61.1258C379.221 61.338 379.752 61.7624 380.116 62.3991L380.252 62.6719C380.525 63.1267 380.662 63.5814 380.662 64.0362C380.662 64.2787 380.616 64.5213 380.525 64.7638C380.343 65.5217 379.919 66.0523 379.252 66.3554C376.887 67.4772 374.492 68.038 372.067 68.038ZM366.519 50.9848C366.519 51.1364 366.625 51.2122 366.837 51.2122H375.159C375.402 51.2122 375.523 51.1061 375.523 50.8938C375.523 50.8635 375.523 50.8484 375.523 50.8484C375.462 49.5447 375.083 48.514 374.386 47.7561C373.719 46.9678 372.703 46.5737 371.339 46.5737C370.157 46.5737 369.141 46.9375 368.292 47.6651C367.11 48.6352 366.519 49.7418 366.519 50.9848Z" fill="white"/>
</svg>
