<svg width="296" height="108" viewBox="0 0 296 108" fill="none" xmlns="http://www.w3.org/2000/svg">
<path d="M0 49.5C0 22.1619 22.0873 0 49.3333 0H246.667C273.913 0 296 22.1619 296 49.5V58.5C296 85.8381 273.913 108 246.667 108H49.3333C22.0873 108 0 85.8381 0 58.5V49.5Z" fill="#1B2E67"/>
<path d="M80.3121 45.8473C80.5643 45.8473 80.6905 45.7207 80.6905 45.4676V44.1861C80.6905 43.9646 80.5643 43.8539 80.3121 43.8539H75.9604C75.7081 43.8539 75.582 43.9646 75.582 44.1861V45.4676C75.582 45.7207 75.7081 45.8473 75.9604 45.8473H80.3121ZM80.3121 53.4885C80.5643 53.4885 80.6905 53.3777 80.6905 53.1563V51.8273C80.6905 51.5742 80.5643 51.4477 80.3121 51.4477H75.9604C75.7081 51.4477 75.582 51.5742 75.582 51.8273V53.1563C75.582 53.3777 75.7081 53.4885 75.9604 53.4885H80.3121ZM80.3121 61.3195C80.5643 61.3195 80.6905 61.2088 80.6905 60.9873V59.516C80.6905 59.2629 80.5643 59.1363 80.3121 59.1363H75.9604C75.7081 59.1363 75.582 59.2629 75.582 59.516V60.9873C75.582 61.2088 75.7081 61.3195 75.9604 61.3195H80.3121ZM71.6087 67.2047C70.8203 67.2047 70.1581 66.9357 69.622 66.3979C69.0859 65.86 68.8179 65.1955 68.8179 64.4045V50.2137C68.8179 50.182 68.7864 50.1662 68.7233 50.1662C68.6918 50.1346 68.6602 50.1346 68.6287 50.1662C68.2503 50.5143 67.8246 50.6883 67.3516 50.6883C67.2885 50.6883 67.2412 50.6883 67.2097 50.6883C66.642 50.625 66.169 50.3719 65.7906 49.9289C65.223 49.2328 64.6081 48.5525 63.9459 47.8881C63.4729 47.3818 63.2364 46.7807 63.2364 46.0846C63.2364 45.2936 63.5202 44.6449 64.0878 44.1387C67.052 41.3227 69.4643 37.9846 71.3249 34.1244C71.6717 33.3967 72.2078 32.8588 72.9331 32.5107C73.3746 32.2893 73.8161 32.1785 74.2575 32.1785C74.5413 32.1785 74.8251 32.226 75.109 32.3209L76.7645 32.7955C77.4898 33.017 78.0101 33.46 78.3254 34.1244C78.4831 34.4408 78.5619 34.773 78.5619 35.1211C78.5619 35.4691 78.4831 35.8014 78.3254 36.1178C78.0732 36.624 77.8209 37.1303 77.5686 37.6365C77.5371 37.6998 77.5371 37.7789 77.5686 37.8738C77.6317 37.9371 77.7105 37.9688 77.8051 37.9688H81.2581C81.4788 37.9688 81.6365 37.858 81.7311 37.6365C82.0465 36.6873 82.346 35.7064 82.6298 34.6939C82.8506 33.9346 83.292 33.3334 83.9543 32.8904C84.4588 32.574 84.9949 32.4158 85.5625 32.4158C85.7202 32.4158 85.8936 32.4316 86.0828 32.4633L88.4006 32.843C89.0628 32.9695 89.5516 33.3492 89.8669 33.982C90.0246 34.2984 90.1034 34.6148 90.1034 34.9313C90.1034 35.216 90.0403 35.5166 89.9142 35.833C89.5673 36.5291 89.252 37.1303 88.9682 37.6365C88.9366 37.6998 88.9366 37.7789 88.9682 37.8738C89.0313 37.9371 89.0943 37.9688 89.1574 37.9688H93.5091C94.2974 37.9688 94.9597 38.2377 95.4957 38.7756C96.0318 39.3135 96.2999 39.9779 96.2999 40.7689V41.0537C96.2999 41.8131 96.0318 42.4775 95.4957 43.0471C94.9597 43.585 94.2974 43.8539 93.5091 43.8539H87.6911C87.4703 43.8539 87.3599 43.9646 87.3599 44.1861V45.4676C87.3599 45.7207 87.4703 45.8473 87.6911 45.8473H92.232C92.9888 45.8473 93.6352 46.1162 94.1713 46.6541C94.7389 47.192 95.0227 47.8564 95.0227 48.6475C95.0227 49.4385 94.7389 50.1029 94.1713 50.6408C93.6352 51.1787 92.9888 51.4477 92.232 51.4477H87.6911C87.4703 51.4477 87.3599 51.5742 87.3599 51.8273V53.1563C87.3599 53.3777 87.4703 53.4885 87.6911 53.4885H91.9955C92.7523 53.4885 93.3987 53.7732 93.9348 54.3428C94.5024 54.8807 94.7862 55.5293 94.7862 56.2887V56.3361C94.7862 57.1271 94.5024 57.7916 93.9348 58.3295C93.3987 58.8674 92.7523 59.1363 91.9955 59.1363H87.6911C87.4703 59.1363 87.3599 59.2629 87.3599 59.516V60.9873C87.3599 61.2088 87.4703 61.3195 87.6911 61.3195H94.4078C95.1646 61.3195 95.8111 61.6043 96.3472 62.1738C96.9148 62.7117 97.1986 63.3604 97.1986 64.1197V64.4045C97.1986 65.1955 96.9148 65.86 96.3472 66.3979C95.8111 66.9357 95.1646 67.2047 94.4078 67.2047H71.6087ZM63.9459 38.0162C64.3874 38.4908 64.6081 39.0445 64.6081 39.6773C64.6081 39.8039 64.5923 39.9146 64.5608 40.0096C64.4662 40.8006 64.1036 41.4334 63.4729 41.908L62.1011 42.9521C61.6281 43.3002 61.1236 43.4742 60.5875 43.4742C60.4298 43.4742 60.2722 43.4584 60.1145 43.4268C59.3892 43.3318 58.7901 42.9838 58.317 42.3826C57.371 41.1803 56.2043 39.8988 54.8168 38.5383C54.3122 38.0637 54.0599 37.4941 54.0599 36.8297C54.0599 36.0387 54.3753 35.4059 55.006 34.9313L55.9047 34.2668C56.5354 33.7922 57.2449 33.5549 58.0332 33.5549C58.0648 33.5549 58.0963 33.5549 58.1278 33.5549C58.9477 33.5865 59.673 33.8713 60.3037 34.4092C61.6912 35.6748 62.9053 36.8771 63.9459 38.0162ZM61.77 50.1662C62.5268 50.1662 63.1733 50.4352 63.7094 50.973C64.277 51.5109 64.5608 52.1754 64.5608 52.9664V65.3537C64.5608 65.6068 64.6081 65.8283 64.7027 66.0182C65.5226 67.3787 66.6578 68.3912 68.1084 69.0557C69.559 69.7201 71.4037 70.0998 73.6426 70.1947C75.5347 70.2896 77.8997 70.3371 80.7378 70.3371C81.7784 70.3371 82.8821 70.3213 84.0489 70.2896C88.4006 70.258 92.3266 70.1314 95.8268 69.91C95.8584 69.91 95.9057 69.91 95.9688 69.91C96.5364 69.91 96.9936 70.1473 97.3405 70.6219C97.5612 70.9383 97.6716 71.2863 97.6716 71.666C97.6716 71.8559 97.6401 72.0615 97.577 72.283C97.3878 72.7893 97.2143 73.3113 97.0567 73.8492C96.8359 74.6402 96.4102 75.2889 95.7795 75.7951C95.1489 76.333 94.4393 76.6178 93.651 76.6494C89.7408 76.8076 86.067 76.8867 82.6298 76.8867C79.3818 76.8867 76.3545 76.8234 73.548 76.6969C70.773 76.5703 68.4553 76.1273 66.5947 75.368C64.7658 74.6402 63.1733 73.4379 61.8173 71.7609C61.6597 71.5711 61.502 71.5711 61.3443 71.7609C60.146 72.9 58.8689 74.0707 57.5129 75.273C57.103 75.6211 56.6615 75.7951 56.1885 75.7951C56.0308 75.7951 55.8574 75.7793 55.6682 75.7477C55.006 75.5895 54.5172 75.1939 54.2018 74.5611L53.3031 72.5678C53.1139 72.1564 53.0193 71.7293 53.0193 71.2863C53.0193 70.9699 53.0666 70.6535 53.1612 70.3371C53.382 69.5777 53.8234 68.9766 54.4857 68.5336C55.4947 67.8691 56.5038 67.1572 57.5129 66.3979C57.7021 66.2713 57.7967 66.0814 57.7967 65.8283V57.0006C57.7967 56.7791 57.6864 56.6684 57.4656 56.6684H55.5736C54.7852 56.6684 54.123 56.3994 53.5869 55.8615C53.0509 55.292 52.7828 54.6275 52.7828 53.8682V52.9664C52.7828 52.1754 53.0509 51.5109 53.5869 50.973C54.123 50.4352 54.7852 50.1662 55.5736 50.1662H61.77Z" fill="white"/>
<path d="M110.727 35.6432C110.727 34.8838 110.995 34.2352 111.531 33.6973C112.098 33.1277 112.761 32.843 113.517 32.843H125.532C126.289 32.843 126.935 33.1119 127.471 33.6498C128.039 34.1877 128.338 34.8521 128.37 35.6432C128.969 50.6092 134.409 61.5885 144.689 68.5811C145.257 68.9607 145.572 69.4986 145.635 70.1947C145.635 70.258 145.635 70.3371 145.635 70.432C145.635 71.0016 145.43 71.5078 145.02 71.9508C144.736 72.2672 144.437 72.5994 144.121 72.9475C143.743 73.3271 143.412 73.7068 143.128 74.0865C142.592 74.6877 141.945 75.0516 141.189 75.1781C140.999 75.2098 140.81 75.2256 140.621 75.2256C140.053 75.2256 139.533 75.0674 139.06 74.751C132.217 69.91 127.314 63.0123 124.349 54.058C124.349 53.9947 124.318 53.9631 124.255 53.9631C124.192 53.9631 124.144 53.9947 124.113 54.058C120.739 63.2021 115.835 70.1156 109.402 74.7984C108.835 75.1781 108.236 75.368 107.605 75.368C107.479 75.368 107.353 75.368 107.226 75.368C106.438 75.273 105.729 74.9408 105.098 74.3713C104.783 74.0549 104.436 73.7227 104.057 73.3746C103.616 72.9949 103.206 72.6469 102.827 72.3305C102.386 71.9508 102.165 71.4762 102.165 70.9066C102.165 70.1789 102.481 69.6252 103.111 69.2455C110.427 64.7209 115.362 57.2695 117.916 46.8914C118.106 46.132 118.531 45.5309 119.194 45.0879C119.667 44.7715 120.171 44.6133 120.707 44.6133C120.896 44.6133 121.086 44.6291 121.275 44.6607L121.701 44.7557C121.764 44.7557 121.827 44.724 121.89 44.6607C121.953 44.5975 121.984 44.5342 121.984 44.4709C121.764 43.2053 121.59 41.8289 121.464 40.3418C121.433 40.1203 121.291 40.0096 121.038 40.0096H113.517C112.761 40.0096 112.098 39.7406 111.531 39.2027C110.995 38.6332 110.727 37.9688 110.727 37.2094V35.6432Z" fill="white"/>
<path d="M172.171 51.9223C172.171 51.6691 172.045 51.5426 171.792 51.5426H170.894C170.641 51.5426 170.515 51.6691 170.515 51.9223C170.263 56.6051 169.459 60.5602 168.103 63.7875C168.008 64.009 168.071 64.1197 168.292 64.1197C168.797 64.183 169.412 64.2146 170.137 64.2146C170.641 64.2146 171.051 63.9773 171.367 63.5027C171.777 62.8383 172.045 58.9781 172.171 51.9223ZM164.934 48.4102V43.6166C164.934 43.3635 164.823 43.2369 164.603 43.2369H164.413C163.625 43.2369 162.963 42.968 162.427 42.4301C161.891 41.8922 161.623 41.2277 161.623 40.4367V40.3418C161.623 39.5508 161.891 38.8863 162.427 38.3484C162.963 37.8105 163.625 37.5416 164.413 37.5416H166.495C166.715 37.5416 166.826 37.415 166.826 37.1619V34.1244C166.826 33.365 167.094 32.7164 167.63 32.1785C168.198 31.609 168.86 31.3242 169.617 31.3242H170.515C171.272 31.3242 171.919 31.609 172.455 32.1785C173.022 32.7164 173.306 33.365 173.306 34.1244V37.1619C173.306 37.415 173.416 37.5416 173.637 37.5416H175.671C176.27 37.5416 176.775 37.7473 177.185 38.1586C177.595 38.5699 177.8 39.0604 177.8 39.6299C177.8 39.6615 177.815 39.6932 177.847 39.7248C177.879 39.7248 177.91 39.709 177.942 39.6773C178.951 37.9371 179.818 35.9596 180.543 33.7447C180.764 33.017 181.205 32.4475 181.868 32.0361C182.341 31.7514 182.829 31.609 183.334 31.609C183.555 31.609 183.775 31.6406 183.996 31.7039L184.375 31.7988C185.131 31.957 185.699 32.3684 186.077 33.0328C186.33 33.4441 186.456 33.8713 186.456 34.3143C186.456 34.5674 186.409 34.8363 186.314 35.1211C186.251 35.2793 186.188 35.4375 186.125 35.5957C186.125 35.659 186.14 35.7381 186.172 35.833C186.235 35.8963 186.298 35.9279 186.361 35.9279H191.659C192.416 35.9279 193.062 36.1969 193.598 36.7348C194.166 37.2727 194.45 37.9371 194.45 38.7281V38.8705C194.45 39.6299 194.166 40.2943 193.598 40.8639C193.062 41.4018 192.416 41.6707 191.659 41.6707H183.949C183.728 41.6707 183.555 41.7656 183.429 41.9555C183.176 42.4617 182.877 42.9838 182.53 43.5217C182.498 43.585 182.498 43.6641 182.53 43.759C182.561 43.8223 182.624 43.8539 182.719 43.8539H189.814C189.909 43.8539 190.003 43.8381 190.098 43.8064C190.287 43.7432 190.492 43.7115 190.713 43.7115C191.154 43.7115 191.564 43.8539 191.943 44.1387L192.889 44.8506C193.393 45.2303 193.709 45.7365 193.835 46.3693C193.866 46.5275 193.882 46.6857 193.882 46.8439C193.882 47.2869 193.756 47.7141 193.504 48.1254C192.337 49.9289 191.202 51.4951 190.098 52.824C190.035 52.8873 190.019 52.9506 190.051 53.0139C190.082 53.0771 190.13 53.1088 190.193 53.1088H191.99C192.747 53.1088 193.393 53.3777 193.929 53.9156C194.465 54.4535 194.734 55.1021 194.734 55.8615C194.734 56.6209 194.465 57.2695 193.929 57.8074C193.393 58.3453 192.747 58.6143 191.99 58.6143H189.956C189.735 58.6143 189.625 58.725 189.625 58.9465V63.0756C189.625 64.4994 189.467 65.6227 189.152 66.4453C188.868 67.2363 188.316 67.8533 187.496 68.2963C186.55 68.8025 185.289 69.1189 183.712 69.2455C183.649 69.2455 183.57 69.2455 183.476 69.2455C182.814 69.2455 182.199 69.0082 181.631 68.5336C181 68.0273 180.559 67.3787 180.307 66.5877C180.244 66.4295 180.181 66.2713 180.117 66.1131C180.054 65.86 180.023 65.6227 180.023 65.4012C180.023 65.0531 180.133 64.7051 180.354 64.357C180.701 63.8191 181.19 63.5502 181.82 63.5502H182.956C183.239 63.5502 183.429 63.5186 183.523 63.4553C183.649 63.3604 183.712 63.2021 183.712 62.9807V58.9465C183.712 58.725 183.586 58.6143 183.334 58.6143H181.726C180.969 58.6143 180.322 58.3453 179.786 57.8074C179.25 57.2695 178.982 56.6209 178.982 55.8615C178.982 55.1021 179.25 54.4535 179.786 53.9156C180.322 53.3777 180.969 53.1088 181.726 53.1088H183.429C183.618 53.1088 183.712 53.0297 183.712 52.8715V52.3494C183.712 51.9064 183.854 51.5426 184.138 51.2578C184.453 50.9414 184.816 50.7832 185.226 50.7832C185.384 50.7832 185.494 50.7357 185.557 50.6408C185.967 50.008 186.267 49.5334 186.456 49.217C186.487 49.1537 186.472 49.0904 186.409 49.0271C186.377 48.9322 186.33 48.8848 186.267 48.8848H182.814C182.025 48.8848 181.363 48.6158 180.827 48.0779C180.291 47.54 180.023 46.8756 180.023 46.0846V45.1354C180.023 44.8822 179.928 44.6766 179.739 44.5184C179.235 44.0754 178.604 43.5375 177.847 42.9047C177.815 42.9047 177.8 42.9047 177.8 42.9047C177.8 43.1262 177.674 43.2369 177.421 43.2369H170.941C170.689 43.2369 170.563 43.3635 170.563 43.6166V45.5625C170.563 45.8156 170.689 45.9422 170.941 45.9422H175.34C176.097 45.9422 176.743 46.2111 177.279 46.749C177.815 47.2869 178.084 47.9197 178.084 48.6475C178.084 53.5518 177.91 58.108 177.563 62.3162C177.374 64.9107 177.011 66.5877 176.475 67.3471C175.718 68.4545 174.725 69.1189 173.495 69.3404C173.054 69.4354 172.518 69.5145 171.887 69.5777C171.824 69.5777 171.761 69.5777 171.698 69.5777C171.004 69.5777 170.389 69.3404 169.853 68.8658C169.254 68.3596 168.86 67.6951 168.671 66.8725C168.481 66.0498 168.245 65.3221 167.961 64.6893C167.93 64.626 167.882 64.5943 167.819 64.5943C167.756 64.5943 167.709 64.626 167.677 64.6893C167.299 65.4486 166.889 66.1605 166.447 66.825C166.038 67.4262 165.47 67.7268 164.745 67.7268C164.019 67.7268 163.404 67.4578 162.9 66.9199C162.868 66.8566 162.821 66.8092 162.758 66.7775C162.222 66.2396 161.907 65.5752 161.812 64.7842C161.812 64.6576 161.812 64.5152 161.812 64.357C161.812 63.7559 161.97 63.1863 162.285 62.6484C164.051 59.3578 164.934 54.6117 164.934 48.4102ZM159.494 37.9688C159.81 38.4434 159.967 38.9496 159.967 39.4875C159.967 39.6773 159.951 39.8672 159.92 40.057C159.731 40.8164 159.305 41.4176 158.643 41.8605L157.318 42.7623C156.877 43.0154 156.42 43.142 155.947 43.142C155.726 43.142 155.505 43.1104 155.284 43.0471C154.591 42.8889 154.039 42.4775 153.629 41.8131C152.84 40.6107 151.879 39.3293 150.743 37.9688C150.365 37.5258 150.176 37.0195 150.176 36.45C150.176 36.3234 150.192 36.1811 150.223 36.0229C150.318 35.3268 150.665 34.773 151.264 34.3617L152.115 33.8396C152.683 33.4916 153.298 33.3176 153.96 33.3176C154.086 33.3176 154.228 33.3176 154.386 33.3176C155.206 33.4125 155.884 33.7605 156.42 34.3617C157.649 35.659 158.674 36.8613 159.494 37.9688ZM157.791 50.1662C158.58 50.1662 159.242 50.4352 159.778 50.973C160.314 51.5109 160.582 52.1754 160.582 52.9664V65.4012C160.582 65.6543 160.645 65.8758 160.771 66.0656C162.348 68.7551 165.407 70.1947 169.948 70.3846C171.903 70.4795 174.347 70.527 177.279 70.527C178.383 70.527 179.55 70.5111 180.78 70.4795C185.352 70.4479 189.436 70.3213 193.031 70.0998C193.062 70.0998 193.11 70.0998 193.173 70.0998C193.74 70.0998 194.197 70.3371 194.544 70.8117C194.797 71.1281 194.923 71.4762 194.923 71.8559C194.923 72.0773 194.875 72.2988 194.781 72.5203C194.655 72.9316 194.529 73.343 194.402 73.7543C194.15 74.5453 193.709 75.1939 193.078 75.7002C192.447 76.2381 191.738 76.5229 190.949 76.5545C186.818 76.7127 182.971 76.7918 179.408 76.7918C176.002 76.7918 172.849 76.7285 169.948 76.602C167.11 76.4754 164.745 76.0324 162.853 75.273C160.992 74.5137 159.368 73.2797 157.981 71.5711C157.854 71.3813 157.713 71.3813 157.555 71.5711C156.546 72.6469 155.379 73.8176 154.055 75.0832C153.645 75.4629 153.187 75.6527 152.683 75.6527C152.557 75.6527 152.415 75.6527 152.257 75.6527C151.595 75.5262 151.106 75.1465 150.791 74.5137L149.987 72.8051C149.766 72.3305 149.656 71.8559 149.656 71.3813C149.656 71.1281 149.703 70.8434 149.797 70.527C149.987 69.7676 150.412 69.1506 151.075 68.676C152.052 67.9482 152.951 67.2521 153.771 66.5877C153.96 66.4295 154.055 66.2238 154.055 65.9707V57.0006C154.055 56.7791 153.928 56.6684 153.676 56.6684H152.352C151.563 56.6684 150.901 56.3994 150.365 55.8615C149.829 55.292 149.561 54.6275 149.561 53.8682V52.9664C149.561 52.1754 149.829 51.5109 150.365 50.973C150.901 50.4352 151.563 50.1662 152.352 50.1662H157.791Z" fill="white"/>
<path d="M242.177 37.0195C242.366 37.4309 242.46 37.8422 242.46 38.2535C242.46 38.5699 242.397 38.9021 242.271 39.2502C241.987 39.9779 241.483 40.5316 240.758 40.9113L240.332 41.1486C239.953 41.3385 239.591 41.4334 239.244 41.4334C238.96 41.4334 238.661 41.3701 238.345 41.2436C237.683 40.9904 237.21 40.5158 236.926 39.8197C236.516 38.9021 236.043 37.9213 235.507 36.8771C235.286 36.4658 235.176 36.0545 235.176 35.6432C235.176 35.3584 235.223 35.0736 235.318 34.7889C235.539 34.0611 235.98 33.5391 236.642 33.2227L236.69 33.1752C237.163 32.9537 237.636 32.843 238.109 32.843C238.361 32.843 238.645 32.8746 238.96 32.9379C239.717 33.1594 240.3 33.6182 240.71 34.3143C241.246 35.2318 241.735 36.1336 242.177 37.0195ZM216.776 67.0623C216.807 66.999 216.792 66.9357 216.729 66.8725C216.697 66.7775 216.634 66.7301 216.539 66.7301H213.134C213.039 66.7301 212.96 66.7617 212.897 66.825C212.866 66.8883 212.866 66.9674 212.897 67.0623C213.055 67.3787 213.197 67.7268 213.323 68.1064C213.417 68.3596 213.465 68.6285 213.465 68.9133C213.465 69.3246 213.354 69.7201 213.134 70.0998C212.724 70.7643 212.14 71.1756 211.384 71.3338C211.352 71.3338 211.336 71.3496 211.336 71.3813C211.336 71.3813 211.352 71.3813 211.384 71.3813L216.303 70.8592C216.177 70.8275 216.066 70.7484 215.972 70.6219C215.909 70.4953 215.893 70.3688 215.924 70.2422C216.271 69.1031 216.555 68.0432 216.776 67.0623ZM212.14 62.2213C211.92 62.2213 211.809 62.332 211.809 62.5535V63.3604C211.809 63.5818 211.92 63.6926 212.14 63.6926H218.148C218.4 63.6926 218.526 63.5818 218.526 63.3604V62.5535C218.526 62.332 218.4 62.2213 218.148 62.2213H212.14ZM214.222 43.5691C214.001 43.5691 213.89 43.6799 213.89 43.9014V44.8031C213.89 45.0246 214.001 45.1354 214.222 45.1354L219.567 44.7082C219.819 44.6766 219.961 44.55 219.992 44.3285L220.04 43.9014C220.103 43.6799 220.008 43.5691 219.756 43.5691H214.222ZM236.832 52.824C237.084 52.1279 237.541 51.6533 238.203 51.4002C238.487 51.2736 238.771 51.2104 239.055 51.2104C239.433 51.2104 239.796 51.3053 240.143 51.4951L240.379 51.6375C241.104 52.0172 241.625 52.5867 241.94 53.3461C242.098 53.7574 242.177 54.1688 242.177 54.5801C242.177 54.9281 242.113 55.2762 241.987 55.6242C240.663 59.3262 238.96 62.8225 236.879 66.1131C236.753 66.3346 236.721 66.5561 236.784 66.7775C237.257 68.233 237.762 68.9766 238.298 69.0082C238.739 69.0082 239.07 67.9799 239.291 65.9232C239.354 65.3854 239.622 65.0373 240.095 64.8791C240.6 64.6893 241.057 64.7684 241.467 65.1164C241.656 65.243 241.83 65.3695 241.987 65.4961C242.681 66.034 243.201 66.6984 243.548 67.4895C243.738 67.9957 243.832 68.502 243.832 69.0082C243.832 69.293 243.801 69.5777 243.738 69.8625C243.075 72.6152 242.255 74.5453 241.278 75.6527C240.3 76.6969 239.291 77.2189 238.251 77.2189C238.219 77.2189 238.203 77.2189 238.203 77.2189C235.807 77.124 233.836 75.5736 232.291 72.5678C232.196 72.3779 232.07 72.3621 231.912 72.5203C230.809 73.691 229.705 74.7193 228.601 75.6053C228.065 75.985 227.497 76.1748 226.898 76.1748C226.772 76.1748 226.63 76.1748 226.473 76.1748C225.716 76.0482 225.038 75.7002 224.439 75.1307C224.407 75.099 224.391 75.0832 224.391 75.0832C224.234 74.925 224.029 74.8617 223.776 74.8934C218.1 75.5262 212.692 76.1115 207.552 76.6494C207.458 76.6811 207.363 76.6969 207.268 76.6969C206.701 76.6969 206.18 76.507 205.707 76.1273C205.14 75.6844 204.809 75.1148 204.714 74.4188C204.714 74.2922 204.714 74.1814 204.714 74.0865C204.714 73.5486 204.888 73.0582 205.234 72.6152C205.644 72.0773 206.196 71.7768 206.89 71.7135C207.111 71.7135 207.442 71.6977 207.883 71.666C208.356 71.6027 208.672 71.5711 208.829 71.5711C209.05 71.5395 209.145 71.4129 209.113 71.1914C209.05 70.7168 208.924 70.1631 208.735 69.5303C208.672 69.3088 208.64 69.1031 208.64 68.9133C208.64 68.502 208.75 68.1223 208.971 67.7742C209.287 67.2363 209.76 66.9041 210.39 66.7775C210.39 66.7459 210.374 66.7301 210.343 66.7301H209.444C208.687 66.7301 208.025 66.4611 207.458 65.9232C206.921 65.3537 206.653 64.6893 206.653 63.9299V61.984C206.653 61.2246 206.921 60.576 207.458 60.0381C208.025 59.4686 208.687 59.1838 209.444 59.1838H221.222C221.979 59.1838 222.625 59.4686 223.162 60.0381C223.729 60.576 224.013 61.2246 224.013 61.984V63.9299C224.013 64.6893 223.729 65.3537 223.162 65.9232C222.625 66.4611 221.979 66.7301 221.222 66.7301H220.04C220.04 66.7617 220.04 66.7775 220.04 66.7775C220.67 66.8408 221.128 67.1414 221.411 67.6793C221.601 67.9957 221.695 68.2963 221.695 68.5811C221.695 68.8342 221.632 69.0873 221.506 69.3404C221.411 69.6252 221.317 69.8625 221.222 70.0523C221.191 70.1156 221.191 70.1789 221.222 70.2422C221.285 70.3055 221.364 70.3371 221.459 70.3371L224.912 70.0049C225.006 70.0049 225.054 70.0365 225.054 70.0998C226.693 68.8342 228.238 67.3313 229.689 65.591C229.847 65.4012 229.894 65.1955 229.831 64.974C229.043 61.0506 228.459 56.4311 228.081 51.1154C228.081 50.8623 227.955 50.7516 227.702 50.7832L227.229 50.8307C227.103 50.8623 226.977 50.8781 226.851 50.8781C226.252 50.8781 225.7 50.6883 225.195 50.3086C224.565 49.834 224.202 49.217 224.108 48.4576L224.06 48.1254C224.029 47.9039 223.887 47.7615 223.635 47.6982L220.513 47.2711C220.481 47.2711 220.45 47.2869 220.418 47.3186C220.45 47.54 220.402 47.7299 220.276 47.8881C220.15 48.0146 219.977 48.0938 219.756 48.1254L214.222 48.5525C213.969 48.5842 213.859 48.7107 213.89 48.9322C213.89 49.3436 213.969 49.6125 214.127 49.7391C214.316 49.8656 214.663 49.9289 215.168 49.9289H218.621C219.062 49.9289 219.362 49.8182 219.519 49.5967C219.929 49.0588 220.355 48.8848 220.796 49.0746C221.08 49.1695 221.396 49.2645 221.742 49.3594C222.31 49.5492 222.736 49.8973 223.02 50.4035C223.335 50.8781 223.351 51.3369 223.067 51.7799C222.468 52.7607 221.191 53.2512 219.236 53.2512H214.458C212.44 53.2512 211.052 52.9822 210.296 52.4443C209.57 51.9064 209.176 50.8781 209.113 49.3594C209.082 49.1379 208.955 49.043 208.735 49.0746L207.789 49.1221C207.316 49.1854 206.89 49.0588 206.512 48.7424C206.133 48.426 205.912 48.0305 205.849 47.5559C205.786 47.0813 205.897 46.6699 206.18 46.3219C206.496 45.9422 206.89 45.7365 207.363 45.7049L208.735 45.5625C208.955 45.5309 209.066 45.4043 209.066 45.1828V43.9014C209.066 43.6799 208.955 43.5691 208.735 43.5691H205.755C205.502 43.5691 205.376 43.6799 205.376 43.9014V53.7732C205.376 54.0264 205.502 54.1529 205.755 54.1529H223.445C223.981 54.1529 224.439 54.3586 224.817 54.7699C225.227 55.1496 225.432 55.6242 225.432 56.1938C225.432 56.7316 225.227 57.2063 224.817 57.6176C224.439 57.9973 223.981 58.1871 223.445 58.1871H207.505C206.906 58.1871 206.385 57.9814 205.944 57.5701C205.534 57.1271 205.329 56.6051 205.329 56.0039C205.108 63.7559 204.178 69.9574 202.538 74.6086C202.317 75.2414 201.876 75.6211 201.214 75.7477C201.056 75.7793 200.898 75.7951 200.741 75.7951C200.268 75.7951 199.826 75.6211 199.416 75.273C199.322 75.1781 199.227 75.099 199.133 75.0357C198.502 74.5295 198.06 73.8967 197.808 73.1373C197.682 72.726 197.619 72.3305 197.619 71.9508C197.619 71.5711 197.682 71.1914 197.808 70.8117C199.101 66.6035 199.747 60.4178 199.747 52.2545V41.9555C199.747 41.1961 200.015 40.5475 200.552 40.0096C201.088 39.44 201.75 39.1553 202.538 39.1553H208.167C208.419 39.1553 208.545 39.0445 208.545 38.823V34.1244C208.545 33.365 208.813 32.7164 209.35 32.1785C209.917 31.609 210.579 31.3242 211.336 31.3242H213.134C213.67 31.3242 214.111 31.5141 214.458 31.8938C214.837 32.2734 215.026 32.7164 215.026 33.2227C215.026 33.4125 215.105 33.5074 215.262 33.5074H222.688C223.288 33.5074 223.792 33.7289 224.202 34.1719C224.644 34.5832 224.864 35.0895 224.864 35.6906C224.864 36.2918 224.644 36.8139 224.202 37.2568C223.792 37.6682 223.288 37.8738 222.688 37.8738H215.404C215.152 37.8738 215.026 37.9846 215.026 38.2061V38.823C215.026 39.0445 215.152 39.1553 215.404 39.1553H220.182C222.2 39.1553 223.571 39.2186 224.297 39.3451C224.864 39.44 225.306 39.709 225.621 40.152C225.873 40.5 226 40.8797 226 41.291C226 41.4176 225.984 41.56 225.952 41.7182C225.732 42.7307 225.527 43.6641 225.337 44.5184C225.306 44.6133 225.322 44.6924 225.385 44.7557C225.448 44.7873 225.527 44.8031 225.621 44.8031L227.324 44.5658C227.545 44.5342 227.655 44.3918 227.655 44.1387C227.466 39.6773 227.371 36.3867 227.371 34.2668C227.371 33.5391 227.624 32.9063 228.128 32.3684C228.664 31.8305 229.311 31.5615 230.067 31.5615H230.919C231.707 31.5615 232.369 31.8305 232.906 32.3684C233.473 32.9063 233.757 33.5707 233.757 34.3617C233.788 37.241 233.852 40.2152 233.946 43.2844C233.978 43.5375 234.104 43.6482 234.325 43.6166L239.717 42.9047C239.875 42.873 240.016 42.8572 240.143 42.8572C240.742 42.8572 241.294 43.0471 241.798 43.4268C242.397 43.9014 242.744 44.5342 242.839 45.3252L242.933 45.8473C242.933 46.0055 242.933 46.1479 242.933 46.2744C242.933 46.8756 242.744 47.4293 242.366 47.9355C241.893 48.5684 241.278 48.9322 240.521 49.0271L234.656 49.834C234.435 49.8656 234.325 49.9922 234.325 50.2137C234.482 52.302 234.687 54.5326 234.939 56.9057C234.939 56.9373 234.971 56.9689 235.034 57.0006C235.097 57.0006 235.129 56.9848 235.129 56.9531C235.791 55.5609 236.359 54.1846 236.832 52.824Z" fill="white"/>
</svg>
