<svg width="228" height="72" viewBox="0 0 228 72" fill="none" xmlns="http://www.w3.org/2000/svg">
<g filter="url(#filter0_i_1_906)">
<rect width="228" height="72" rx="36" fill="#C33E21"/>
</g>
<path d="M36.3922 10.0137C28.7192 11.9308 13.1976 20.0255 12.4961 37.0669" stroke="#E36144" stroke-width="5.29443" stroke-linecap="round"/>
<path d="M50.3315 47.7949C50.0216 48.2598 49.5789 48.5254 49.0034 48.5918C48.8706 48.6139 48.7489 48.625 48.6382 48.625C48.1955 48.625 47.786 48.5033 47.4097 48.2598L46.7124 47.7949C46.2918 47.5293 46.0483 47.153 45.9819 46.666C45.9598 46.5553 45.9487 46.4557 45.9487 46.3672C45.9487 45.9688 46.0705 45.6035 46.314 45.2715C47.133 44.1204 47.7528 42.737 48.1733 41.1211C48.3062 40.612 48.5939 40.2135 49.0366 39.9258C49.3465 39.7487 49.6564 39.6602 49.9663 39.6602C50.1213 39.6602 50.2873 39.6823 50.4644 39.7266L51.0288 39.8594C51.5601 40.0143 51.9806 40.3242 52.2905 40.7891C52.4897 41.1211 52.5894 41.4642 52.5894 41.8184C52.5894 41.9954 52.5672 42.1615 52.5229 42.3164C51.9917 44.5742 51.2612 46.4004 50.3315 47.7949ZM53.8843 42.8477C53.8621 42.7148 53.8511 42.571 53.8511 42.416C53.8511 42.0618 53.9507 41.7298 54.1499 41.4199C54.4377 40.9772 54.8361 40.7227 55.3452 40.6562L55.644 40.5898C55.7769 40.5677 55.8986 40.5566 56.0093 40.5566C56.4299 40.5566 56.8283 40.6784 57.2046 40.9219C57.6916 41.2096 58.0015 41.6191 58.1343 42.1504C58.422 43.2793 58.6434 44.3971 58.7983 45.5039C58.7983 45.6146 58.7983 45.7142 58.7983 45.8027C58.7983 46.2233 58.6545 46.6217 58.3667 46.998C58.0347 47.4408 57.592 47.7064 57.0386 47.7949L56.5073 47.8613C56.4188 47.8835 56.3192 47.8945 56.2085 47.8945C55.8322 47.8945 55.478 47.7617 55.146 47.4961C54.7476 47.1862 54.5262 46.7656 54.4819 46.2344C54.3713 45.194 54.172 44.0651 53.8843 42.8477ZM59.9604 42.7148C59.894 42.5156 59.8608 42.3164 59.8608 42.1172C59.8608 41.8294 59.9272 41.5527 60.0601 41.2871C60.3035 40.8444 60.6688 40.5677 61.1558 40.457L61.189 40.4238C61.366 40.3796 61.5542 40.3574 61.7534 40.3574C62.1076 40.3574 62.4507 40.446 62.7827 40.623C63.2918 40.8665 63.646 41.2539 63.8452 41.7852C64.2215 42.6927 64.5203 43.5671 64.7417 44.4082C64.786 44.5853 64.8081 44.7513 64.8081 44.9062C64.8081 45.2604 64.7085 45.5924 64.5093 45.9023C64.1994 46.3672 63.7788 46.6771 63.2476 46.832L62.9487 46.8984C62.7938 46.9427 62.6388 46.9648 62.4839 46.9648C62.174 46.9648 61.8641 46.8652 61.5542 46.666C61.1336 46.3783 60.868 45.9798 60.7573 45.4707C60.5581 44.5853 60.2925 43.6667 59.9604 42.7148ZM54.7144 32.9863C54.5373 32.9863 54.4487 33.0749 54.4487 33.252V34.1816C54.4487 34.3587 54.5373 34.4473 54.7144 34.4473H59.3628C59.5399 34.4473 59.6284 34.3587 59.6284 34.1816V33.252C59.6284 33.0749 59.5399 32.9863 59.3628 32.9863H54.7144ZM59.6284 22.7598C59.6284 22.6048 59.5399 22.5273 59.3628 22.5273H54.7144C54.5373 22.5273 54.4487 22.6048 54.4487 22.7598V23.6895C54.4487 23.8665 54.5373 23.9551 54.7144 23.9551H59.3628C59.5399 23.9551 59.6284 23.8665 59.6284 23.6895V22.7598ZM59.3628 29.168C59.5399 29.168 59.6284 29.0905 59.6284 28.9355V28.0059C59.6284 27.8509 59.5399 27.7734 59.3628 27.7734H54.7144C54.5373 27.7734 54.4487 27.8509 54.4487 28.0059V28.9355C54.4487 29.0905 54.5373 29.168 54.7144 29.168H59.3628ZM64.5093 34.1816C64.5093 34.3587 64.5868 34.4473 64.7417 34.4473H75.1343C75.6655 34.4473 76.1082 34.6354 76.4624 35.0117C76.8166 35.388 76.9937 35.8197 76.9937 36.3066C76.9937 38.8079 76.7723 41.4863 76.3296 44.3418C76.064 46.0462 75.6877 47.1862 75.2007 47.7617C74.5145 48.6029 73.5848 49.112 72.4116 49.2891C71.8804 49.3776 71.172 49.4329 70.2866 49.4551C70.2645 49.4551 70.2424 49.4551 70.2202 49.4551C69.7111 49.4551 69.2573 49.278 68.8589 48.9238C68.4604 48.5475 68.1838 48.0827 68.0288 47.5293C67.8296 46.7546 67.5418 45.9798 67.1655 45.2051C67.1434 45.1829 67.1213 45.1719 67.0991 45.1719C66.8778 45.2604 66.745 45.194 66.7007 44.9727C66.4572 44.0651 66.0809 43.069 65.5718 41.9844C65.4611 41.763 65.4058 41.5306 65.4058 41.2871C65.4058 41.0658 65.45 40.8555 65.5386 40.6562C65.7157 40.1914 66.0366 39.8926 66.5015 39.7598C66.745 39.6712 66.9884 39.627 67.2319 39.627C67.5197 39.627 67.7964 39.6823 68.062 39.793C68.5933 39.9701 68.9806 40.3021 69.2241 40.7891C69.4676 41.2539 69.689 41.7077 69.8882 42.1504C69.9767 42.3717 70.021 42.6042 70.021 42.8477C70.021 43.0911 69.9657 43.3457 69.855 43.6113C69.6115 44.0983 69.2241 44.4303 68.6929 44.6074L67.9292 44.9062C67.9071 44.9062 67.896 44.9173 67.896 44.9395C67.896 44.9616 67.9181 44.9727 67.9624 44.9727C68.5822 45.0169 69.0802 45.0391 69.4565 45.0391C69.5894 45.0391 69.7111 45.0391 69.8218 45.0391C70.3088 45.0391 70.674 44.9062 70.9175 44.6406C71.3381 44.1758 71.659 42.2611 71.8804 38.8965C71.9025 38.7415 71.825 38.6641 71.6479 38.6641H51.5601C51.0288 38.6641 50.564 38.4759 50.1655 38.0996C49.7892 37.7012 49.6011 37.2363 49.6011 36.7051V20.2695C49.6011 19.7383 49.7892 19.2845 50.1655 18.9082C50.564 18.5098 51.0288 18.3105 51.5601 18.3105H72.4448C72.9761 18.3105 73.4299 18.5098 73.8062 18.9082C74.2046 19.2845 74.4038 19.7383 74.4038 20.2695V20.5684C74.4038 21.0996 74.2046 21.5645 73.8062 21.9629C73.4299 22.3392 72.9761 22.5273 72.4448 22.5273H64.7417C64.5868 22.5273 64.5093 22.6048 64.5093 22.7598V23.6895C64.5093 23.8665 64.5868 23.9551 64.7417 23.9551H71.2495C71.7808 23.9551 72.2345 24.1432 72.6108 24.5195C72.9871 24.8958 73.1753 25.3496 73.1753 25.8809C73.1753 26.39 72.9871 26.8327 72.6108 27.209C72.2345 27.5853 71.7808 27.7734 71.2495 27.7734H64.7417C64.5868 27.7734 64.5093 27.8509 64.5093 28.0059V28.9355C64.5093 29.0905 64.5868 29.168 64.7417 29.168H71.2495C71.7808 29.168 72.2345 29.3561 72.6108 29.7324C72.9871 30.1087 73.1753 30.5625 73.1753 31.0938C73.1753 31.6029 72.9871 32.0456 72.6108 32.4219C72.2345 32.7982 71.7808 32.9863 71.2495 32.9863H64.7417C64.5868 32.9863 64.5093 33.0749 64.5093 33.252V34.1816ZM97.1479 43.2793C97.1479 43.4564 97.2365 43.5449 97.4136 43.5449H109.3C109.854 43.5449 110.319 43.7331 110.695 44.1094C111.071 44.4857 111.259 44.9505 111.259 45.5039V46.5664C111.259 47.1198 111.071 47.5846 110.695 47.9609C110.319 48.3372 109.854 48.5254 109.3 48.5254H81.8413C81.2879 48.5254 80.8231 48.3372 80.4468 47.9609C80.0705 47.5846 79.8823 47.1198 79.8823 46.5664V45.5039C79.8823 44.9505 80.0705 44.4857 80.4468 44.1094C80.8231 43.7331 81.2879 43.5449 81.8413 43.5449H91.5698C91.7248 43.5449 91.8022 43.4564 91.8022 43.2793V20.2695C91.8022 19.7161 91.9904 19.2513 92.3667 18.875C92.7651 18.4987 93.23 18.3105 93.7612 18.3105H95.189C95.7424 18.3105 96.2072 18.4987 96.5835 18.875C96.9598 19.2513 97.1479 19.7161 97.1479 20.2695V27.4414C97.1479 27.5964 97.2365 27.6738 97.4136 27.6738H106.876C107.43 27.6738 107.895 27.873 108.271 28.2715C108.647 28.6478 108.835 29.1016 108.835 29.6328V30.7285C108.835 31.2598 108.647 31.7246 108.271 32.123C107.895 32.4993 107.43 32.6875 106.876 32.6875H97.4136C97.2365 32.6875 97.1479 32.765 97.1479 32.9199V43.2793ZM124.009 22.8262C124.009 22.6712 123.932 22.5938 123.777 22.5938H120.125C119.947 22.5938 119.859 22.6712 119.859 22.8262V23.4902C119.859 23.6673 119.947 23.7559 120.125 23.7559H123.777C123.932 23.7559 124.009 23.6673 124.009 23.4902V22.8262ZM119.859 27.873C119.859 28.0501 119.947 28.1387 120.125 28.1387H123.777C123.932 28.1387 124.009 28.0501 124.009 27.873V27.1094C124.009 26.9544 123.932 26.877 123.777 26.877H120.125C119.947 26.877 119.859 26.9544 119.859 27.1094V27.873ZM128.625 29.6328C128.625 30.1862 128.436 30.651 128.06 31.0273C127.684 31.4036 127.219 31.5918 126.666 31.5918H120.125C119.947 31.5918 119.859 31.6803 119.859 31.8574V48.2598C119.859 48.8132 119.671 49.278 119.294 49.6543C118.918 50.0306 118.453 50.2188 117.9 50.2188H117.003C116.45 50.2188 115.985 50.0306 115.609 49.6543C115.233 49.278 115.044 48.8132 115.044 48.2598V21.0996C115.044 20.5684 115.233 20.1146 115.609 19.7383C115.985 19.3398 116.45 19.1406 117.003 19.1406H126.666C127.219 19.1406 127.684 19.3398 128.06 19.7383C128.436 20.1146 128.625 20.5684 128.625 21.0996V29.6328ZM128.292 38.6641C128.292 38.819 128.381 38.8965 128.558 38.8965H130.285C130.462 38.8965 130.55 38.819 130.55 38.6641V37.2031C130.55 37.0482 130.462 36.9707 130.285 36.9707H128.558C128.381 36.9707 128.292 37.0482 128.292 37.2031V38.6641ZM138.154 40.9219C138.154 41.4753 137.966 41.9401 137.589 42.3164C137.213 42.6927 136.748 42.8809 136.195 42.8809H135.099C134.944 42.8809 134.867 42.9694 134.867 43.1465V47.6621C134.867 48.1934 134.667 48.6471 134.269 49.0234C133.893 49.4219 133.439 49.6211 132.908 49.6211H132.509C131.956 49.6211 131.491 49.4219 131.115 49.0234C130.738 48.6471 130.55 48.1934 130.55 47.6621V43.1465C130.55 42.9694 130.462 42.8809 130.285 42.8809H128.425C128.248 42.8809 128.149 42.9583 128.126 43.1133C127.706 45.4818 126.787 47.4408 125.371 48.9902C125.016 49.3665 124.607 49.5547 124.142 49.5547C124.076 49.5547 124.02 49.5436 123.976 49.5215C123.445 49.4993 122.969 49.2891 122.548 48.8906C122.482 48.8242 122.404 48.7689 122.316 48.7246C121.962 48.3926 121.785 47.9831 121.785 47.4961C121.785 47.0091 121.94 46.5885 122.25 46.2344C123.002 45.3711 123.533 44.3307 123.843 43.1133C123.865 43.069 123.854 43.0247 123.81 42.9805C123.766 42.9141 123.722 42.8809 123.677 42.8809H122.947C122.416 42.8809 121.951 42.6927 121.552 42.3164C121.176 41.9401 120.988 41.4753 120.988 40.9219V40.8555C120.988 40.3242 121.176 39.8704 121.552 39.4941C121.951 39.0957 122.416 38.8965 122.947 38.8965H123.876C124.031 38.8965 124.109 38.819 124.109 38.6641V37.2031C124.109 37.0482 124.031 36.9707 123.876 36.9707H123.345C122.814 36.9707 122.36 36.7826 121.984 36.4062C121.608 36.0299 121.419 35.5762 121.419 35.0449C121.419 34.5137 121.608 34.0599 121.984 33.6836C122.36 33.3073 122.814 33.1191 123.345 33.1191H135.763C136.294 33.1191 136.748 33.3073 137.125 33.6836C137.501 34.0599 137.689 34.5137 137.689 35.0449C137.689 35.5762 137.501 36.0299 137.125 36.4062C136.748 36.7826 136.294 36.9707 135.763 36.9707H135.099C134.944 36.9707 134.867 37.0482 134.867 37.2031V38.6641C134.867 38.819 134.944 38.8965 135.099 38.8965H136.195C136.748 38.8965 137.213 39.0957 137.589 39.4941C137.966 39.8704 138.154 40.3242 138.154 40.8555V40.9219ZM135.099 27.9727C135.099 28.1497 135.177 28.2383 135.332 28.2383H139.117C139.294 28.2383 139.382 28.1497 139.382 27.9727V27.1094C139.382 26.9544 139.294 26.877 139.117 26.877H135.332C135.177 26.877 135.099 26.9544 135.099 27.1094V27.9727ZM139.382 22.8262C139.382 22.6712 139.294 22.5938 139.117 22.5938H135.332C135.177 22.5938 135.099 22.6712 135.099 22.8262V23.4902C135.099 23.6673 135.177 23.7559 135.332 23.7559H139.117C139.294 23.7559 139.382 23.6673 139.382 23.4902V22.8262ZM142.271 19.1406C142.824 19.1406 143.289 19.3398 143.666 19.7383C144.042 20.1146 144.23 20.5684 144.23 21.0996V44.6738C144.23 45.9134 144.108 46.8763 143.865 47.5625C143.621 48.2487 143.167 48.791 142.503 49.1895C141.618 49.6986 140.334 49.9974 138.652 50.0859C138.63 50.0859 138.597 50.0859 138.552 50.0859C138.043 50.0859 137.589 49.9089 137.191 49.5547C136.748 49.2005 136.46 48.7357 136.328 48.1602C136.217 47.7839 136.106 47.4186 135.996 47.0645C135.951 46.9095 135.929 46.7546 135.929 46.5996C135.929 46.334 136.007 46.0794 136.162 45.8359C136.405 45.4818 136.748 45.3047 137.191 45.3047C137.213 45.3047 137.224 45.3047 137.224 45.3047C137.667 45.3047 138.154 45.3047 138.685 45.3047C138.951 45.3047 139.128 45.2493 139.216 45.1387C139.327 45.028 139.382 44.8509 139.382 44.6074V31.957C139.382 31.7799 139.294 31.6914 139.117 31.6914H132.376C131.823 31.6914 131.358 31.5033 130.982 31.127C130.606 30.7507 130.417 30.2858 130.417 29.7324V21.0996C130.417 20.5684 130.606 20.1146 130.982 19.7383C131.358 19.3398 131.823 19.1406 132.376 19.1406H142.271ZM156.548 29.3672C156.57 29.1901 156.504 29.1016 156.349 29.1016H154.656C154.501 29.1016 154.401 29.1901 154.357 29.3672C153.804 31.8685 153.328 33.916 152.929 35.5098C152.885 35.6647 152.94 35.7865 153.095 35.875C153.892 36.4284 154.423 36.8047 154.689 37.0039C154.822 37.0924 154.91 37.0592 154.955 36.9043C155.685 34.735 156.216 32.2227 156.548 29.3672ZM163.455 33.418C163.41 33.418 163.366 33.418 163.322 33.418C162.835 33.418 162.403 33.263 162.027 32.9531C161.606 32.599 161.374 32.1562 161.33 31.625L161.13 29.7988C161.13 29.7767 161.119 29.7656 161.097 29.7656C161.097 29.7656 161.086 29.7767 161.064 29.7988C160.643 33.7389 159.913 37.1035 158.873 39.8926C158.828 40.0475 158.861 40.1803 158.972 40.291C159.791 40.9772 160.477 41.597 161.031 42.1504C161.451 42.571 161.662 43.0911 161.662 43.7109C161.662 44.2643 161.496 44.7624 161.164 45.2051L160.533 46.0352C160.245 46.4336 159.858 46.6328 159.371 46.6328C159.348 46.6328 159.337 46.6328 159.337 46.6328C158.85 46.6328 158.452 46.4557 158.142 46.1016C157.744 45.681 157.29 45.2161 156.781 44.707C156.67 44.5964 156.57 44.6185 156.482 44.7734C155.353 46.5 153.958 48.0052 152.298 49.2891C151.988 49.5104 151.656 49.6211 151.302 49.6211C151.169 49.6211 151.037 49.61 150.904 49.5879C150.373 49.4772 149.952 49.2005 149.642 48.7578C149.443 48.4701 149.244 48.1934 149.044 47.9277C148.801 47.5957 148.679 47.2415 148.679 46.8652C148.679 46.7767 148.679 46.6882 148.679 46.5996C148.768 46.1126 149.011 45.7142 149.41 45.4043C150.738 44.4082 151.878 43.1243 152.83 41.5527C152.918 41.4199 152.896 41.2982 152.763 41.1875C152.675 41.1211 152.52 40.9993 152.298 40.8223C152.077 40.6452 151.9 40.5124 151.767 40.4238C151.723 40.3574 151.69 40.3685 151.667 40.457C151.601 40.6784 151.457 40.8444 151.236 40.9551C151.014 41.0436 150.804 41.0326 150.605 40.9219L149.177 40.125C148.668 39.8594 148.303 39.4609 148.082 38.9297C147.949 38.6198 147.882 38.2988 147.882 37.9668C147.882 37.7676 147.904 37.5573 147.949 37.3359C148.524 35.1667 149.155 32.4993 149.841 29.334C149.863 29.179 149.797 29.1016 149.642 29.1016C149.133 29.1016 148.69 28.9245 148.314 28.5703C147.96 28.194 147.783 27.7513 147.783 27.2422V26.5117C147.783 25.9805 147.971 25.5267 148.347 25.1504C148.723 24.752 149.188 24.5527 149.742 24.5527H150.605C150.76 24.5527 150.848 24.4753 150.871 24.3203C151.203 22.6602 151.479 21.166 151.701 19.8379C151.789 19.2845 152.055 18.8418 152.498 18.5098C152.874 18.2441 153.283 18.1113 153.726 18.1113C153.815 18.1113 153.903 18.1113 153.992 18.1113L154.689 18.1777C155.22 18.2441 155.641 18.4876 155.951 18.9082C156.194 19.2402 156.316 19.5944 156.316 19.9707C156.316 20.0814 156.305 20.2031 156.283 20.3359C155.995 21.7969 155.718 23.125 155.453 24.3203C155.408 24.4753 155.475 24.5527 155.652 24.5527H157.08C158.474 24.5527 159.459 24.597 160.035 24.6855C160.433 24.752 160.765 24.9512 161.031 25.2832C161.274 25.5931 161.396 25.9251 161.396 26.2793C161.396 26.5671 161.33 27.3418 161.197 28.6035C161.175 28.7585 161.252 28.8359 161.429 28.8359L163.587 28.7031C163.742 28.7031 163.853 28.6257 163.919 28.4707C164.871 25.5931 165.635 22.7155 166.21 19.8379C166.321 19.3066 166.587 18.8861 167.007 18.5762C167.361 18.3327 167.727 18.2109 168.103 18.2109C168.236 18.2109 168.358 18.222 168.468 18.2441L170.128 18.543C170.638 18.6315 171.025 18.8971 171.291 19.3398C171.468 19.6276 171.556 19.9154 171.556 20.2031C171.556 20.3802 171.523 20.5573 171.457 20.7344C170.571 23.457 169.664 25.9583 168.734 28.2383C168.712 28.2826 168.712 28.3379 168.734 28.4043C168.778 28.4486 168.833 28.4596 168.9 28.4375L172.984 28.2051C173.05 28.2051 173.095 28.1829 173.117 28.1387C173.139 28.0723 173.139 28.0169 173.117 27.9727C172.895 27.5964 172.685 27.2422 172.486 26.9102C172.309 26.6003 172.22 26.2904 172.22 25.9805C172.22 25.8034 172.242 25.6263 172.287 25.4492C172.419 24.9622 172.718 24.597 173.183 24.3535L173.615 24.1543C173.925 23.9772 174.257 23.8887 174.611 23.8887C174.788 23.8887 174.976 23.9219 175.175 23.9883C175.729 24.1211 176.149 24.4199 176.437 24.8848C177.854 27.054 178.938 29.013 179.691 30.7617C179.802 31.0273 179.857 31.293 179.857 31.5586C179.857 31.8021 179.813 32.0566 179.724 32.3223C179.525 32.8314 179.171 33.2188 178.662 33.4844L177.832 33.916C177.588 34.0488 177.345 34.1152 177.101 34.1152C176.88 34.1152 176.669 34.071 176.47 33.9824C176.005 33.7832 175.684 33.4401 175.507 32.9531C175.463 32.8867 175.43 32.8203 175.408 32.7539C175.341 32.599 175.231 32.5215 175.076 32.5215C171.711 32.8092 167.837 33.1081 163.455 33.418ZM173.615 40.4238C173.615 40.2467 173.537 40.1582 173.382 40.1582H168.07C167.893 40.1582 167.804 40.2467 167.804 40.4238V44.3086C167.804 44.4635 167.893 44.541 168.07 44.541H173.382C173.537 44.541 173.615 44.4635 173.615 44.3086V40.4238ZM165.115 50.2188C164.561 50.2188 164.097 50.0306 163.72 49.6543C163.344 49.278 163.156 48.8132 163.156 48.2598V37.668C163.156 37.1367 163.344 36.6829 163.72 36.3066C164.097 35.9082 164.561 35.709 165.115 35.709H176.57C177.101 35.709 177.555 35.9082 177.931 36.3066C178.33 36.6829 178.529 37.1367 178.529 37.668V48.127C178.529 48.6803 178.33 49.1452 177.931 49.5215C177.555 49.8978 177.101 50.0859 176.57 50.0859H174.578C174.312 50.0859 174.08 49.9863 173.88 49.7871C173.703 49.61 173.615 49.3887 173.615 49.123C173.615 49.0345 173.57 48.9902 173.482 48.9902H167.937C167.848 48.9902 167.804 49.0456 167.804 49.1562C167.804 49.444 167.694 49.6875 167.472 49.8867C167.273 50.1081 167.018 50.2188 166.708 50.2188H165.115Z" fill="white"/>
<defs>
<filter id="filter0_i_1_906" x="0" y="0" width="228" height="72" filterUnits="userSpaceOnUse" color-interpolation-filters="sRGB">
<feFlood flood-opacity="0" result="BackgroundImageFix"/>
<feBlend mode="normal" in="SourceGraphic" in2="BackgroundImageFix" result="shape"/>
<feColorMatrix in="SourceAlpha" type="matrix" values="0 0 0 0 0 0 0 0 0 0 0 0 0 0 0 0 0 0 127 0" result="hardAlpha"/>
<feOffset dx="-4.41203" dy="-7.94165"/>
<feComposite in2="hardAlpha" operator="arithmetic" k2="-1" k3="1"/>
<feColorMatrix type="matrix" values="0 0 0 0 0 0 0 0 0 0 0 0 0 0 0 0 0 0 0.25 0"/>
<feBlend mode="normal" in2="shape" result="effect1_innerShadow_1_906"/>
</filter>
</defs>
</svg>
