<svg width="426" height="97" viewBox="0 0 426 97" fill="none" xmlns="http://www.w3.org/2000/svg">
<rect x="0.77124" y="0.62793" width="424.457" height="96" rx="48" fill="#1B2E67"/>
<path d="M109.102 34.1947C109.587 34.6798 109.83 35.2407 109.83 35.8773C109.83 35.9379 109.815 36.0137 109.784 36.1047C109.724 36.8323 109.406 37.4386 108.83 37.9237L107.556 38.9696C107.071 39.3637 106.541 39.5608 105.965 39.5608C105.874 39.5608 105.768 39.5456 105.646 39.5153C104.949 39.4547 104.358 39.1364 103.873 38.5603C102.872 37.4386 101.675 36.2714 100.28 35.0588C99.7648 34.604 99.5071 34.0431 99.5071 33.3762C99.5071 32.6486 99.7799 32.0725 100.326 31.6481L101.19 30.966C101.796 30.4809 102.493 30.2232 103.282 30.1929C103.312 30.1929 103.342 30.1929 103.372 30.1929C104.13 30.1929 104.797 30.4354 105.373 30.9205C106.829 32.0725 108.072 33.1639 109.102 34.1947ZM131.021 45.4726C131.052 45.412 131.037 45.3513 130.976 45.2907C130.946 45.1997 130.885 45.1543 130.794 45.1543H126.156C126.065 45.1543 125.989 45.1997 125.928 45.2907C125.898 45.3513 125.898 45.412 125.928 45.4726C126.625 47.0491 127.444 48.5194 128.384 49.8837C128.445 49.9443 128.505 49.9746 128.566 49.9746C128.657 49.9746 128.733 49.9443 128.793 49.8837C129.672 48.5194 130.415 47.0491 131.021 45.4726ZM117.97 58.1147C117.94 58.1753 117.94 58.236 117.97 58.2966C118.031 58.3269 118.091 58.3421 118.152 58.3421C120.183 57.5842 122.093 56.5231 123.882 55.1588C124.064 55.0072 124.094 54.8405 123.973 54.6586C122.609 52.6577 121.396 50.3839 120.335 47.8373C120.304 47.807 120.274 47.7918 120.244 47.7918C120.213 47.7918 120.183 47.8221 120.153 47.8828C119.728 51.9756 119.001 55.3862 117.97 58.1147ZM110.057 60.434C109.997 60.4036 109.936 60.4036 109.875 60.434C109.845 60.4643 109.83 60.5097 109.83 60.5704C109.83 60.7826 109.875 60.9645 109.966 61.1161C110.815 62.4197 111.998 63.3898 113.513 64.0265C115.06 64.6328 116.97 64.9966 119.243 65.1179C121.547 65.2089 123.897 65.2543 126.292 65.2543C130.567 65.2543 135.008 65.1027 139.616 64.7996C139.647 64.7996 139.692 64.7996 139.753 64.7996C140.298 64.7996 140.738 65.027 141.071 65.4817C141.314 65.7849 141.435 66.1184 141.435 66.4822C141.435 66.6641 141.39 66.8611 141.299 67.0733C141.117 67.6797 140.935 68.2709 140.753 68.8469C140.541 69.6351 140.132 70.2869 139.525 70.8023C138.919 71.3177 138.237 71.5754 137.479 71.5754C133.932 71.727 130.612 71.8028 127.52 71.8028C124.518 71.8028 121.729 71.7421 119.152 71.6209C116.333 71.4996 113.968 71.0903 112.058 70.393C110.179 69.6957 108.511 68.5285 107.056 66.8914C106.904 66.7095 106.753 66.6944 106.601 66.846C105.146 68.1193 103.797 69.2713 102.554 70.3021C102.16 70.6053 101.735 70.7568 101.281 70.7568C101.099 70.7568 100.932 70.7417 100.78 70.7114C100.113 70.5598 99.6283 70.1657 99.3252 69.529L98.3247 67.3462C98.1428 66.9521 98.0519 66.5428 98.0519 66.1184C98.0519 65.8455 98.0973 65.5423 98.1883 65.2089C98.4308 64.5116 98.8704 63.9659 99.5071 63.5717C100.75 62.8138 101.887 62.0711 102.918 61.3435C103.1 61.1919 103.191 61.01 103.191 60.7978V52.7941C103.191 52.5819 103.084 52.4758 102.872 52.4758H101.099C100.371 52.4758 99.7345 52.2181 99.1888 51.7027C98.6734 51.157 98.4157 50.5203 98.4157 49.7927V48.9287C98.4157 48.1708 98.6734 47.5341 99.1888 47.0187C99.7345 46.5034 100.371 46.2457 101.099 46.2457H107.147C107.875 46.2457 108.496 46.5034 109.011 47.0187C109.557 47.5341 109.83 48.1708 109.83 48.9287V59.0242C109.83 59.0849 109.845 59.1303 109.875 59.1606C109.936 59.1606 109.982 59.1303 110.012 59.0697C110.891 57.7964 111.604 56.3867 112.149 54.8405C112.725 53.264 113.135 51.6117 113.377 49.8837C113.62 48.1253 113.771 46.5792 113.832 45.2452C113.923 43.9113 113.968 42.3954 113.968 40.6977V32.4667C113.968 31.7391 114.226 31.1176 114.741 30.6022C115.287 30.0565 115.924 29.7836 116.651 29.7836H137.388C138.146 29.7836 138.783 30.0565 139.298 30.6022C139.813 31.1176 140.071 31.7391 140.071 32.4667V33.3762C140.071 34.1038 139.813 34.7404 139.298 35.2861C138.783 35.8015 138.146 36.0592 137.388 36.0592H120.835C120.592 36.0592 120.471 36.1653 120.471 36.3775V38.8787C120.471 39.0909 120.592 39.197 120.835 39.197H132.704C134.614 39.197 136.084 39.3637 137.115 39.6972C137.752 39.8791 138.237 40.2581 138.57 40.8341C138.783 41.1979 138.889 41.592 138.889 42.0165C138.889 42.1984 138.874 42.3954 138.843 42.6076C137.721 47.3371 136.009 51.3389 133.704 54.6131C133.583 54.795 133.614 54.9466 133.795 55.0679C135.493 56.2199 137.403 57.1446 139.525 57.8419C140.101 58.0541 140.465 58.4482 140.617 59.0242C140.677 59.2061 140.708 59.3729 140.708 59.5244C140.708 59.9186 140.571 60.2824 140.298 60.6159C139.904 61.1009 139.525 61.6315 139.162 62.2075C138.707 62.8745 138.116 63.3292 137.388 63.5717C137.054 63.7233 136.706 63.7991 136.342 63.7991C135.978 63.7991 135.614 63.7233 135.251 63.5717C132.947 62.6319 130.9 61.4496 129.111 60.0247C128.93 59.9034 128.748 59.9186 128.566 60.0701C126.959 61.3435 125.155 62.4652 123.154 63.4353C122.79 63.5869 122.411 63.6627 122.017 63.6627C121.714 63.6627 121.411 63.6172 121.108 63.5263C120.38 63.2534 119.819 62.7987 119.425 62.162C118.849 61.1919 118.273 60.343 117.697 59.6154C117.637 59.5548 117.561 59.5396 117.47 59.5699C117.409 59.5699 117.364 59.6002 117.333 59.6609C117.061 60.2672 116.773 60.8584 116.469 61.4344C116.106 62.0407 115.56 62.4045 114.832 62.5258C114.681 62.5561 114.529 62.5713 114.377 62.5713C113.832 62.5713 113.316 62.4045 112.831 62.0711C111.892 61.4344 110.967 60.8887 110.057 60.434ZM168.857 53.5217C169.069 53.5217 169.175 53.4004 169.175 53.1579V47.2461C169.175 47.0036 169.069 46.8823 168.857 46.8823H163.082C162.839 46.8823 162.718 47.0036 162.718 47.2461V53.1579C162.718 53.4004 162.839 53.5217 163.082 53.5217H168.857ZM156.351 43.6991C156.351 42.9714 156.609 42.35 157.124 41.8346C157.64 41.2889 158.276 41.016 159.034 41.016H173.313C174.041 41.016 174.663 41.2889 175.178 41.8346C175.724 42.35 175.996 42.9714 175.996 43.6991V56.6595C175.996 57.3871 175.724 58.0238 175.178 58.5695C174.663 59.0849 174.041 59.3425 173.313 59.3425H159.034C158.276 59.3425 157.64 59.0849 157.124 58.5695C156.609 58.0238 156.351 57.3871 156.351 56.6595V43.6991ZM153.122 63.2989C153.122 63.5414 153.244 63.6627 153.486 63.6627H178.907C179.149 63.6627 179.271 63.5414 179.271 63.2989V36.8778C179.271 36.6655 179.149 36.5594 178.907 36.5594H153.486C153.244 36.5594 153.122 36.6655 153.122 36.8778V63.2989ZM146.119 32.2848C146.119 31.5572 146.377 30.9357 146.892 30.4203C147.408 29.8746 148.044 29.6017 148.802 29.6017H183.955C184.713 29.6017 185.349 29.8746 185.865 30.4203C186.38 30.9357 186.638 31.5572 186.638 32.2848V69.7564C186.638 70.5143 186.38 71.151 185.865 71.6663C185.349 72.1817 184.713 72.4394 183.955 72.4394H181.499C180.862 72.4394 180.332 72.2272 179.907 71.8028C179.483 71.3783 179.271 70.8478 179.271 70.2111C179.271 70.0292 179.165 69.9383 178.952 69.9383H153.395C153.213 69.9383 153.122 70.0292 153.122 70.2111C153.122 70.8478 152.895 71.3783 152.44 71.8028C152.016 72.2272 151.5 72.4394 150.894 72.4394H148.802C148.044 72.4394 147.408 72.1817 146.892 71.6663C146.377 71.151 146.119 70.5143 146.119 69.7564V32.2848ZM216.697 64.072C216.697 64.2842 216.803 64.3903 217.015 64.3903H231.385C232.113 64.3903 232.734 64.6632 233.25 65.2089C233.796 65.7242 234.068 66.3457 234.068 67.0733V68.3921C234.068 69.1197 233.796 69.7412 233.25 70.2566C232.734 70.8023 232.113 71.0752 231.385 71.0752H194.596C193.868 71.0752 193.232 70.8023 192.686 70.2566C192.171 69.7412 191.913 69.1197 191.913 68.3921V67.0733C191.913 66.3457 192.171 65.7242 192.686 65.2089C193.232 64.6632 193.868 64.3903 194.596 64.3903H208.875C209.087 64.3903 209.193 64.2842 209.193 64.072V57.1143C209.193 56.8717 209.087 56.7505 208.875 56.7505H199.189C198.431 56.7505 197.794 56.4928 197.279 55.9774C196.764 55.462 196.506 54.8253 196.506 54.0674V52.9305C196.506 52.1726 196.764 51.536 197.279 51.0206C197.794 50.5052 198.431 50.2475 199.189 50.2475H208.875C209.087 50.2475 209.193 50.1262 209.193 49.8837V43.6991C209.193 43.4565 209.087 43.3353 208.875 43.3353H196.506C195.778 43.3353 195.142 43.0776 194.596 42.5622C194.08 42.0468 193.823 41.4101 193.823 40.6522V39.4244C193.823 38.6665 194.08 38.0298 194.596 37.5144C195.142 36.999 195.778 36.7413 196.506 36.7413H210.876C210.937 36.7413 210.967 36.711 210.967 36.6504C210.997 36.5898 210.982 36.5443 210.921 36.514C209.769 35.5135 208.511 34.4979 207.147 33.4671C206.632 33.1033 206.374 32.6031 206.374 31.9664C206.374 31.2995 206.632 30.7689 207.147 30.3748L208.42 29.5108C209.087 29.056 209.815 28.8135 210.603 28.7832C210.664 28.7832 210.709 28.7832 210.74 28.7832C211.498 28.7832 212.21 28.9954 212.877 29.4198C214.787 30.6931 216.439 31.9058 217.834 33.0578C218.319 33.4823 218.561 33.9977 218.561 34.604C218.561 35.3922 218.258 36.0137 217.652 36.4685L217.515 36.514C217.485 36.5746 217.47 36.6352 217.47 36.6959C217.5 36.7262 217.546 36.7413 217.606 36.7413H229.112C229.839 36.7413 230.461 36.999 230.976 37.5144C231.522 38.0298 231.795 38.6665 231.795 39.4244V40.6522C231.795 41.4101 231.522 42.0468 230.976 42.5622C230.461 43.0776 229.839 43.3353 229.112 43.3353H217.015C216.803 43.3353 216.697 43.4565 216.697 43.6991V49.8837C216.697 50.1262 216.803 50.2475 217.015 50.2475H226.701C227.459 50.2475 228.096 50.5052 228.611 51.0206C229.127 51.536 229.384 52.1726 229.384 52.9305V54.0674C229.384 54.8253 229.127 55.462 228.611 55.9774C228.096 56.4928 227.459 56.7505 226.701 56.7505H217.015C216.803 56.7505 216.697 56.8717 216.697 57.1143V64.072ZM240.162 71.2571C239.586 71.2571 239.086 71.0448 238.661 70.6204C238.237 70.196 238.025 69.6806 238.025 69.0743C238.025 68.4982 238.237 67.998 238.661 67.5736C239.086 67.1491 239.586 66.9369 240.162 66.9369H278.862C279.438 66.9369 279.938 67.1491 280.362 67.5736C280.787 67.998 280.999 68.4982 280.999 69.0743C280.999 69.6806 280.787 70.196 280.362 70.6204C279.938 71.0448 279.438 71.2571 278.862 71.2571H240.162ZM268.948 58.5695C269.16 58.5695 269.266 58.4634 269.266 58.2511V57.7054C269.266 57.4932 269.16 57.3871 268.948 57.3871H262.763C262.551 57.3871 262.445 57.4932 262.445 57.7054V58.2511C262.445 58.4634 262.551 58.5695 262.763 58.5695H268.948ZM268.948 62.7532C269.16 62.7532 269.266 62.6471 269.266 62.4349V61.8437C269.266 61.6315 269.16 61.5254 268.948 61.5254H262.763C262.551 61.5254 262.445 61.6315 262.445 61.8437V62.4349C262.445 62.6471 262.551 62.7532 262.763 62.7532H268.948ZM250.394 61.5254C250.151 61.5254 250.03 61.6315 250.03 61.8437V62.4349C250.03 62.6471 250.151 62.7532 250.394 62.7532H255.851C256.063 62.7532 256.169 62.6471 256.169 62.4349V61.8437C256.169 61.6315 256.063 61.5254 255.851 61.5254H250.394ZM250.394 57.3871C250.151 57.3871 250.03 57.4932 250.03 57.7054V58.2511C250.03 58.4634 250.151 58.5695 250.394 58.5695H255.851C256.063 58.5695 256.169 58.4634 256.169 58.2511V57.7054C256.169 57.4932 256.063 57.3871 255.851 57.3871H250.394ZM243.436 56.9778C243.436 56.2199 243.694 55.5833 244.209 55.0679C244.725 54.5525 245.361 54.2948 246.119 54.2948H273.586C274.314 54.2948 274.935 54.5525 275.451 55.0679C275.997 55.5833 276.269 56.2199 276.269 56.9778V63.1625C276.269 63.8901 275.997 64.5267 275.451 65.0724C274.935 65.5878 274.314 65.8455 273.586 65.8455H246.119C245.361 65.8455 244.725 65.5878 244.209 65.0724C243.694 64.5267 243.436 63.8901 243.436 63.1625V56.9778ZM262.945 38.8787C262.733 38.8787 262.627 38.9848 262.627 39.197V39.6518C262.627 39.8943 262.733 40.0156 262.945 40.0156H269.039C269.251 40.0156 269.357 39.8943 269.357 39.6518V39.197C269.357 38.9848 269.251 38.8787 269.039 38.8787H262.945ZM262.945 34.3311C262.733 34.3311 262.627 34.4373 262.627 34.6495V35.0588C262.627 35.271 262.733 35.3771 262.945 35.3771H269.039C269.251 35.3771 269.357 35.271 269.357 35.0588V34.6495C269.357 34.4373 269.251 34.3311 269.039 34.3311H262.945ZM262.627 48.7468C262.627 48.959 262.733 49.0651 262.945 49.0651H279.089C279.635 49.0651 280.105 49.2622 280.499 49.6563C280.893 50.0504 281.09 50.5355 281.09 51.1115C281.09 51.6572 280.893 52.1271 280.499 52.5213C280.105 52.9154 279.635 53.1124 279.089 53.1124H240.162C239.586 53.1124 239.101 52.9154 238.707 52.5213C238.313 52.1271 238.116 51.6572 238.116 51.1115C238.116 50.5355 238.313 50.0504 238.707 49.6563C239.101 49.2622 239.586 49.0651 240.162 49.0651H255.396C255.608 49.0651 255.715 48.959 255.715 48.7468V48.2921C255.715 48.0798 255.608 47.9737 255.396 47.9737H243.072C242.587 47.9737 242.178 47.807 241.845 47.4735C241.511 47.1097 241.344 46.7004 241.344 46.2457C241.344 45.7606 241.511 45.3513 241.845 45.0178C242.178 44.6843 242.587 44.5176 243.072 44.5176H255.396C255.608 44.5176 255.715 44.3963 255.715 44.1538V43.7445C255.715 43.502 255.608 43.3807 255.396 43.3807H244.619C244.134 43.3807 243.724 43.214 243.391 42.8805C243.057 42.547 242.891 42.1529 242.891 41.6981C242.891 41.2131 243.057 40.819 243.391 40.5158C243.724 40.1823 244.134 40.0156 244.619 40.0156H255.396C255.608 40.0156 255.715 39.8943 255.715 39.6518V39.197C255.715 38.9848 255.608 38.8787 255.396 38.8787H240.026C239.571 38.8787 239.162 38.7119 238.798 38.3784C238.464 38.0146 238.298 37.6054 238.298 37.1506C238.298 36.6655 238.464 36.2563 238.798 35.9228C239.162 35.559 239.571 35.3771 240.026 35.3771H255.396C255.608 35.3771 255.715 35.271 255.715 35.0588V34.6495C255.715 34.4373 255.608 34.3311 255.396 34.3311H244.891C244.406 34.3311 243.997 34.1644 243.664 33.8309C243.36 33.4974 243.209 33.1033 243.209 32.6486C243.209 32.1635 243.36 31.7542 243.664 31.4207C243.997 31.0872 244.406 30.9205 244.891 30.9205H255.396C255.608 30.9205 255.715 30.8144 255.715 30.6022C255.715 29.9352 255.942 29.3592 256.397 28.8741C256.882 28.389 257.473 28.1465 258.17 28.1465H260.171C260.838 28.1465 261.414 28.389 261.899 28.8741C262.384 29.3592 262.627 29.9352 262.627 30.6022C262.627 30.8144 262.718 30.9205 262.9 30.9205H273.541C274.269 30.9205 274.89 31.1782 275.405 31.6936C275.951 32.209 276.224 32.8456 276.224 33.6035V35.0588C276.224 35.271 276.33 35.3771 276.542 35.3771H278.952C279.407 35.3771 279.801 35.559 280.135 35.9228C280.499 36.2563 280.681 36.6655 280.681 37.1506C280.681 37.6054 280.499 38.0146 280.135 38.3784C279.801 38.7119 279.407 38.8787 278.952 38.8787H276.542C276.33 38.8787 276.224 38.9848 276.224 39.197V40.6977C276.224 41.4556 275.951 42.0923 275.405 42.6076C274.89 43.123 274.269 43.3807 273.541 43.3807H262.945C262.733 43.3807 262.627 43.502 262.627 43.7445V44.1538C262.627 44.3963 262.733 44.5176 262.945 44.5176H276.315C276.77 44.5176 277.164 44.6843 277.497 45.0178C277.861 45.3513 278.043 45.7606 278.043 46.2457C278.043 46.7004 277.861 47.1097 277.497 47.4735C277.164 47.807 276.77 47.9737 276.315 47.9737H262.945C262.733 47.9737 262.627 48.0798 262.627 48.2921V48.7468ZM318.152 62.8896C318.364 62.8896 318.47 62.7835 318.47 62.5713V45.7454C318.47 45.5332 318.364 45.4271 318.152 45.4271H314.878C314.666 45.4271 314.56 45.5332 314.56 45.7454V62.5713C314.56 62.7835 314.666 62.8896 314.878 62.8896H318.152ZM293.505 45.4271C293.292 45.4271 293.186 45.5332 293.186 45.7454V62.5713C293.186 62.7835 293.292 62.8896 293.505 62.8896H296.506C296.748 62.8896 296.87 62.7835 296.87 62.5713V45.7454C296.87 45.5332 296.748 45.4271 296.506 45.4271H293.505ZM308.148 47.6099C308.39 47.6099 308.511 47.5038 308.511 47.2916V45.7454C308.511 45.5332 308.39 45.4271 308.148 45.4271H303.236C302.994 45.4271 302.872 45.5332 302.872 45.7454V47.2916C302.872 47.5038 302.994 47.6099 303.236 47.6099H308.148ZM303.236 60.5249C302.994 60.5249 302.872 60.631 302.872 60.8432V62.5713C302.872 62.7835 302.994 62.8896 303.236 62.8896H308.148C308.39 62.8896 308.511 62.7835 308.511 62.5713V60.8432C308.511 60.631 308.39 60.5249 308.148 60.5249H303.236ZM308.148 55.2952C308.39 55.2952 308.511 55.174 308.511 54.9314V53.2034C308.511 52.9608 308.39 52.8396 308.148 52.8396H303.236C302.994 52.8396 302.872 52.9608 302.872 53.2034V54.9314C302.872 55.174 302.994 55.2952 303.236 55.2952H308.148ZM327.429 33.2852C327.429 34.0128 327.156 34.6495 326.611 35.1952C326.095 35.7106 325.474 35.9683 324.746 35.9683H309.512C309.3 35.9683 309.163 36.0744 309.103 36.2866L308.239 38.9241C308.208 39.0151 308.223 39.0909 308.284 39.1515C308.345 39.2122 308.42 39.2425 308.511 39.2425H322.7C323.427 39.2425 324.049 39.5153 324.564 40.061C325.11 40.5764 325.383 41.1979 325.383 41.9255V68.7104C325.383 69.4381 325.11 70.0595 324.564 70.5749C324.049 71.1206 323.427 71.3935 322.7 71.3935H320.517C319.971 71.3935 319.486 71.1813 319.062 70.7568C318.668 70.3627 318.47 69.8928 318.47 69.3471C318.47 69.1652 318.38 69.0743 318.198 69.0743H293.459C293.277 69.0743 293.186 69.1652 293.186 69.3471C293.186 69.8928 292.974 70.3627 292.55 70.7568C292.155 71.1813 291.686 71.3935 291.14 71.3935H289.366C288.639 71.3935 288.002 71.1206 287.456 70.5749C286.941 70.0595 286.683 69.4381 286.683 68.7104V41.9255C286.683 41.1979 286.941 40.5764 287.456 40.061C288.002 39.5153 288.639 39.2425 289.366 39.2425H300.599C300.841 39.2425 300.978 39.1364 301.008 38.9241L301.235 37.6054L301.417 36.2866C301.448 36.0744 301.357 35.9683 301.144 35.9683H287.547C286.82 35.9683 286.183 35.7106 285.637 35.1952C285.122 34.6495 284.864 34.0128 284.864 33.2852V32.2848C284.864 31.5572 285.122 30.9357 285.637 30.4203C286.183 29.8746 286.82 29.6017 287.547 29.6017H324.746C325.474 29.6017 326.095 29.8746 326.611 30.4203C327.156 30.9357 327.429 31.5572 327.429 32.2848V33.2852Z" fill="white"/>
</svg>
