<svg width="192" height="192" viewBox="0 0 192 192" fill="none" xmlns="http://www.w3.org/2000/svg">
<circle cx="96" cy="96" r="92.9534" fill="#C33E21" stroke="#C33E21" stroke-width="5.9068"/>
<circle cx="96.0007" cy="95.9997" r="88.7097" fill="#C33E21" stroke="white" stroke-width="7.08816"/>
<path d="M72.5469 49.5469C72.474 49.5469 72.4375 49.5833 72.4375 49.6562V51.4375C72.4375 51.5208 72.474 51.5573 72.5469 51.5469C72.9323 51.4948 73.349 51.4323 73.7969 51.3594C73.8385 51.3594 73.875 51.3594 73.9062 51.3594C74.0729 51.3594 74.224 51.4115 74.3594 51.5156C74.5469 51.6615 74.6406 51.8542 74.6406 52.0938C74.6406 52.2917 74.5781 52.474 74.4531 52.6406C74.3073 52.8177 74.125 52.9271 73.9062 52.9688C72.4271 53.2292 70.9323 53.474 69.4219 53.7031C69.3802 53.7135 69.3333 53.7188 69.2812 53.7188C69.1042 53.7188 68.9375 53.6615 68.7812 53.5469C68.5938 53.4115 68.4792 53.224 68.4375 52.9844C68.4271 52.9323 68.4219 52.8854 68.4219 52.8438C68.4219 52.6667 68.4792 52.5052 68.5938 52.3594C68.7396 52.1719 68.9271 52.0625 69.1562 52.0312C69.5729 51.9792 70.0417 51.9115 70.5625 51.8281C70.6354 51.8177 70.6719 51.776 70.6719 51.7031V49.6562C70.6719 49.5833 70.6354 49.5469 70.5625 49.5469H69.5781C69.349 49.5469 69.151 49.4688 68.9844 49.3125C68.8281 49.1458 68.75 48.9479 68.75 48.7188C68.75 48.4896 68.8281 48.2969 68.9844 48.1406C69.151 47.974 69.349 47.8906 69.5781 47.8906H70.5625C70.6354 47.8906 70.6719 47.8542 70.6719 47.7812V47.1719C70.6719 46.9323 70.7552 46.7292 70.9219 46.5625C71.099 46.3854 71.3073 46.2969 71.5469 46.2969C71.7969 46.2969 72.0052 46.3854 72.1719 46.5625C72.349 46.7292 72.4375 46.9323 72.4375 47.1719V47.7812C72.4375 47.8542 72.474 47.8906 72.5469 47.8906H73.4531C73.6823 47.8906 73.875 47.974 74.0312 48.1406C74.1875 48.2969 74.2656 48.4896 74.2656 48.7188C74.2656 48.9479 74.1875 49.1458 74.0312 49.3125C73.875 49.4688 73.6823 49.5469 73.4531 49.5469H72.5469ZM76.2969 49.7656C76.2969 49.9844 76.2188 50.1719 76.0625 50.3281C75.9062 50.4844 75.7135 50.5625 75.4844 50.5625C75.2656 50.5625 75.0781 50.4844 74.9219 50.3281C74.7656 50.1719 74.6875 49.9844 74.6875 49.7656V46.1875C74.6875 46.1562 74.6771 46.1354 74.6562 46.125C74.6354 46.1042 74.6094 46.099 74.5781 46.1094L73.9531 46.3438C73.8802 46.3646 73.8073 46.375 73.7344 46.375C73.6302 46.375 73.526 46.349 73.4219 46.2969C73.2552 46.2031 73.1458 46.0573 73.0938 45.8594C73.0833 45.7969 73.0417 45.7708 72.9688 45.7812C71.3438 45.9271 70.1615 46.0365 69.4219 46.1094C69.3906 46.1094 69.3594 46.1094 69.3281 46.1094C69.1302 46.1094 68.9583 46.0469 68.8125 45.9219C68.6354 45.776 68.5312 45.5885 68.5 45.3594C68.5 45.3281 68.5 45.2969 68.5 45.2656C68.5 45.0781 68.5625 44.9115 68.6875 44.7656C68.8333 44.5885 69.0208 44.4948 69.25 44.4844H69.2656C69.3385 44.474 69.3854 44.4375 69.4062 44.375C69.6458 43.625 69.8646 42.8125 70.0625 41.9375C70.0729 41.8542 70.0417 41.8125 69.9688 41.8125H69.7969C69.5469 41.8125 69.3281 41.724 69.1406 41.5469C68.9635 41.3698 68.875 41.151 68.875 40.8906C68.875 40.8906 68.8698 40.8906 68.8594 40.8906C68.849 40.8802 68.8438 40.8802 68.8438 40.8906C68.5938 41.5677 68.2865 42.3073 67.9219 43.1094C67.8906 43.1823 67.875 43.2604 67.875 43.3438V53.5C67.875 53.7396 67.7865 53.9427 67.6094 54.1094C67.4427 54.2865 67.2396 54.375 67 54.375C66.7604 54.375 66.5521 54.2865 66.375 54.1094C66.2083 53.9427 66.125 53.7396 66.125 53.5V46.5C66.125 46.4792 66.1146 46.4688 66.0938 46.4688C66.0833 46.4583 66.0729 46.4583 66.0625 46.4688C65.9479 46.6354 65.8281 46.8021 65.7031 46.9688C65.6094 47.1042 65.4844 47.1719 65.3281 47.1719C65.2969 47.1719 65.2656 47.1667 65.2344 47.1562C65.026 47.125 64.8854 47.0156 64.8125 46.8281C64.75 46.6927 64.6927 46.5625 64.6406 46.4375C64.5469 46.2396 64.5 46.0312 64.5 45.8125C64.5 45.7604 64.5052 45.7083 64.5156 45.6562C64.5365 45.375 64.6302 45.1198 64.7969 44.8906C65.7135 43.6198 66.4844 42.1042 67.1094 40.3438C67.1927 40.0938 67.349 39.9115 67.5781 39.7969C67.7135 39.724 67.8542 39.6875 68 39.6875C68.0938 39.6875 68.1823 39.7031 68.2656 39.7344L68.9062 39.9219C68.9688 39.9427 69.0156 39.9844 69.0469 40.0469C69.0885 40.1094 69.0938 40.1719 69.0625 40.2344C69.0625 40.2552 69.0729 40.2656 69.0938 40.2656H73.625C73.8438 40.2656 74.026 40.3438 74.1719 40.5C74.3281 40.6458 74.4062 40.8281 74.4062 41.0469C74.4062 41.2552 74.3281 41.4375 74.1719 41.5938C74.026 41.7396 73.8438 41.8125 73.625 41.8125H72.0938C72.0208 41.8125 71.9688 41.849 71.9375 41.9219C71.6146 42.849 71.3229 43.625 71.0625 44.25C71.0521 44.2708 71.0521 44.2969 71.0625 44.3281C71.0833 44.349 71.1094 44.3594 71.1406 44.3594L72.4688 44.2656C72.5 44.2656 72.5208 44.2552 72.5312 44.2344C72.5521 44.2031 72.5573 44.1771 72.5469 44.1562C72.474 43.9792 72.401 43.7969 72.3281 43.6094C72.2865 43.526 72.2656 43.4375 72.2656 43.3438C72.2656 43.2604 72.2865 43.1719 72.3281 43.0781C72.4115 42.9115 72.5417 42.7969 72.7188 42.7344C72.8021 42.7031 72.8906 42.6875 72.9844 42.6875C73.0885 42.6875 73.1979 42.7135 73.3125 42.7656C73.5 42.849 73.6354 42.9844 73.7188 43.1719C74.1875 44.1823 74.5052 45.0781 74.6719 45.8594C74.6719 45.8698 74.6719 45.875 74.6719 45.875C74.6823 45.875 74.6875 45.8698 74.6875 45.8594V42.2812C74.6875 42.0625 74.7656 41.875 74.9219 41.7188C75.0781 41.5625 75.2656 41.4844 75.4844 41.4844C75.7135 41.4844 75.9062 41.5625 76.0625 41.7188C76.2188 41.875 76.2969 42.0625 76.2969 42.2812V49.7656ZM77.3125 40.5469C77.3125 40.3177 77.3958 40.1198 77.5625 39.9531C77.7292 39.7865 77.9271 39.7031 78.1562 39.7031C78.3958 39.7031 78.599 39.7865 78.7656 39.9531C78.9323 40.1198 79.0156 40.3177 79.0156 40.5469V52.3125C79.0156 52.7917 78.9635 53.1615 78.8594 53.4219C78.7656 53.6823 78.5938 53.8854 78.3438 54.0312C78.0208 54.2188 77.5365 54.3333 76.8906 54.375C76.8698 54.375 76.849 54.375 76.8281 54.375C76.599 54.375 76.3906 54.2969 76.2031 54.1406C76.0052 53.974 75.8646 53.7552 75.7812 53.4844C75.7812 53.474 75.776 53.4635 75.7656 53.4531C75.7552 53.3802 75.75 53.3125 75.75 53.25C75.75 53.1146 75.7917 52.9896 75.875 52.875C75.9896 52.6979 76.151 52.6094 76.3594 52.6094C76.3698 52.6094 76.375 52.6094 76.375 52.6094C76.5729 52.6094 76.7917 52.6094 77.0312 52.6094C77.1354 52.6094 77.2083 52.5885 77.25 52.5469C77.2917 52.4948 77.3125 52.4167 77.3125 52.3125V40.5469ZM89.1406 50.125C89.0052 50.2604 88.8438 50.3281 88.6562 50.3281L87.9688 50.3438C87.8958 50.3438 87.8438 50.3802 87.8125 50.4531C87.6146 51.0885 87.3385 51.625 86.9844 52.0625C86.9323 52.125 86.9427 52.1719 87.0156 52.2031C87.526 52.474 87.9062 52.6771 88.1562 52.8125C88.2188 52.8542 88.2865 52.8542 88.3594 52.8125C89.4427 52.2083 90.3281 51.375 91.0156 50.3125C91.0573 50.25 91.0625 50.1823 91.0312 50.1094C90.6875 49.2656 90.3906 48.3021 90.1406 47.2188C90.1302 47.2083 90.1146 47.2031 90.0938 47.2031C90.0833 47.1927 90.0729 47.1979 90.0625 47.2188C90.0312 47.2708 90 47.3281 89.9688 47.3906C89.8646 47.5885 89.6979 47.6927 89.4688 47.7031C89.4479 47.7031 89.4271 47.7031 89.4062 47.7031C89.1979 47.7031 89.026 47.625 88.8906 47.4688C88.8385 47.4167 88.7812 47.3646 88.7188 47.3125C88.7083 47.2917 88.6927 47.2865 88.6719 47.2969C88.651 47.3073 88.6406 47.3229 88.6406 47.3438V47.4844C88.6406 47.7448 88.5469 47.9635 88.3594 48.1406C88.1823 48.3177 87.9688 48.4062 87.7188 48.4062H85.1094C85.1927 48.4271 85.2135 48.4792 85.1719 48.5625L84.9531 48.9688C84.9219 49.0104 84.9323 49.0312 84.9844 49.0312C85.4323 49.0312 86.0781 49.026 86.9219 49.0156C87.7656 48.9948 88.3594 48.9792 88.7031 48.9688C88.7031 48.9688 88.7083 48.9688 88.7188 48.9688C88.8958 48.9688 89.0469 49.0365 89.1719 49.1719C89.2969 49.2969 89.3594 49.4427 89.3594 49.6094C89.3594 49.8073 89.2865 49.9792 89.1406 50.125ZM84.2344 50.4219C84.151 50.4219 84.0885 50.4583 84.0469 50.5312L83.9062 50.7656C83.8646 50.8385 83.8802 50.8854 83.9531 50.9062C84.3594 51.0521 84.8125 51.2292 85.3125 51.4375C85.3854 51.4688 85.4479 51.4531 85.5 51.3906C85.7292 51.1406 85.9271 50.8438 86.0938 50.5C86.1042 50.4688 86.099 50.4427 86.0781 50.4219C86.0677 50.401 86.0521 50.3906 86.0312 50.3906L84.2344 50.4219ZM82.9062 46.5938C82.8229 46.5938 82.7812 46.6354 82.7812 46.7188V47.1562C82.7812 47.2292 82.8229 47.2656 82.9062 47.2656H83.9375C84.0104 47.2656 84.0469 47.2292 84.0469 47.1562V46.7188C84.0469 46.6354 84.0104 46.5938 83.9375 46.5938H82.9062ZM86.9844 46.7188C86.9844 46.6354 86.9479 46.5938 86.875 46.5938H85.7812C85.6979 46.5938 85.6562 46.6354 85.6562 46.7188V47.1562C85.6562 47.2292 85.6979 47.2656 85.7812 47.2656H86.875C86.9479 47.2656 86.9844 47.2292 86.9844 47.1562V46.7188ZM92.8281 44.2344C92.8385 44.1615 92.8073 44.125 92.7344 44.125H91.3125C91.2812 44.125 91.2604 44.1406 91.25 44.1719C91.2396 44.2031 91.2344 44.2344 91.2344 44.2656C91.4635 45.6615 91.7396 46.8594 92.0625 47.8594C92.0625 47.8802 92.0729 47.8906 92.0938 47.8906C92.1146 47.8906 92.125 47.8802 92.125 47.8594C92.4375 46.8281 92.6719 45.6198 92.8281 44.2344ZM83.1094 43.6406C83.1094 43.7135 83.1458 43.75 83.2188 43.75H83.9375C84.0104 43.75 84.0469 43.7135 84.0469 43.6406V43.2812C84.0469 43.1979 84.0104 43.1562 83.9375 43.1562H83.2188C83.1458 43.1562 83.1094 43.1979 83.1094 43.2812V43.6406ZM84.0469 41.5469C84.0469 41.474 84.0104 41.4375 83.9375 41.4375H83.2188C83.1458 41.4375 83.1094 41.474 83.1094 41.5469V41.8906C83.1094 41.974 83.1458 42.0156 83.2188 42.0156H83.9375C84.0104 42.0156 84.0469 41.974 84.0469 41.8906V41.5469ZM86.6719 41.5469C86.6719 41.474 86.6354 41.4375 86.5625 41.4375H85.7812C85.6979 41.4375 85.6562 41.474 85.6562 41.5469V41.8906C85.6562 41.974 85.6979 42.0156 85.7812 42.0156H86.5625C86.6354 42.0156 86.6719 41.974 86.6719 41.8906V41.5469ZM85.6562 43.6406C85.6562 43.7135 85.6979 43.75 85.7812 43.75H86.5625C86.6354 43.75 86.6719 43.7135 86.6719 43.6406V43.2812C86.6719 43.1979 86.6354 43.1562 86.5625 43.1562H85.7812C85.6979 43.1562 85.6562 43.1979 85.6562 43.2812V43.6406ZM95.4688 43.375C95.4688 43.5729 95.3958 43.75 95.25 43.9062C95.1042 44.0521 94.9271 44.125 94.7188 44.125C94.6562 44.125 94.6198 44.1562 94.6094 44.2188C94.2969 46.6771 93.7969 48.6458 93.1094 50.125C93.0781 50.1979 93.0781 50.2656 93.1094 50.3281C93.5885 51.1615 94.151 51.8438 94.7969 52.375C94.9844 52.5208 95.0885 52.7135 95.1094 52.9531C95.1094 52.9844 95.1094 53.0156 95.1094 53.0469C95.1094 53.2344 95.0469 53.4115 94.9219 53.5781C94.8906 53.6094 94.8646 53.6406 94.8438 53.6719C94.6771 53.8698 94.474 53.9896 94.2344 54.0312C94.1823 54.0417 94.1302 54.0469 94.0781 54.0469C93.901 54.0469 93.7344 53.9896 93.5781 53.875C93.0052 53.375 92.4948 52.7865 92.0469 52.1094C92.0052 52.0469 91.9583 52.0417 91.9062 52.0938C91.375 52.7917 90.75 53.4062 90.0312 53.9375C89.8854 54.0417 89.7344 54.0938 89.5781 54.0938C89.5156 54.0938 89.4479 54.0833 89.375 54.0625C89.1354 54 88.9479 53.8646 88.8125 53.6562C88.7188 53.5104 88.6198 53.3646 88.5156 53.2188C88.474 53.1562 88.4219 53.151 88.3594 53.2031L88 53.5625C87.8125 53.75 87.5833 53.8542 87.3125 53.875C87.2708 53.8854 87.2344 53.8906 87.2031 53.8906C86.974 53.8906 86.7656 53.8281 86.5781 53.7031C86.3385 53.5573 86.0677 53.4062 85.7656 53.25C85.7031 53.2083 85.6354 53.2083 85.5625 53.25C84.7812 53.6875 83.7292 54.0417 82.4062 54.3125C82.3542 54.3229 82.2969 54.3281 82.2344 54.3281C82.0781 54.3281 81.9323 54.2865 81.7969 54.2031C81.599 54.0781 81.4479 53.9115 81.3438 53.7031C81.3125 53.6198 81.2969 53.5365 81.2969 53.4531C81.2969 53.3698 81.3177 53.2865 81.3594 53.2031C81.4323 53.0365 81.5625 52.9375 81.75 52.9062C82.6146 52.8021 83.3177 52.6458 83.8594 52.4375C83.8802 52.4271 83.8906 52.4115 83.8906 52.3906C83.8906 52.3698 83.8802 52.3542 83.8594 52.3438C83.7865 52.3229 83.6667 52.2812 83.5 52.2188C83.3438 52.1458 83.2188 52.0885 83.125 52.0469C83.1146 52.0469 83.1042 52.0521 83.0938 52.0625C83.0104 52.1875 82.901 52.2344 82.7656 52.2031L82.2188 52.0625C82.0312 52.0208 81.901 51.9115 81.8281 51.7344C81.8073 51.6615 81.7969 51.5885 81.7969 51.5156C81.7969 51.4219 81.8229 51.3229 81.875 51.2188C81.9896 51.0417 82.1302 50.8229 82.2969 50.5625C82.3073 50.5312 82.3021 50.5052 82.2812 50.4844C82.2708 50.4635 82.2552 50.4531 82.2344 50.4531L81.3438 50.4688C81.1458 50.4688 80.974 50.401 80.8281 50.2656C80.6823 50.1198 80.6094 49.9427 80.6094 49.7344C80.6094 49.5573 80.6719 49.401 80.7969 49.2656C80.9323 49.1302 81.0938 49.0625 81.2812 49.0625C81.9375 49.0625 82.5156 49.0573 83.0156 49.0469C83.099 49.0469 83.1562 49.0156 83.1875 48.9531C83.2604 48.8281 83.3438 48.6823 83.4375 48.5156C83.4479 48.4844 83.4427 48.4583 83.4219 48.4375C83.4115 48.4167 83.3958 48.4062 83.375 48.4062H82.1406C81.8802 48.4062 81.6615 48.3177 81.4844 48.1406C81.3073 47.9635 81.2188 47.7448 81.2188 47.4844V46.375C81.2188 46.1146 81.3073 45.8958 81.4844 45.7188C81.6615 45.5417 81.8802 45.4531 82.1406 45.4531H83.9375C84.0104 45.4531 84.0469 45.4115 84.0469 45.3281V45.0625C84.0469 44.9896 84.0104 44.9531 83.9375 44.9531H82.4531C82.2031 44.9531 81.9844 44.8646 81.7969 44.6875C81.6198 44.5 81.5312 44.2812 81.5312 44.0312V43.375C81.5312 43.2917 81.4948 43.25 81.4219 43.25H81.2031C81.0156 43.25 80.8542 43.1875 80.7188 43.0625C80.5938 42.9271 80.5312 42.7708 80.5312 42.5938C80.5312 42.4062 80.5938 42.2448 80.7188 42.1094C80.8542 41.974 81.0156 41.9062 81.2031 41.9062H81.4219C81.4948 41.9062 81.5312 41.8698 81.5312 41.7969V41.1562C81.5312 40.8958 81.6198 40.6771 81.7969 40.5C81.9844 40.3229 82.2031 40.2344 82.4531 40.2344H83.9531C84.0156 40.2344 84.0469 40.2031 84.0469 40.1406C84.0469 39.9531 84.1146 39.7917 84.25 39.6562C84.3854 39.5208 84.5521 39.4531 84.75 39.4531H84.9688C85.1562 39.4531 85.3177 39.5208 85.4531 39.6562C85.5885 39.7917 85.6562 39.9531 85.6562 40.1406C85.6562 40.2031 85.6875 40.2344 85.75 40.2344H87.3906C87.651 40.2344 87.8698 40.3229 88.0469 40.5C88.224 40.6771 88.3125 40.8958 88.3125 41.1562V41.7969C88.3125 41.8698 88.3542 41.9062 88.4375 41.9062H88.6875C88.875 41.9062 89.0312 41.974 89.1562 42.1094C89.2917 42.2448 89.3594 42.4062 89.3594 42.5938C89.3594 42.7708 89.2917 42.9271 89.1562 43.0625C89.0312 43.1875 88.875 43.25 88.6875 43.25H88.4375C88.3542 43.25 88.3125 43.2917 88.3125 43.375V44.0312C88.3125 44.2812 88.224 44.5 88.0469 44.6875C87.8698 44.8646 87.651 44.9531 87.3906 44.9531H85.7812C85.6979 44.9531 85.6562 44.9896 85.6562 45.0625V45.3281C85.6562 45.4115 85.6979 45.4531 85.7812 45.4531H88.1875C88.3125 45.4531 88.4167 45.5 88.5 45.5938C88.5938 45.6771 88.6406 45.7812 88.6406 45.9062C88.6406 45.9062 88.6406 45.9115 88.6406 45.9219C88.651 45.9219 88.6615 45.9167 88.6719 45.9062C89.3698 44.5729 89.8906 42.724 90.2344 40.3594C90.2656 40.1094 90.3854 39.9062 90.5938 39.75C90.75 39.625 90.9271 39.5625 91.125 39.5625C91.1667 39.5625 91.2083 39.5625 91.25 39.5625C91.5 39.6042 91.7031 39.724 91.8594 39.9219C91.9844 40.0781 92.0469 40.25 92.0469 40.4375C92.0469 40.4896 92.0417 40.5417 92.0312 40.5938C91.9583 41.1042 91.8594 41.6562 91.7344 42.25C91.724 42.3229 91.7552 42.3594 91.8281 42.3594H94.5938C94.8333 42.3594 95.0365 42.4479 95.2031 42.625C95.3802 42.7917 95.4688 42.9948 95.4688 43.2344V43.375ZM101.75 39.9375C101.948 39.9375 102.115 40.0104 102.25 40.1562C102.396 40.2917 102.469 40.4635 102.469 40.6719C102.469 40.8698 102.396 41.0417 102.25 41.1875C102.115 41.3229 101.948 41.3906 101.75 41.3906H98.1094C97.9115 41.3906 97.7396 41.3229 97.5938 41.1875C97.4583 41.0417 97.3906 40.8698 97.3906 40.6719C97.3906 40.4635 97.4583 40.2917 97.5938 40.1562C97.7396 40.0104 97.9115 39.9375 98.1094 39.9375H101.75ZM102.312 42.0938C102.521 42.0938 102.698 42.1667 102.844 42.3125C103 42.4583 103.078 42.6354 103.078 42.8438C103.078 43.0521 103 43.2292 102.844 43.375C102.698 43.5208 102.521 43.5938 102.312 43.5938H97.2812C97.0729 43.5938 96.8958 43.5208 96.75 43.375C96.6042 43.2292 96.5312 43.0521 96.5312 42.8438C96.5312 42.6354 96.6042 42.4583 96.75 42.3125C96.8958 42.1667 97.0729 42.0938 97.2812 42.0938H102.312ZM100.719 50.3281C100.719 50.2552 100.682 50.2188 100.609 50.2188H99.0156C98.9323 50.2188 98.8906 50.2552 98.8906 50.3281V51.9375C98.8906 52.0208 98.9323 52.0625 99.0156 52.0625H100.609C100.682 52.0625 100.719 52.0208 100.719 51.9375V50.3281ZM101.469 48.7188C101.719 48.7188 101.932 48.8073 102.109 48.9844C102.297 49.1615 102.391 49.3802 102.391 49.6406V52.625C102.391 52.875 102.297 53.0885 102.109 53.2656C101.932 53.4531 101.719 53.5469 101.469 53.5469H98.9688C98.9167 53.5469 98.8906 53.5677 98.8906 53.6094C98.8906 53.7656 98.8385 53.8958 98.7344 54C98.6302 54.1146 98.5 54.1719 98.3438 54.1719H98.0781C97.849 54.1719 97.651 54.0885 97.4844 53.9219C97.3281 53.7656 97.25 53.5729 97.25 53.3438V49.6406C97.25 49.3802 97.3385 49.1615 97.5156 48.9844C97.6927 48.8073 97.9115 48.7188 98.1719 48.7188H101.469ZM98.0156 47.9219C97.8177 47.9219 97.6458 47.8542 97.5 47.7188C97.3646 47.5833 97.2969 47.4167 97.2969 47.2188C97.2969 47.0208 97.3646 46.8542 97.5 46.7188C97.6458 46.5729 97.8177 46.5 98.0156 46.5H101.719C101.917 46.5 102.083 46.5729 102.219 46.7188C102.365 46.8542 102.438 47.0208 102.438 47.2188C102.438 47.4167 102.365 47.5833 102.219 47.7188C102.083 47.8542 101.917 47.9219 101.719 47.9219H98.0156ZM98.0312 45.7656C97.8229 45.7656 97.6458 45.6979 97.5 45.5625C97.3646 45.4167 97.2969 45.2448 97.2969 45.0469C97.2969 44.8385 97.3646 44.6667 97.5 44.5312C97.6458 44.3854 97.8229 44.3125 98.0312 44.3125H101.703C101.901 44.3125 102.073 44.3854 102.219 44.5312C102.365 44.6667 102.438 44.8385 102.438 45.0469C102.438 45.2448 102.365 45.4167 102.219 45.5625C102.073 45.6979 101.901 45.7656 101.703 45.7656H98.0312ZM110.688 44.7969C110.948 44.7969 111.167 44.8854 111.344 45.0625C111.521 45.2396 111.609 45.4583 111.609 45.7188V45.7656C111.609 46.0156 111.521 46.2344 111.344 46.4219C111.167 46.599 110.948 46.6875 110.688 46.6875H108.391C108.307 46.6875 108.266 46.724 108.266 46.7969V53.4688C108.266 53.7292 108.177 53.9479 108 54.125C107.823 54.3021 107.604 54.3906 107.344 54.3906H107.281C107.021 54.3906 106.802 54.3021 106.625 54.125C106.448 53.9479 106.359 53.7292 106.359 53.4688V46.7969C106.359 46.724 106.318 46.6875 106.234 46.6875H103.938C103.677 46.6875 103.458 46.599 103.281 46.4219C103.104 46.2344 103.016 46.0156 103.016 45.7656V45.7188C103.016 45.4583 103.104 45.2396 103.281 45.0625C103.458 44.8854 103.677 44.7969 103.938 44.7969H106.234C106.318 44.7969 106.359 44.7552 106.359 44.6719V40.4375C106.359 40.1771 106.448 39.9583 106.625 39.7812C106.802 39.6042 107.021 39.5156 107.281 39.5156H107.344C107.604 39.5156 107.823 39.6042 108 39.7812C108.177 39.9583 108.266 40.1771 108.266 40.4375V44.6719C108.266 44.7552 108.307 44.7969 108.391 44.7969H110.688ZM116.266 42.2344C116.266 42.1615 116.229 42.125 116.156 42.125H114.922C114.839 42.125 114.797 42.1615 114.797 42.2344V44.8125C114.797 44.8958 114.839 44.9375 114.922 44.9375H116.156C116.229 44.9375 116.266 44.8958 116.266 44.8125V42.2344ZM114.797 49.4844C114.797 49.5677 114.839 49.6094 114.922 49.6094H116.156C116.229 49.6094 116.266 49.5677 116.266 49.4844V46.7188C116.266 46.6354 116.229 46.5938 116.156 46.5938H114.922C114.839 46.5938 114.797 46.6354 114.797 46.7188V49.4844ZM117.125 40.4219C117.385 40.4219 117.604 40.5156 117.781 40.7031C117.958 40.8802 118.047 41.0938 118.047 41.3438V50.375C118.047 50.6354 117.958 50.8542 117.781 51.0312C117.604 51.2083 117.385 51.2969 117.125 51.2969H114.922C114.839 51.2969 114.797 51.3385 114.797 51.4219V51.8281C114.797 52.0781 114.708 52.2917 114.531 52.4688C114.365 52.6354 114.161 52.7188 113.922 52.7188C113.682 52.7188 113.474 52.6354 113.297 52.4688C113.13 52.2917 113.047 52.0781 113.047 51.8281V41.3438C113.047 41.0938 113.135 40.8802 113.312 40.7031C113.49 40.5156 113.708 40.4219 113.969 40.4219H117.125ZM119.547 50.6406C119.443 50.4948 119.391 50.3385 119.391 50.1719C119.391 50.1302 119.396 50.0833 119.406 50.0312C119.438 49.8021 119.552 49.6302 119.75 49.5156C119.917 49.4219 120.099 49.375 120.297 49.375C120.349 49.375 120.406 49.3802 120.469 49.3906C120.719 49.4219 120.927 49.5365 121.094 49.7344C121.458 50.151 121.76 50.5417 122 50.9062C122.094 51.0521 122.141 51.2031 122.141 51.3594C122.141 51.4323 122.125 51.5104 122.094 51.5938C122.031 51.8438 121.885 52.0365 121.656 52.1719L121.609 52.1875C121.474 52.2604 121.339 52.2969 121.203 52.2969C121.109 52.2969 121.021 52.2865 120.938 52.2656C120.708 52.1927 120.526 52.0469 120.391 51.8281C120.161 51.4531 119.88 51.0573 119.547 50.6406ZM127.203 44.4531C127.37 44.6094 127.453 44.8021 127.453 45.0312C127.453 45.2604 127.37 45.4583 127.203 45.625C127.047 45.7812 126.854 45.8594 126.625 45.8594H125.922C125.849 45.8594 125.812 45.901 125.812 45.9844V47.125C125.812 47.1979 125.849 47.2344 125.922 47.2344H126.516C126.745 47.2344 126.938 47.3177 127.094 47.4844C127.26 47.6406 127.344 47.8333 127.344 48.0625C127.344 48.2917 127.26 48.4896 127.094 48.6562C126.938 48.8125 126.745 48.8906 126.516 48.8906H125.922C125.849 48.8906 125.812 48.9271 125.812 49V52.375C125.812 52.8438 125.755 53.2031 125.641 53.4531C125.526 53.7135 125.318 53.9167 125.016 54.0625C124.62 54.2292 124.036 54.3281 123.266 54.3594C123.245 54.3594 123.229 54.3594 123.219 54.3594C122.979 54.3594 122.76 54.2812 122.562 54.125C122.354 53.9583 122.203 53.7448 122.109 53.4844C122.099 53.4635 122.094 53.4479 122.094 53.4375C122.062 53.3542 122.047 53.276 122.047 53.2031C122.047 53.0885 122.083 52.9792 122.156 52.875C122.271 52.6979 122.432 52.6094 122.641 52.6094C122.641 52.6094 122.646 52.6094 122.656 52.6094C122.948 52.6094 123.271 52.6094 123.625 52.6094C123.76 52.6094 123.849 52.5938 123.891 52.5625C123.943 52.5208 123.969 52.4427 123.969 52.3281V49C123.969 48.9271 123.927 48.8906 123.844 48.8906H119.172C118.943 48.8906 118.75 48.8125 118.594 48.6562C118.438 48.4896 118.359 48.2917 118.359 48.0625C118.359 47.8333 118.438 47.6406 118.594 47.4844C118.75 47.3177 118.943 47.2344 119.172 47.2344H123.844C123.927 47.2344 123.969 47.1979 123.969 47.125V45.9844C123.969 45.901 123.927 45.8594 123.844 45.8594H119.156C118.927 45.8594 118.729 45.7812 118.562 45.625C118.396 45.4583 118.312 45.2604 118.312 45.0312C118.312 44.8021 118.396 44.6094 118.562 44.4531C118.729 44.2865 118.927 44.2031 119.156 44.2031H121.812C121.896 44.2031 121.938 44.1615 121.938 44.0781V42.9062C121.938 42.8333 121.896 42.7969 121.812 42.7969H119.703C119.464 42.7969 119.26 42.7135 119.094 42.5469C118.938 42.3802 118.859 42.1823 118.859 41.9531C118.859 41.724 118.938 41.5312 119.094 41.375C119.26 41.2083 119.464 41.125 119.703 41.125H121.812C121.896 41.125 121.938 41.0885 121.938 41.0156V40.375C121.938 40.1146 122.026 39.8958 122.203 39.7188C122.38 39.5417 122.599 39.4531 122.859 39.4531H122.891C123.141 39.4531 123.354 39.5417 123.531 39.7188C123.719 39.8958 123.812 40.1146 123.812 40.375V41.0156C123.812 41.0885 123.849 41.125 123.922 41.125H126.172C126.401 41.125 126.599 41.2083 126.766 41.375C126.932 41.5312 127.016 41.724 127.016 41.9531C127.016 42.1823 126.932 42.3802 126.766 42.5469C126.599 42.7135 126.401 42.7969 126.172 42.7969H123.922C123.849 42.7969 123.812 42.8333 123.812 42.9062V44.0781C123.812 44.1615 123.849 44.2031 123.922 44.2031H126.625C126.854 44.2031 127.047 44.2865 127.203 44.4531Z" fill="white"/>
</svg>
